<?xml version="1.0" encoding="UTF-8"?>
<svg width="26px" height="23px" viewBox="0 0 26 23" version="1.1" xmlns="http://www.w3.org/2000/svg" xmlns:xlink="http://www.w3.org/1999/xlink">
    <!-- Generator: Sketch 50.2 (55047) - http://www.bohemiancoding.com/sketch -->
    <title>Shopping cart 2</title>
    <desc>Created with Sketch.</desc>
    <defs></defs>
    <g id="desktop" stroke="none" stroke-width="1" fill="none" fill-rule="evenodd">
        <g id="catalog-favorites-1280-" transform="translate(-1116.000000, -361.000000)" fill="#FFFFFF">
            <g id="Group-3" transform="translate(40.000000, 259.000000)">
                <g id="card-catalog-1" transform="translate(28.000000, 70.000000)">
                    <g id="card-catalog">
                        <g id="button" transform="translate(1038.000000, 19.000000)">
                            <path d="M31.6927242,31.5767403 L31.6927242,31.5767403 L17.493159,31.5767403 L17.4915062,31.5767403 C17.4915062,31.5767403 17.4915062,31.5767403 17.4898533,31.5767403 C17.1989531,31.5767403 16.9245814,31.4639545 16.719629,31.2581408 C16.5113709,31.0523271 16.3964984,30.7773601 16.3964984,30.4851047 C16.3964984,30.1912028 16.509718,29.9203521 16.7163233,29.7145384 C16.9245814,29.5070782 17.1989531,29.3909993 17.4923326,29.3909993 L17.4923326,29.3909993 L17.4939854,29.3909993 L31.5497534,29.3909993 C31.7662757,29.3909993 31.951394,29.2461065 32.0034585,29.0386464 L35.1265034,16.5935064 C35.1603866,16.4568461 35.1298091,16.3103068 35.0422084,16.1950512 C34.9521285,16.0839118 34.8165955,16.0180514 34.6744511,16.0180514 L14.7081203,16.0180514 L14.0354136,13.3507065 C14.0221909,13.307074 13.9808698,13.2864926 13.9593829,13.2461531 C13.9288053,13.1951113 13.9081448,13.1531254 13.8610388,13.1160789 C13.8098007,13.0724464 13.7527777,13.0617441 13.6899697,13.0436325 C13.6511279,13.0321069 13.6255088,13 13.5833614,13 L10.4636222,13 C10.2066052,13 10,13.2107532 10,13.4626691 C10,13.7195245 10.2066052,13.9253382 10.4636222,13.9253382 L13.2222154,13.9253382 L16.9245814,28.5768005 C16.6047564,28.6698283 16.3014599,28.8147211 16.0576658,29.0575812 C15.6766857,29.4371016 15.4667748,29.9434032 15.4667748,30.4834582 C15.4667748,31.0251597 15.6783385,31.5314613 16.0626243,31.9126282 C16.1171681,31.966963 16.1898931,31.9916607 16.2518747,32.0394094 C16.1907195,32.0863349 16.1146888,32.1102093 16.060145,32.1645441 C15.6775121,32.549004 15.4676012,33.0553056 15.4676012,33.5953606 C15.4676012,34.7051079 16.3766643,35.6098647 17.4915062,35.6098647 L17.4964647,35.6098647 C18.0385968,35.6098647 18.5468457,35.3991115 18.9294787,35.0195911 C19.3121116,34.6367777 19.5220225,34.1304761 19.5203696,33.5953606 C19.5203696,33.1820868 19.3650025,32.8206781 19.1526123,32.5020785 L30.0332709,32.5020785 C29.8167486,32.8272641 29.6671664,33.1919659 29.6671664,33.5953606 C29.6671664,34.7051079 30.5745766,35.6098647 31.6910714,35.6098647 L31.6976827,35.6098647 C32.2381621,35.6098647 32.7480638,35.3991115 33.127391,35.0195911 C33.5100239,34.6367777 33.7199349,34.1304761 33.7199349,33.5953606 C33.7199349,32.4823204 32.8116982,31.5767403 31.6927242,31.5767403 L31.6927242,31.5767403 Z M31.187781,28.4656612 L17.8584371,28.4656612 L15.7485843,20.0577618 L33.300113,20.0577618 L31.187781,28.4656612 L31.187781,28.4656612 Z M34.0802544,16.9450361 L33.5315109,19.1316004 L15.5147072,19.1316004 L14.9659636,16.9450361 L34.0802544,16.9450361 L34.0802544,16.9450361 Z M18.5914725,33.5978304 C18.5931253,33.8859695 18.4782528,34.1609366 18.2733004,34.3683967 C18.0650423,34.5742104 17.7890177,34.6869963 17.4972911,34.6869963 L17.4906797,34.6869963 C16.8898717,34.6869963 16.3981512,34.197983 16.3981512,33.5937141 C16.3981512,33.3039285 16.5113709,33.0289615 16.7179761,32.8231478 C16.9262342,32.6173342 17.2022588,32.5045483 17.4972911,32.5045483 C18.1005784,32.5045483 18.5914725,32.9935615 18.5914725,33.5978304 L18.5914725,33.5978304 Z M32.4703864,34.3683967 C32.2621283,34.5742104 31.9861037,34.6869963 31.6968563,34.6869963 L31.6885921,34.6869963 C31.0861312,34.6869963 30.5944107,34.197983 30.5944107,33.5937141 C30.5944107,33.3039285 30.7076304,33.0289615 30.9142357,32.8231478 C31.1224937,32.6173342 31.4001712,32.5045483 31.6968563,32.5045483 C32.2993172,32.5045483 32.7893848,32.9935615 32.7893848,33.5978304 C32.7902113,33.8859695 32.6786444,34.1609366 32.4703864,34.3683967 L32.4703864,34.3683967 Z" id="Shopping-cart-2"></path>
                        </g>
                    </g>
                </g>
            </g>
        </g>
    </g>
</svg>