<?xml version="1.0" encoding="UTF-8"?>
<svg width="26px" height="23px" viewBox="0 0 26 23" version="1.1" xmlns="http://www.w3.org/2000/svg" xmlns:xlink="http://www.w3.org/1999/xlink">
    <!-- Generator: Sketch 49.3 (51167) - http://www.bohemiancoding.com/sketch -->
    <title>cart</title>
    <desc>Created with Sketch.</desc>
    <defs></defs>
    <g id="Symbols" stroke="none" stroke-width="1" fill="none" fill-rule="evenodd">
        <g id="header" transform="translate(-1214.000000, -70.000000)" fill="#646464">
            <g id="top-bar" transform="translate(0.000000, 33.000000)">
                <g id="Group-4" transform="translate(1214.000000, 31.000000)">
                    <path d="M21.6927242,24.5767403 L21.6927242,24.5767403 L7.49315899,24.5767403 L7.49150615,24.5767403 C7.49150615,24.5767403 7.49150615,24.5767403 7.48985331,24.5767403 C7.19895313,24.5767403 6.92458136,24.4639545 6.71962896,24.2581408 C6.51137087,24.0523271 6.39649836,23.7773601 6.39649836,23.4851047 C6.39649836,23.1912028 6.50971803,22.9203521 6.71632328,22.7145384 C6.92458136,22.5070782 7.19895313,22.3909993 7.49233257,22.3909993 L7.49233257,22.3909993 L7.49398542,22.3909993 L21.5497534,22.3909993 C21.7662757,22.3909993 21.951394,22.2461065 22.0034585,22.0386464 L25.1265034,9.59350638 C25.1603866,9.45684612 25.1298091,9.3103068 25.0422084,9.19505115 C24.9521285,9.08391178 24.8165955,9.01805141 24.6744511,9.01805141 L4.7081203,9.01805141 L4.03541363,6.35070646 C4.02219089,6.30707397 3.98086984,6.28649261 3.9593829,6.24615313 C3.92880532,6.19511134 3.9081448,6.15312536 3.8610388,6.1160789 C3.8098007,6.07244641 3.75277765,6.0617441 3.68996966,6.04363249 C3.65112787,6.03210693 3.62550882,6 3.58336135,6 L0.463622168,6 C0.206605244,6 0,6.21075318 0,6.46266909 C0,6.71952453 0.206605244,6.92533818 0.463622168,6.92533818 L3.22221539,6.92533818 L6.92458136,21.5768005 C6.60475644,21.6698283 6.30145995,21.8147211 6.05766576,22.0575812 C5.67668569,22.4371016 5.46677476,22.9434032 5.46677476,23.4834582 C5.46677476,24.0251597 5.67833853,24.5314613 6.06262428,24.9126282 C6.11716807,24.966963 6.18989311,24.9916607 6.25187469,25.0394094 C6.19071954,25.0863349 6.11468881,25.1102093 6.06014502,25.1645441 C5.67751211,25.549004 5.46760118,26.0553056 5.46760118,26.5953606 C5.46760118,27.7051079 6.37666426,28.6098647 7.49150615,28.6098647 L7.49646468,28.6098647 C8.03859684,28.6098647 8.54684574,28.3991115 8.92947865,28.0195911 C9.31211156,27.6367777 9.52202249,27.1304761 9.52036965,26.5953606 C9.52036965,26.1820868 9.36500251,25.8206781 9.15261232,25.5020785 L20.0332709,25.5020785 C19.8167486,25.8272641 19.6671664,26.1919659 19.6671664,26.5953606 C19.6671664,27.7051079 20.5745766,28.6098647 21.6910714,28.6098647 L21.6976827,28.6098647 C22.2381621,28.6098647 22.7480638,28.3991115 23.127391,28.0195911 C23.5100239,27.6367777 23.7199349,27.1304761 23.7199349,26.5953606 C23.7199349,25.4823204 22.8116982,24.5767403 21.6927242,24.5767403 L21.6927242,24.5767403 Z M21.187781,21.4656612 L7.85843707,21.4656612 L5.74858431,13.0577618 L23.300113,13.0577618 L21.187781,21.4656612 L21.187781,21.4656612 Z M24.0802544,9.9450361 L23.5315109,12.1316004 L5.51470718,12.1316004 L4.96596365,9.9450361 L24.0802544,9.9450361 L24.0802544,9.9450361 Z M8.59147247,26.5978304 C8.59312531,26.8859695 8.4782528,27.1609366 8.2733004,27.3683967 C8.06504231,27.5742104 7.7890177,27.6869963 7.4972911,27.6869963 L7.49067973,27.6869963 C6.88987168,27.6869963 6.3981512,27.197983 6.3981512,26.5937141 C6.3981512,26.3039285 6.51137087,26.0289615 6.71797612,25.8231478 C6.9262342,25.6173342 7.20225881,25.5045483 7.4972911,25.5045483 C8.10057841,25.5045483 8.59147247,25.9935615 8.59147247,26.5978304 L8.59147247,26.5978304 Z M22.4703864,27.3683967 C22.2621283,27.5742104 21.9861037,27.6869963 21.6968563,27.6869963 L21.6885921,27.6869963 C21.0861312,27.6869963 20.5944107,27.197983 20.5944107,26.5937141 C20.5944107,26.3039285 20.7076304,26.0289615 20.9142357,25.8231478 C21.1224937,25.6173342 21.4001712,25.5045483 21.6968563,25.5045483 C22.2993172,25.5045483 22.7893848,25.9935615 22.7893848,26.5978304 C22.7902113,26.8859695 22.6786444,27.1609366 22.4703864,27.3683967 L22.4703864,27.3683967 Z" id="cart"></path>
                </g>
            </g>
        </g>
    </g>
</svg>