<?xml version="1.0" encoding="UTF-8"?>
<svg viewBox="0 0 54 42" version="1.1" xmlns="http://www.w3.org/2000/svg" xmlns:xlink="http://www.w3.org/1999/xlink">
    <!-- Generator: Sketch 50.2 (55047) - http://www.bohemiancoding.com/sketch -->
    <title>Shape</title>
    <desc>Created with Sketch.</desc>
    <defs></defs>
    <g id="desktop" stroke="none" stroke-width="1" fill="none" fill-rule="evenodd">
        <g id="catalog-content-1280" transform="translate(-807.000000, -3822.000000)" fill="#C8A05F" fill-rule="nonzero">
            <g id="Group-4-Copy-10" transform="translate(787.000000, 3790.000000)">
                <path d="M25.5334302,32.2297964 C25.2332376,32.2869765 25.0178686,32.5515907 25.0232558,32.8566245 L25.0232558,37.2443896 L20.627907,37.2443896 C20.5887494,37.240709 20.549332,37.240709 20.5101744,37.2443896 C20.2099842,37.3015693 19.9946158,37.5661799 20,37.8712113 L20,72.9733194 C20.0000115,73.3195067 20.2811215,73.6001505 20.627907,73.6001851 L47,73.6001851 L73.372093,73.6001851 C73.7188785,73.6001505 73.9999885,73.3195067 74,72.9733194 L74,37.8712113 C73.9999642,37.5250412 73.7188613,37.2444242 73.372093,37.2443896 L68.9767442,37.2443896 L68.9767442,32.8566245 C68.9767118,32.5104519 68.6956079,32.229831 68.3488372,32.2297964 L55.1627907,32.2297964 C50.6993353,32.2297964 48.081151,35.8057893 47,37.7145075 C45.918849,35.8057893 43.3006647,32.2297964 38.8372093,32.2297964 L25.6511628,32.2297964 C25.6120052,32.2261159 25.5725878,32.2261159 25.5334302,32.2297964 Z M26.2790698,33.4834463 L38.8372093,33.4834463 C43.870899,33.4834463 46.2700406,39.0410367 46.372093,39.2815651 L46.372093,70.0351373 C45.0790216,68.0724836 42.7179425,65.4514328 38.8372093,65.4514328 L26.2790698,65.4514328 L26.2790698,33.4834463 Z M55.1627907,33.4834463 L67.7209302,33.4834463 L67.7209302,65.4514328 L55.1627907,65.4514328 C51.2820575,65.4514328 48.9209784,68.0724836 47.627907,70.0351373 L47.627907,39.2815651 C47.7299594,39.0410367 50.129101,33.4834463 55.1627907,33.4834463 Z M21.255814,38.4980394 L25.0232558,38.4980394 L25.0232558,66.0782985 C25.023302,66.4244613 25.3044019,66.7050669 25.6511628,66.7051015 L38.8372093,66.7051015 C43.3378481,66.7051015 45.7580615,71.2217313 46.2936047,72.3465164 L21.255814,72.3465164 L21.255814,38.4980394 Z M68.9767442,38.4980394 L72.744186,38.4980394 L72.744186,72.3465164 L47.7063953,72.3465164 C48.2419385,71.2217313 50.6621519,66.7051015 55.1627907,66.7051015 L68.3488372,66.7051015 C68.6955981,66.7050669 68.976698,66.4244613 68.9767442,66.0782985 L68.9767442,38.4980394 Z M31.8125,41.6321546 C31.5881701,41.6531492 31.3921005,41.7920212 31.2981488,41.9964588 C31.2041971,42.2008965 31.2266368,42.4398408 31.3570151,42.6232838 C31.4873934,42.8067268 31.7059026,42.9067991 31.9302326,42.8858045 L40.7209302,42.8858045 C40.9473584,42.888974 41.1579587,42.7701999 41.2720992,42.5749568 C41.3862398,42.3797136 41.3862398,42.1382455 41.2720992,41.9430023 C41.1579587,41.7477592 40.9473584,41.6289851 40.7209302,41.6321546 L31.9302326,41.6321546 C31.891075,41.6284741 31.8516576,41.6284741 31.8125,41.6321546 Z M53.1613372,41.6321546 C52.8145532,41.6646095 52.5597845,41.9715584 52.5922954,42.3177443 C52.6248064,42.6639301 52.9322857,42.9182593 53.2790698,42.8858045 L62.0697674,42.8858045 C62.2961956,42.888974 62.5067959,42.7701999 62.6209364,42.5749568 C62.735077,42.3797136 62.735077,42.1382455 62.6209364,41.9430023 C62.5067959,41.7477592 62.2961956,41.6289851 62.0697674,41.6321546 L53.2790698,41.6321546 C53.2399122,41.6284741 53.2004948,41.6284741 53.1613372,41.6321546 Z M31.8125,49.7808693 C31.5877364,49.8013279 31.3910585,49.9401301 31.2967732,50.1448348 C31.202488,50.3495396 31.2249703,50.5889371 31.3557263,50.7725806 C31.4864822,50.9562241 31.7055763,51.0561147 31.9302326,51.0345128 L40.7209302,51.0345128 C40.94741,51.0377627 41.1580931,50.9190071 41.2722832,50.7237318 C41.3864733,50.5284566 41.3864733,50.2869255 41.2722832,50.0916503 C41.1580931,49.896375 40.94741,49.7776193 40.7209302,49.7808693 L31.9302326,49.7808693 C31.891075,49.7771887 31.8516576,49.7771887 31.8125,49.7808693 Z M53.1613372,49.7808693 C52.9365736,49.8013279 52.7398957,49.9401301 52.6456104,50.1448348 C52.5513252,50.3495396 52.5738076,50.5889371 52.7045635,50.7725806 C52.8353194,50.9562241 53.0544135,51.0561147 53.2790698,51.0345128 L62.0697674,51.0345128 C62.2962472,51.0377627 62.5069303,50.9190071 62.6211204,50.7237318 C62.7353105,50.5284566 62.7353105,50.2869255 62.6211204,50.0916503 C62.5069303,49.896375 62.2962472,49.7776193 62.0697674,49.7808693 L53.2790698,49.7808693 C53.2399122,49.7771887 53.2004948,49.7771887 53.1613372,49.7808693 Z M31.8125,57.9295463 C31.5881667,57.9505409 31.392094,58.0894146 31.2981406,58.2938552 C31.2041872,58.4982957 31.2266269,58.7372436 31.3570069,58.9206896 C31.4873868,59.1041355 31.7058992,59.2042096 31.9302326,59.1832149 L40.7209302,59.1832149 C40.947195,59.1861305 41.1575333,59.0672983 41.2715172,58.8721567 C41.3855011,58.6770152 41.3855011,58.435746 41.2715172,58.2406045 C41.1575333,58.0454629 40.947195,57.9266307 40.7209302,57.9295463 L31.9302326,57.9295463 C31.891075,57.9258657 31.8516576,57.9258657 31.8125,57.9295463 Z M53.1613372,57.9295463 C52.9370039,57.9505409 52.7409312,58.0894146 52.6469778,58.2938552 C52.5530244,58.4982957 52.5754641,58.7372436 52.7058441,58.9206896 C52.836224,59.1041355 53.0547364,59.2042096 53.2790698,59.1832149 L62.0697674,59.1832149 C62.2960322,59.1861305 62.5063705,59.0672983 62.6203544,58.8721567 C62.7343383,58.6770152 62.7343383,58.435746 62.6203544,58.2406045 C62.5063705,58.0454629 62.2960322,57.9266307 62.0697674,57.9295463 L53.2790698,57.9295463 C53.2399122,57.9258657 53.2004948,57.9258657 53.1613372,57.9295463 Z" id="Shape"></path>
            </g>
        </g>
    </g>
</svg>