<?xml version="1.0" encoding="UTF-8"?>
<svg width="14px" height="14px" viewBox="0 0 14 14" version="1.1" xmlns="http://www.w3.org/2000/svg" xmlns:xlink="http://www.w3.org/1999/xlink">
    <!-- Generator: Sketch 49.3 (51167) - http://www.bohemiancoding.com/sketch -->
    <title>close</title>
    <desc>Created with Sketch.</desc>
    <defs></defs>
    <g id="Symbols" stroke="none" stroke-width="1" fill="none" fill-rule="evenodd">
        <g id="header" transform="translate(-1216.000000, -9.000000)" fill="#FFFFFF">
            <path d="M1222.87384,15.3902564 L1229.16716,9.09693617 C1229.29695,8.96714016 1229.51433,8.97407827 1229.64396,9.10370995 C1229.7775,9.23724702 1229.78455,9.44670416 1229.65074,9.58051666 L1223.35742,15.8738369 L1229.65074,22.1671571 C1229.78053,22.2969531 1229.7736,22.5143321 1229.64396,22.6439638 C1229.51043,22.7775009 1229.30097,22.7845501 1229.16716,22.6507376 L1222.87384,16.3574174 L1216.58052,22.6507376 C1216.45072,22.7805336 1216.23334,22.7735955 1216.10371,22.6439638 C1215.97017,22.5104267 1215.96312,22.3009696 1216.09694,22.1671571 L1222.39026,15.8738369 L1216.09694,9.58051666 C1215.96714,9.45072065 1215.97408,9.23334164 1216.10371,9.10370995 C1216.23725,8.97017289 1216.4467,8.96312367 1216.58052,9.09693617 L1222.87384,15.3902564 Z" id="close"></path>
        </g>
    </g>
</svg>