<?xml version="1.0" encoding="UTF-8"?>
<svg width="27px" height="19px" viewBox="0 0 27 19" version="1.1" xmlns="http://www.w3.org/2000/svg" xmlns:xlink="http://www.w3.org/1999/xlink">
    <!-- Generator: Sketch 49.3 (51167) - http://www.bohemiancoding.com/sketch -->
    <title>Group 9</title>
    <desc>Created with Sketch.</desc>
    <defs></defs>
    <g id="Symbols" stroke="none" stroke-width="1" fill="none" fill-rule="evenodd">
        <g id="header" transform="translate(-187.000000, -52.000000)" fill="#C59850">
            <g id="top-bar" transform="translate(0.000000, 33.000000)">
                <g id="Group-9" transform="translate(187.000000, 19.000000)">
                    <circle id="Oval-4" cx="5.5" cy="16.5" r="2.5"></circle>
                    <circle id="Oval-4-Copy" cx="21.5" cy="16.5" r="2.5"></circle>
                    <rect id="Rectangle-3" x="0" y="0" width="16" height="10"></rect>
                    <path d="M2.24299633,17 L0,17 L0,11 L17.4091995,11 L17.4091995,3.41060185 C17.4091995,2.8583171 17.8569147,2.41060185 18.4091995,2.41060185 L23.5190228,2.41060185 C23.9151685,2.41060185 24.2739685,2.64445019 24.4339028,3.00687597 L26.4887496,7.66334787 L26.4887496,17 L24.7570037,17 C24.7818267,16.8369542 24.7946991,16.6699804 24.7946991,16.5 C24.7946991,14.6803879 23.3196121,13.2053009 21.5,13.2053009 C19.6803879,13.2053009 18.2053009,14.6803879 18.2053009,16.5 C18.2053009,16.6699804 18.2181733,16.8369542 18.2429963,17 L8.75700367,17 C8.78182673,16.8369542 8.79469907,16.6699804 8.79469907,16.5 C8.79469907,14.6803879 7.31961205,13.2053009 5.5,13.2053009 C3.68038795,13.2053009 2.20530093,14.6803879 2.20530093,16.5 C2.20530093,16.6699804 2.21817327,16.8369542 2.24299633,17 Z M18.8823994,3.97738192 L18.8657018,9.18963536 L24.9305795,9.18963536 L24.9305795,7.74785501 L23.4013214,4.54636035 C23.2352605,4.19871256 22.8842527,3.97738192 22.4989798,3.97738192 L18.8823994,3.97738192 Z" id="Combined-Shape"></path>
                </g>
            </g>
        </g>
    </g>
</svg>