<?xml version="1.0" encoding="UTF-8"?>
<svg viewBox="0 0 91 101" version="1.1" xmlns="http://www.w3.org/2000/svg" xmlns:xlink="http://www.w3.org/1999/xlink">
    <!-- Generator: Sketch 50.2 (55047) - http://www.bohemiancoding.com/sketch -->
    <title>Group</title>
    <desc>Created with Sketch.</desc>
    <defs>
        <filter x="-16.1%" y="-31.6%" width="132.1%" height="167.0%" filterUnits="objectBoundingBox" id="filter-1">
            <feOffset dx="0" dy="2" in="SourceAlpha" result="shadowOffsetOuter1"></feOffset>
            <feGaussianBlur stdDeviation="11.5" in="shadowOffsetOuter1" result="shadowBlurOuter1"></feGaussianBlur>
            <feColorMatrix values="0 0 0 0 0   0 0 0 0 0   0 0 0 0 0  0 0 0 0.17 0" type="matrix" in="shadowBlurOuter1" result="shadowMatrixOuter1"></feColorMatrix>
            <feMerge>
                <feMergeNode in="shadowMatrixOuter1"></feMergeNode>
                <feMergeNode in="SourceGraphic"></feMergeNode>
            </feMerge>
        </filter>
    </defs>
    <g id="desktop" stroke="none" stroke-width="1" fill="none" fill-rule="evenodd">
        <g id="catalog-content-1280" transform="translate(-548.000000, -3471.000000)" fill="#FFFFFF">
            <g id="Group-4-Copy" filter="url(#filter-1)" transform="translate(555.000000, 3478.000000)">
                <g id="Group" transform="translate(16.000000, 14.000000)">
                    <path d="M4.07264286,49.575625 L4.07264286,55 L44.8266786,55 L44.8266786,11.5689063 L33.53325,0 L4.07264286,0 L4.07264286,29.1465625 L0.171642857,29.1465625 L0.171642857,45.6053125 L4.06089286,49.5876563 L4.07264286,49.575625 Z M33.6658571,1.3509375 L43.7809286,11.7115625 L33.6658571,11.7115625 L33.6658571,1.3509375 Z M4.91192857,0.859375 L32.8265714,0.859375 L32.8265714,12.5709375 L43.9873929,12.5709375 L43.9873929,54.140625 L4.91192857,54.140625 L4.91192857,45.8579688 L41.4510714,45.8579688 L41.4510714,29.1465625 L4.91192857,29.1465625 L4.91192857,0.859375 Z M1.01092857,30.0059375 L40.6117857,30.0059375 L40.6117857,44.9985937 L1.01092857,44.9985937 L1.01092857,30.0059375 Z M4.07264286,45.8579688 L4.07264286,48.3879688 L1.60346429,45.8579688 L4.07264286,45.8579688 Z" id="Shape" fill-rule="nonzero"></path>
                    <path d="M14.975,36.988 C14.975,37.7393371 14.8560012,38.4229969 14.618,39.039 C14.3799988,39.6550031 14.0440022,40.1823311 13.61,40.621 C13.1759978,41.0596689 12.654503,41.3991655 12.0455,41.6395 C11.436497,41.8798345 10.763337,42 10.026,42 L6.281,42 L6.281,31.969 L10.026,31.969 C10.763337,31.969 11.436497,32.0891655 12.0455,32.3295 C12.654503,32.5698345 13.1759978,32.9104978 13.61,33.3515 C14.0440022,33.7925022 14.3799988,34.3209969 14.618,34.937 C14.8560012,35.5530031 14.975,36.2366629 14.975,36.988 Z M13.582,36.988 C13.582,36.3719969 13.4980008,35.8213358 13.33,35.336 C13.1619992,34.8506642 12.9240015,34.4400017 12.616,34.104 C12.3079985,33.7679983 11.9346689,33.5113342 11.496,33.334 C11.0573311,33.1566658 10.567336,33.068 10.026,33.068 L7.639,33.068 L7.639,40.901 L10.026,40.901 C10.567336,40.901 11.0573311,40.8123342 11.496,40.635 C11.9346689,40.4576658 12.3079985,40.2021683 12.616,39.8685 C12.9240015,39.5348317 13.1619992,39.1253358 13.33,38.64 C13.4980008,38.1546642 13.582,37.6040031 13.582,36.988 Z M26.496,36.988 C26.496,37.7393371 26.3770012,38.4288302 26.139,39.0565 C25.9009988,39.6841698 25.5650022,40.2243311 25.131,40.677 C24.6969978,41.1296689 24.1755031,41.4808321 23.5665,41.7305 C22.957497,41.9801679 22.284337,42.105 21.547,42.105 C20.809663,42.105 20.1376697,41.9801679 19.531,41.7305 C18.9243303,41.4808321 18.4040022,41.1296689 17.97,40.677 C17.5359978,40.2243311 17.2000012,39.6841698 16.962,39.0565 C16.7239988,38.4288302 16.605,37.7393371 16.605,36.988 C16.605,36.2366629 16.7239988,35.5471698 16.962,34.9195 C17.2000012,34.2918302 17.5359978,33.7505023 17.97,33.2955 C18.4040022,32.8404977 18.9243303,32.4870013 19.531,32.235 C20.1376697,31.9829987 20.809663,31.857 21.547,31.857 C22.284337,31.857 22.957497,31.9829987 23.5665,32.235 C24.1755031,32.4870013 24.6969978,32.8404977 25.131,33.2955 C25.5650022,33.7505023 25.9009988,34.2918302 26.139,34.9195 C26.3770012,35.5471698 26.496,36.2366629 26.496,36.988 Z M25.103,36.988 C25.103,36.3719969 25.0190009,35.8190024 24.851,35.329 C24.6829992,34.8389976 24.4450016,34.424835 24.137,34.0865 C23.8289985,33.748165 23.4556689,33.4880009 23.017,33.306 C22.5783312,33.1239991 22.0883361,33.033 21.547,33.033 C21.0103307,33.033 20.5226689,33.1239991 20.084,33.306 C19.6453312,33.4880009 19.2708349,33.748165 18.9605,34.0865 C18.6501651,34.424835 18.4110009,34.8389976 18.243,35.329 C18.0749992,35.8190024 17.991,36.3719969 17.991,36.988 C17.991,37.6040031 18.0749992,38.1558309 18.243,38.6435 C18.4110009,39.1311691 18.6501651,39.544165 18.9605,39.8825 C19.2708349,40.220835 19.6453312,40.4798324 20.084,40.6595 C20.5226689,40.8391676 21.0103307,40.929 21.547,40.929 C22.0883361,40.929 22.5783312,40.8391676 23.017,40.6595 C23.4556689,40.4798324 23.8289985,40.220835 24.137,39.8825 C24.4450016,39.544165 24.6829992,39.1311691 24.851,38.6435 C25.0190009,38.1558309 25.103,37.6040031 25.103,36.988 Z M35.777,39.928 C35.8516671,39.928 35.9169997,39.958333 35.973,40.019 L36.512,40.6 C36.1013313,41.0760024 35.6031696,41.4469987 35.0175,41.713 C34.4318304,41.9790013 33.7236708,42.112 32.893,42.112 C32.1743298,42.112 31.521003,41.9871679 30.933,41.7375 C30.3449971,41.4878321 29.8433354,41.1378356 29.428,40.6875 C29.0126646,40.2371644 28.6906678,39.6970032 28.462,39.067 C28.2333322,38.4369968 28.119,37.7440038 28.119,36.988 C28.119,36.2319962 28.2379988,35.5390031 28.476,34.909 C28.7140012,34.2789968 29.0488312,33.7376689 29.4805,33.285 C29.9121688,32.8323311 30.428997,32.4811679 31.031,32.2315 C31.633003,31.9818321 32.2979964,31.857 33.026,31.857 C33.7400036,31.857 34.3699973,31.9713322 34.916,32.2 C35.4620028,32.4286678 35.9426646,32.738998 36.358,33.131 L35.91,33.754 C35.8819999,33.8006669 35.8458336,33.8391665 35.8015,33.8695 C35.7571665,33.8998335 35.6976671,33.915 35.623,33.915 C35.5389996,33.915 35.436334,33.8695005 35.315,33.7785 C35.1936661,33.6874995 35.035001,33.5860006 34.839,33.474 C34.642999,33.3619994 34.3980015,33.2605005 34.104,33.1695 C33.8099986,33.0784995 33.4483355,33.033 33.019,33.033 C32.5009974,33.033 32.0273355,33.1228324 31.598,33.3025 C31.1686645,33.4821676 30.7988349,33.7423316 30.4885,34.083 C30.1781651,34.4236684 29.9366676,34.8389976 29.764,35.329 C29.5913325,35.8190024 29.505,36.3719969 29.505,36.988 C29.505,37.6133365 29.5948325,38.1709975 29.7745,38.661 C29.9541676,39.1510025 30.1991651,39.565165 30.5095,39.9035 C30.8198349,40.241835 31.1861646,40.4996658 31.6085,40.677 C32.0308355,40.8543342 32.4869976,40.943 32.977,40.943 C33.2756682,40.943 33.5451655,40.9255002 33.7855,40.8905 C34.0258346,40.8554998 34.247499,40.800667 34.4505,40.726 C34.653501,40.651333 34.8424991,40.5568339 35.0175,40.4425 C35.1925009,40.3281661 35.3663325,40.1916675 35.539,40.033 C35.6183338,39.9629997 35.6976663,39.928 35.777,39.928 Z" id="DOC"></path>
                </g>
            </g>
        </g>
    </g>
</svg>