<?xml version="1.0" encoding="UTF-8"?>
<svg width="20px" height="28px" viewBox="0 0 20 28" version="1.1" xmlns="http://www.w3.org/2000/svg" xmlns:xlink="http://www.w3.org/1999/xlink">
    <!-- Generator: Sketch 50.2 (55047) - http://www.bohemiancoding.com/sketch -->
    <title>«</title>
    <desc>Created with Sketch.</desc>
    <defs></defs>
    <g id="desktop" stroke="none" stroke-width="1" fill="none" fill-rule="evenodd">
        <g id="catalog-content-1280" transform="translate(-349.000000, -1594.000000)" fill="#FFFFFF">
            <g id="Group-3" transform="translate(324.000000, 1570.000000)">
                <path d="M35.339989,49.7090909 C35.8060881,50.5090949 35.6834323,51.0909073 34.9720179,51.4545455 L33.8681044,52 L25,38.2181818 L25,37.7454545 L33.8681044,24 L34.9720179,24.5454545 C35.6834323,24.9090927 35.8060881,25.4909051 35.339989,26.2909091 L28.6061172,36.9454545 C28.2872072,37.454548 28.0050989,37.8060596 27.7597835,38 C27.9805673,38.1696978 28.2626757,38.5090884 28.6061172,39.0181818 L35.339989,49.7090909 Z M44.723253,49.7090909 C45.1893521,50.5090949 45.0666963,51.0909073 44.3552819,51.4545455 L43.2513685,52 L34.383264,38.2181818 L34.383264,37.7454545 L43.2513685,24 L44.3552819,24.5454545 C45.0666963,24.9090927 45.1893521,25.4909051 44.723253,26.2909091 L37.9893812,36.9454545 C37.6704713,37.454548 37.3883629,37.8060596 37.1430476,38 C37.3638314,38.1696978 37.6459397,38.5090884 37.9893812,39.0181818 L44.723253,49.7090909 Z" id="«"></path>
            </g>
        </g>
    </g>
</svg>