<?xml version="1.0" encoding="UTF-8"?>
<svg width="20px" height="28px" viewBox="0 0 20 28" version="1.1" xmlns="http://www.w3.org/2000/svg" xmlns:xlink="http://www.w3.org/1999/xlink">
    <!-- Generator: Sketch 50.2 (55047) - http://www.bohemiancoding.com/sketch -->
    <title>« copy</title>
    <desc>Created with Sketch.</desc>
    <defs></defs>
    <g id="desktop" stroke="none" stroke-width="1" fill="none" fill-rule="evenodd">
        <g id="catalog-content-1280" transform="translate(-1198.000000, -1662.000000)" fill="#FFFFFF">
            <g id="Group-3" transform="translate(324.000000, 1570.000000)">
                <path d="M884.339989,117.709091 C884.806088,118.509095 884.683432,119.090907 883.972018,119.454545 L882.868104,120 L874,106.218182 L874,105.745455 L882.868104,92 L883.972018,92.5454545 C884.683432,92.9090927 884.806088,93.4909051 884.339989,94.2909091 L877.606117,104.945455 C877.287207,105.454548 877.005099,105.80606 876.759784,106 C876.980567,106.169698 877.262676,106.509088 877.606117,107.018182 L884.339989,117.709091 Z M893.723253,117.709091 C894.189352,118.509095 894.066696,119.090907 893.355282,119.454545 L892.251368,120 L883.383264,106.218182 L883.383264,105.745455 L892.251368,92 L893.355282,92.5454545 C894.066696,92.9090927 894.189352,93.4909051 893.723253,94.2909091 L886.989381,104.945455 C886.670471,105.454548 886.388363,105.80606 886.143048,106 C886.363831,106.169698 886.64594,106.509088 886.989381,107.018182 L893.723253,117.709091 Z" id="«-copy" transform="translate(884.000000, 106.000000) rotate(-180.000000) translate(-884.000000, -106.000000) "></path>
            </g>
        </g>
    </g>
</svg>