<?xml version="1.0" encoding="UTF-8"?>
<svg width="12px" height="24px" viewBox="0 0 12 24" version="1.1" xmlns="http://www.w3.org/2000/svg" xmlns:xlink="http://www.w3.org/1999/xlink">
    <!-- Generator: Sketch 49.3 (51167) - http://www.bohemiancoding.com/sketch -->
    <title>Shape 3</title>
    <desc>Created with Sketch.</desc>
    <defs></defs>
    <g id="Symbols" stroke="none" stroke-width="1" fill="none" fill-rule="evenodd" opacity="0.600000024">
        <g id="footer" transform="translate(-980.000000, -159.000000)" fill="#B78C4D">
            <g id="Group-2">
                <g>
                    <g transform="translate(980.000000, 159.000000)">
                        <path d="M3.06330776,23.9997812 L3.06330776,12.738342 L0,12.738342 L0,8.68353253 L3.06330776,8.68353253 L3.06330776,5.22035938 C3.06330776,2.49891967 4.8728405,0 9.04226145,0 C10.7304684,0 11.9790662,0.157317507 11.9790662,0.157317507 L11.8804749,3.94365889 C11.8804749,3.94365889 10.6073418,3.93162487 9.21806006,3.93162487 C7.71443042,3.93162487 7.47357956,4.60509258 7.47357956,5.72316276 C7.47357956,6.60689768 7.47357956,3.83950989 7.47357956,8.68375133 L12,8.68375133 L11.8030425,12.7385608 L7.47357956,12.7385608 L7.47357956,24 L3.06330776,24 L3.06330776,23.9997812 Z" id="Shape-3"></path>
                    </g>
                </g>
            </g>
        </g>
    </g>
</svg>