<?xml version="1.0" encoding="UTF-8"?>
<svg width="20px" height="17px" viewBox="0 0 20 17" version="1.1" xmlns="http://www.w3.org/2000/svg" xmlns:xlink="http://www.w3.org/1999/xlink">
    <!-- Generator: Sketch 49.3 (51167) - http://www.bohemiancoding.com/sketch -->
    <title>Group 7</title>
    <desc>Created with Sketch.</desc>
    <defs></defs>
    <g id="adaptive" stroke="none" stroke-width="1" fill="none" fill-rule="evenodd">
        <g id="catalog-768" transform="translate(-335.000000, -178.000000)" fill="#C59850" fill-rule="nonzero">
            <g id="sort-close-copy" transform="translate(30.000000, 163.000000)">
                <g id="Group-7" transform="translate(305.000000, 15.000000)">
                    <path d="M11.4202899,1.84166667 L0.724637681,1.84166667 C0.31884058,1.84166667 0,2.15333333 0,2.55 C0,2.94666667 0.31884058,3.25833333 0.724637681,3.25833333 L11.4202899,3.25833333 C11.7391304,4.30666667 12.7246377,5.07166667 13.9130435,5.07166667 C15.0724638,5.07166667 16.0869565,4.30666667 16.3768116,3.25833333 L19.0144928,3.25833333 C19.4202899,3.25833333 19.7391304,2.94666667 19.7391304,2.55 C19.7391304,2.15333333 19.4202899,1.84166667 19.0144928,1.84166667 L16.3768116,1.84166667 C16.057971,0.793333333 15.0724638,0.0283333333 13.9130435,0.0283333333 C12.7246377,0.0283333333 11.7391304,0.793333333 11.4202899,1.84166667 Z M15.0144928,2.55 C15.0144928,3.17333333 14.4927536,3.655 13.884058,3.655 C13.2753623,3.655 12.7536232,3.17333333 12.7536232,2.55 C12.7536232,1.92666667 13.2753623,1.445 13.884058,1.445 C14.4637681,1.445 15.0144928,1.92666667 15.0144928,2.55 Z" id="Shape"></path>
                    <path d="M2.72463768,7.50833333 L0.724637681,7.50833333 C0.31884058,7.50833333 0,7.82 0,8.21666667 C0,8.61333333 0.31884058,8.925 0.724637681,8.925 L2.72463768,8.925 C3.04347826,9.97333333 4.02898551,10.7383333 5.2173913,10.7383333 C6.37681159,10.7383333 7.39130435,9.97333333 7.68115942,8.925 L19.0144928,8.925 C19.4202899,8.925 19.7391304,8.61333333 19.7391304,8.21666667 C19.7391304,7.82 19.4202899,7.50833333 19.0144928,7.50833333 L7.68115942,7.50833333 C7.36231884,6.46 6.37681159,5.695 5.2173913,5.695 C4.02898551,5.695 3.04347826,6.46 2.72463768,7.50833333 Z M6.31884058,8.21666667 C6.31884058,8.84 5.79710145,9.32166667 5.1884058,9.32166667 C4.57971014,9.32166667 4.05797101,8.84 4.05797101,8.21666667 C4.05797101,7.59333333 4.57971014,7.11166667 5.1884058,7.11166667 C5.79710145,7.11166667 6.31884058,7.59333333 6.31884058,8.21666667 Z" id="Shape"></path>
                    <path d="M7.94202899,13.7416667 L0.724637681,13.7416667 C0.31884058,13.7416667 0,14.0533333 0,14.45 C0,14.8466667 0.31884058,15.1583333 0.724637681,15.1583333 L7.94202899,15.1583333 C8.26086957,16.2066667 9.24637681,16.9716667 10.4347826,16.9716667 C11.5942029,16.9716667 12.6086957,16.2066667 12.8985507,15.1583333 L19.0144928,15.1583333 C19.4202899,15.1583333 19.7391304,14.8466667 19.7391304,14.45 C19.7391304,14.0533333 19.4202899,13.7416667 19.0144928,13.7416667 L12.8985507,13.7416667 C12.5797101,12.6933333 11.5942029,11.9283333 10.4347826,11.9283333 C9.24637681,11.9283333 8.26086957,12.6933333 7.94202899,13.7416667 Z M11.5362319,14.45 C11.5362319,15.0733333 11.0144928,15.555 10.4057971,15.555 C9.79710145,15.555 9.27536232,15.0733333 9.27536232,14.45 C9.27536232,13.8266667 9.79710145,13.345 10.4057971,13.345 C11.0144928,13.345 11.5362319,13.8266667 11.5362319,14.45 Z" id="Shape"></path>
                </g>
            </g>
        </g>
    </g>
</svg>