<?xml version="1.0" encoding="UTF-8"?>
<svg viewBox="0 0 50 41" version="1.1" xmlns="http://www.w3.org/2000/svg" xmlns:xlink="http://www.w3.org/1999/xlink">
    <!-- Generator: Sketch 50.2 (55047) - http://www.bohemiancoding.com/sketch -->
    <title>Shape</title>
    <desc>Created with Sketch.</desc>
    <defs></defs>
    <g id="desktop" stroke="none" stroke-width="1" fill="none" fill-rule="evenodd">
        <g id="catalog-content-1280" transform="translate(-336.000000, -3648.000000)" fill="#D0B07D" fill-rule="nonzero">
            <g id="Group-4-Copy-4" transform="translate(323.000000, 3634.000000)">
                <path d="M16.8976084,14 C14.749639,14 13,15.7257571 13,17.8825514 L13,24.7381335 L13,24.7606504 L13,51.1182528 C13,53.251726 14.7044102,55 16.7865202,55 L59.2134798,55 C61.2947963,55 63,53.251726 63,51.1182528 L63,24.7381335 C63,22.6046603 61.2947963,20.8789032 59.2134798,20.8789032 L50.2018472,20.8789032 L49.2710869,17.6782912 C48.6513735,15.5673349 46.5256217,14 44.333217,14 L41.9194293,14 L34.6566423,14 L16.8976084,14 Z M16.8976084,15.2713989 L34.6566423,15.2713989 L41.9194293,15.2713989 L44.333217,15.2713989 C45.8828972,15.2713989 47.6103185,16.5878315 48.0530843,18.0642947 L48.8949741,20.8789032 L16.7865202,20.8789032 C16.6976497,20.8789032 16.6095726,20.9014201 16.5207021,20.9014201 C15.6351705,20.9689707 14.8599337,21.3099404 14.2394268,21.8776871 L14.2394268,17.8817472 C14.2402203,16.4294092 15.4137876,15.2713989 16.8976084,15.2713989 Z M16.7865202,22.1728189 L49.8027232,22.1728189 L59.2134798,22.1728189 C60.6306476,22.1728189 61.7383556,23.2849914 61.7383556,24.7381335 L61.7383556,51.1182528 C61.7383556,52.5713949 60.6306476,53.7286011 59.2134798,53.7286011 L16.7865202,53.7286011 C15.3693524,53.7286011 14.2402203,52.5713949 14.2402203,51.1182528 L14.2402203,24.7606504 L14.2402203,24.7381335 C14.2402203,24.5797113 14.2846555,24.4204849 14.3068732,24.2387416 C14.3068732,24.2387416 14.3068732,24.2387416 14.3068732,24.2162247 C14.3513085,24.0569983 14.3949502,23.8977718 14.4393855,23.7393496 C14.4393855,23.7393496 14.4393855,23.7393496 14.4393855,23.7168327 C14.7710631,22.9448258 15.4804405,22.399596 16.3437545,22.2186568 C16.4984844,22.1953358 16.6317903,22.1728189 16.7865202,22.1728189 Z" id="Shape"></path>
            </g>
        </g>
    </g>
</svg>