<?xml version="1.0" encoding="utf-8"?>
<!-- Generator: Adobe Illustrator 21.1.0, SVG Export Plug-In . SVG Version: 6.00 Build 0)  -->
<svg version="1.1" id="Слой_1" xmlns="http://www.w3.org/2000/svg" xmlns:xlink="http://www.w3.org/1999/xlink" x="0px" y="0px"
	 viewBox="0 0 22 20" style="enable-background:new 0 0 22 20;" xml:space="preserve">
<style type="text/css">
	.st0{fill:#646464;}
</style>
<title>heart</title>
<desc>Created with Sketch.</desc>
<g id="Symbols">
	<g id="header" transform="translate(-1163.000000, -71.000000)">
		<g id="top-bar" transform="translate(0.000000, 33.000000)">
			<path class="st0" d="M1174,57.6c-0.4,0-0.8-0.2-1.3-0.7l-7.8-9c-0.7-1-1.4-2.2-1.4-3.8c0-3.1,2.5-5.6,5.5-5.6
				c1.9,0,3.6,0.8,5,2.3c1.5-1.5,3.2-2.3,5-2.3c3.1,0,5.5,2.5,5.5,5.6c0,1.4-0.4,2.6-1.4,3.8l-7.8,9
				C1174.8,57.4,1174.4,57.6,1174,57.6z M1169,39.5c-2.7,0-4.5,2.4-4.5,4.5c0,1.3,0.6,2.2,1.2,3.1l7.7,8.9c0.3,0.2,0.5,0.4,0.5,0.4
				c0.1,0,0.3-0.2,0.6-0.5l7.7-8.9c0.8-1,1.1-1.9,1.1-3.1c0-2.2-1.7-4.5-4.5-4.5c-1.7,0-3.2,0.8-4.6,2.4l-0.4,0.5l-0.4-0.5
				C1172.7,40.8,1171.2,39.5,1169,39.5z"/>
		</g>
	</g>
</g>
</svg>
