<?xml version="1.0" encoding="UTF-8"?>
<svg width="45px" height="45px" viewBox="0 0 45 45" version="1.1" xmlns="http://www.w3.org/2000/svg" xmlns:xlink="http://www.w3.org/1999/xlink">
    <!-- Generator: Sketch 49.3 (51167) - http://www.bohemiancoding.com/sketch -->
    <title>Group</title>
    <desc>Created with Sketch.</desc>
    <defs></defs>
    <g id="desktop" stroke="none" stroke-width="1" fill="none" fill-rule="evenodd">
        <g id="main-1280" transform="translate(-969.000000, -767.000000)" fill="#C59850" fill-rule="nonzero">
            <g id="Group-20" transform="translate(0.000000, 729.000000)">
                <g id="Group-14-Copy-3" transform="translate(969.000000, 36.000000)">
                    <g id="Group" transform="translate(0.000000, 2.000000)">
                        <path d="M44.274,0.001 L35.3925,0.001 L35.387,0 L35.3815,0.0005 L9.439,0.0005 L9.4375,0.0005 L9.436,0.0005 L0.726,0 C0.535,0 0.348,0.0775 0.2125,0.2125 C0.0775,0.3475 0,0.5345 0,0.726 L0,26.8555 C0,27.256 0.3245,27.581 0.7255,27.5815 L8.231,27.5835 L8.231,31.3665 C8.2315,38.8955 14.333,44.998 21.862,45 L21.865,45 C25.96,45 29.6755,43.4905 32.3745,41.032 C35.073,38.576 36.7595,35.152 36.759,31.366 L36.7585,31.359 L36.759,31.351 L36.6805,27.5815 L44.2735,27.5875 C44.4675,27.5875 44.65,27.5125 44.787,27.3755 C44.924,27.2385 45,27.056 45,26.862 L45,0.7265 C45,0.5355 44.9225,0.348 44.7875,0.213 C44.652,0.078 44.465,0.001 44.274,0.001 Z M36.5405,21.2085 C36.481,20.2435 36.0805,19.365 35.4545,18.7045 C34.7875,17.998 33.8645,17.5295 32.834,17.4305 L32.834,17.43 L32.8225,17.429 L32.781,17.4235 L32.781,17.4255 L32.724,17.421 L32.7075,17.421 L32.7035,17.421 L32.7025,17.421 C31.534,17.421 30.4885,17.771 29.689,18.3925 C28.8875,19.0125 28.3415,19.904 28.1565,20.918 L28.156,20.9195 L27.208,26.1365 L10.126,26.132 C9.7715,21.512 6.071,17.8095 1.4515,17.4535 L1.4515,10.123 C6.067,9.7705 9.771,6.0905 10.126,1.4515 L34.6975,1.452 C34.8735,3.7685 35.8755,5.856 37.4205,7.4 C39.004,8.9845 41.16,9.9955 43.548,10.132 L43.548,17.4425 C40.677,17.609 38.1555,19.052 36.5405,21.2085 Z M43.5485,8.6805 C39.6285,8.4155 36.4995,5.3475 36.1495,1.452 L43.5485,1.452 L43.5485,8.6805 Z M8.675,1.4515 C8.502,3.37 7.6545,5.087 6.367,6.373 C5.0785,7.6575 3.36,8.4995 1.452,8.6715 L1.452,1.4515 L8.675,1.4515 Z M1.4515,18.9045 C3.3585,19.078 5.077,19.925 6.366,21.213 C7.655,22.503 8.502,24.223 8.675,26.1315 L1.4515,26.1295 L1.4515,18.9045 Z M31.397,39.959 C28.9695,42.1705 25.6015,43.5485 21.865,43.5485 L21.863,43.5485 C18.4975,43.547 15.457,42.1855 13.2505,39.98 C11.045,37.773 9.683,34.7325 9.6825,31.3665 L9.6825,31.366 L9.6825,27.5835 L24.1745,27.587 C24.0805,27.666 23.9855,27.7435 23.8955,27.8285 C22.828,28.836 22.076,30.279 21.8335,32.0685 C21.779,32.4655 22.057,32.8315 22.454,32.886 C22.851,32.9405 23.217,32.6625 23.2715,32.2655 C23.479,30.762 24.0805,29.654 24.893,28.883 C25.707,28.114 26.7465,27.676 27.8715,27.5855 L27.914,27.5775 L27.966,27.571 L27.9955,27.5625 L28.0545,27.5435 L28.101,27.528 L28.127,27.5145 L28.183,27.4835 L28.223,27.461 L28.2465,27.4425 L28.295,27.4015 L28.3295,27.3725 L28.3505,27.3485 L28.389,27.3005 L28.4175,27.2645 L28.4335,27.2365 L28.462,27.1825 L28.4845,27.139 L28.494,27.111 L28.512,27.0505 L28.5265,27 L28.529,26.992 L29.585,21.18 C29.71,20.509 30.054,19.9495 30.5795,19.539 C31.1005,19.1355 31.809,18.88 32.6825,18.874 C33.363,18.936 33.9655,19.242 34.3995,19.701 C34.838,20.1665 35.1005,20.7765 35.101,21.456 L35.101,21.471 L35.307,31.37 C35.305,34.717 33.8235,37.7455 31.397,39.959 Z M36.65,26.13 L36.6075,24.0945 C37.6665,21.225 40.3425,19.1115 43.548,18.8935 L43.548,26.136 L36.65,26.13 Z" id="Shape"></path>
                        <path d="M23.235,7.0605 L19.787,7.0605 C19.596,7.0605 19.409,7.138 19.274,7.273 C19.139,7.408 19.0615,7.5955 19.0615,7.7865 L19.0615,10.8115 L19.0615,13.3205 L17.6555,13.3205 C17.2545,13.3205 16.9295,13.6455 16.9295,14.0465 C16.9295,14.447 17.2545,14.7725 17.6555,14.7725 L19.0615,14.7725 L19.0615,16.516 L17.6555,16.516 C17.2545,16.516 16.9295,16.841 16.9295,17.242 C16.9295,17.6425 17.2545,17.968 17.6555,17.968 L19.0615,17.968 L19.0615,19.802 C19.0615,20.2025 19.3865,20.528 19.7875,20.528 C20.1885,20.528 20.5135,20.203 20.5135,19.802 L20.5135,17.968 L23.4935,17.968 C23.8945,17.968 24.2195,17.643 24.2195,17.242 C24.2195,16.841 23.8945,16.516 23.4935,16.516 L20.5135,16.516 L20.5135,14.7725 L23.4935,14.7725 C23.56,14.7725 23.623,14.7605 23.684,14.744 C25.602,14.521 27.0905,12.8945 27.091,10.917 C27.09,8.7865 25.3645,7.0605 23.235,7.0605 Z M24.935,12.616 C24.4975,13.052 23.901,13.32 23.235,13.3205 L20.513,13.3205 L20.513,10.8115 L20.513,10.811 L20.513,8.5115 L23.235,8.5115 C23.901,8.512 24.4975,8.7795 24.935,9.216 C25.371,9.6535 25.639,10.2495 25.639,10.916 C25.6385,11.582 25.371,12.1785 24.935,12.616 Z" id="Shape"></path>
                    </g>
                </g>
            </g>
        </g>
    </g>
</svg>