<?xml version="1.0" encoding="utf-8"?>
<!-- Generator: Adobe Illustrator 21.1.0, SVG Export Plug-In . SVG Version: 6.00 Build 0)  -->
<svg version="1.1" id="Слой_1" xmlns="http://www.w3.org/2000/svg" xmlns:xlink="http://www.w3.org/1999/xlink" x="0px" y="0px"
	 viewBox="0 0 74 58" style="enable-background:new 0 0 74 58;" xml:space="preserve">
<style type="text/css">
	.st0{fill:#C59850;}
</style>
<title>Group 5</title>
<desc>Created with Sketch.</desc>
<g id="desktop">
	<g id="main-1280" transform="translate(-662.000000, -756.000000)">
		<g id="Group-20" transform="translate(0.000000, 729.000000)">
			<g id="Group-14-Copy-2" transform="translate(665.000000, 29.000000)">
				<g id="Group-5">
					<path id="SALE_x21__x21__x21_" class="st0" d="M20,28.4c0,0.1,0,0.1-0.1,0.2c0,0-0.1,0.1-0.1,0.1c-0.1,0-0.1,0-0.2,0
						c-0.1,0-0.2,0-0.3-0.1c-0.1,0-0.3,0-0.4,0c-0.2,0-0.4,0-0.6,0.1c-0.2,0.1-0.3,0.1-0.5,0.2s-0.2,0.2-0.3,0.3
						c-0.1,0.1-0.1,0.2-0.1,0.4c0,0.1,0,0.3,0.1,0.4c0.1,0.2,0.2,0.3,0.3,0.4c0.1,0.1,0.3,0.1,0.5,0.2s0.4,0,0.6,0s0.4,0,0.7,0
						c0.2,0,0.4,0,0.7,0c0.2,0,0.4,0.1,0.6,0.2c0.2,0.1,0.4,0.2,0.5,0.4c0.2,0.2,0.3,0.4,0.4,0.7c0.1,0.3,0.1,0.6,0.1,0.9
						c0,0.3-0.1,0.6-0.2,0.8S21.2,34,21,34.2c-0.2,0.2-0.6,0.4-0.9,0.5c-0.2,0.1-0.4,0.1-0.7,0.2c-0.2,0-0.4,0-0.7,0
						c-0.2,0-0.4,0-0.6-0.1c-0.2-0.1-0.4-0.1-0.6-0.2l0.1-0.6c0-0.1,0-0.1,0.1-0.1s0.1-0.1,0.1-0.1c0.1,0,0.2,0,0.3,0
						c0.1,0,0.2,0.1,0.4,0.1c0.2,0,0.3,0.1,0.5,0.1c0.2,0,0.4,0,0.7-0.1c0.4-0.1,0.7-0.3,0.8-0.6c0.2-0.3,0.2-0.6,0.1-0.9
						c-0.1-0.2-0.2-0.3-0.3-0.4c-0.1-0.1-0.3-0.2-0.5-0.2c-0.2,0-0.4,0-0.6,0c-0.2,0-0.4,0-0.6,0c-0.2,0-0.4,0-0.7,0
						c-0.2,0-0.4-0.1-0.6-0.2s-0.4-0.2-0.5-0.4c-0.2-0.2-0.3-0.4-0.4-0.7c-0.1-0.2-0.1-0.5-0.1-0.8c0-0.3,0.1-0.5,0.2-0.8
						c0.1-0.2,0.3-0.5,0.5-0.7s0.5-0.4,0.9-0.5c0.4-0.1,0.8-0.2,1.1-0.2c0.4,0,0.7,0.1,1,0.2L20,28.4z M26.9,29.5l-1.8-2.2
						c-0.1-0.2-0.3-0.4-0.5-0.7c0,0.2,0,0.3,0,0.4c0,0.1,0,0.3,0,0.4l-0.1,2.8L26.9,29.5z M29.8,31.3L29,31.6c-0.1,0-0.2,0-0.3,0
						s-0.1-0.1-0.2-0.1l-1.1-1.3l-2.9,1l0,1.7c0,0.1,0,0.1-0.1,0.2c0,0.1-0.1,0.1-0.2,0.2l-0.9,0.3l0.4-7.7l1.1-0.4L29.8,31.3z
						 M35,28.5l0.3,0.9l-3.9,1.4L29,24l1.1-0.4l2,5.9L35,28.5z M40.9,26.5l0.3,0.9L37,28.8L34.6,22l4.2-1.5l0.3,0.9l-3.1,1.1
						l0.7,2.1l2.5-0.9l0.3,0.9l-2.5,0.9l0.7,2.1L40.9,26.5z M41.8,19.6l0.9,2.7c0.1,0.3,0.2,0.6,0.2,0.8c0.1,0.3,0.1,0.6,0.2,0.9
						l-0.7,0.2c-0.2-0.3-0.3-0.6-0.4-0.8c-0.1-0.3-0.2-0.5-0.3-0.8l-0.9-2.7L41.8,19.6z M42.8,26.2c0-0.1,0-0.2,0-0.3
						c0-0.1,0-0.2,0.1-0.3c0-0.1,0.1-0.2,0.2-0.2c0.1-0.1,0.1-0.1,0.2-0.1c0.1,0,0.2,0,0.3,0c0.1,0,0.2,0,0.3,0.1
						c0.1,0,0.1,0.1,0.2,0.2s0.1,0.1,0.1,0.2c0,0.1,0,0.2,0,0.3c0,0.1,0,0.2-0.1,0.3s-0.1,0.2-0.2,0.2c-0.1,0.1-0.1,0.1-0.2,0.1
						c-0.1,0-0.2,0-0.3,0c-0.1,0-0.2,0-0.3-0.1c-0.1,0-0.2-0.1-0.2-0.2S42.8,26.3,42.8,26.2z M45.1,18.4l0.9,2.7
						c0.1,0.3,0.2,0.6,0.2,0.8c0.1,0.3,0.1,0.6,0.2,0.9l-0.7,0.2c-0.2-0.3-0.3-0.6-0.4-0.8c-0.1-0.3-0.2-0.5-0.3-0.8l-0.9-2.7
						L45.1,18.4z M46.1,25c0-0.1,0-0.2,0-0.3c0-0.1,0-0.2,0.1-0.3c0-0.1,0.1-0.2,0.2-0.2c0.1-0.1,0.1-0.1,0.2-0.1c0.1,0,0.2,0,0.3,0
						c0.1,0,0.2,0,0.3,0.1c0.1,0,0.1,0.1,0.2,0.2s0.1,0.1,0.1,0.2c0,0.1,0,0.2,0,0.3s0,0.2-0.1,0.3c0,0.1-0.1,0.2-0.2,0.2
						c-0.1,0.1-0.1,0.1-0.2,0.1c-0.1,0-0.2,0-0.3,0c-0.1,0-0.2,0-0.3-0.1c-0.1,0-0.2-0.1-0.2-0.2S46.1,25.1,46.1,25z M48.5,17.3
						l0.9,2.7c0.1,0.3,0.2,0.6,0.2,0.8c0.1,0.3,0.1,0.6,0.2,0.9L49.2,22c-0.2-0.3-0.3-0.6-0.4-0.8c-0.1-0.3-0.2-0.5-0.3-0.8
						l-0.9-2.7L48.5,17.3z M49.4,23.9c0-0.1,0-0.2,0-0.3c0-0.1,0-0.2,0.1-0.3s0.1-0.2,0.2-0.2c0.1-0.1,0.1-0.1,0.2-0.1
						c0.1,0,0.2,0,0.3,0c0.1,0,0.2,0,0.3,0.1c0.1,0,0.1,0.1,0.2,0.2c0.1,0.1,0.1,0.1,0.1,0.2c0,0.1,0,0.2,0,0.3c0,0.1,0,0.2-0.1,0.3
						c0,0.1-0.1,0.2-0.2,0.2c-0.1,0.1-0.1,0.1-0.2,0.1c-0.1,0-0.2,0-0.3,0c-0.1,0-0.2,0-0.3-0.1c-0.1,0-0.2-0.1-0.2-0.2
						C49.5,24.1,49.5,24,49.4,23.9z"/>
					<path class="st0" d="M37.1,55.2l-7.9-12.9l-7,7.8l-1.1-9.5l-13.7,6l-0.8-1.1l6.8-7.9l-13-3.3l12-7.4l-14.9-7.3L19,17.5
						l0.6-10.2l9.7,5.1l9.1-13.4l3.6,12.4L54,6l-3,8.5l12.5-2.4l-8,8.1l12,1.4l0.1,1.4l-12,4l6.6,9.8l-14.1-3l1.9,13l-11.4-8.2
						L37.1,55.2z M29.4,40l6.7,10.9l1.5-15l10.6,7.7l-1.7-11.7l12.7,2.7l-5.7-8.5l10.8-3.6l-11.7-1.4l6.8-6.9l-10.5,2l2.7-7.8
						l-10.5,4.6L37.9,2.1l-8.1,12l-8.9-4.7l-0.6,9.3L2.6,20.5l12.8,6.2L4,33.8l12,3.1l-6.3,7.3l12.6-5.5l1,8.3L29.4,40z"/>
				</g>
			</g>
		</g>
	</g>
</g>
</svg>
