<?xml version="1.0" encoding="utf-8"?>
<!-- Generator: Adobe Illustrator 21.1.0, SVG Export Plug-In . SVG Version: 6.00 Build 0)  -->
<svg version="1.1" id="Слой_1" xmlns="http://www.w3.org/2000/svg" xmlns:xlink="http://www.w3.org/1999/xlink" x="0px" y="0px"
	 viewBox="0 0 29 29" style="enable-background:new 0 0 29 29;" xml:space="preserve">
<style type="text/css">
	.st0{opacity:0.9;}
	.st1{fill:#C59850;}
</style>
<title>Group 4</title>
<desc>Created with Sketch.</desc>
<g id="desktop" class="st0">
	<g id="catalog-cart-1280" transform="translate(-1187.000000, -852.000000)">
		<g id="Group-9" transform="translate(40.000000, 829.000000)">
			<g id="Group-4" transform="translate(1148.000000, 24.000000)">
				<path class="st1" d="M13.5,27.5c-7.7,0-14-6.3-14-14s6.3-14,14-14s14,6.3,14,14S21.2,27.5,13.5,27.5z M13.5,0.5
					c-7.2,0-13,5.8-13,13c0,7.2,5.8,13,13,13c7.2,0,13-5.8,13-13C26.5,6.3,20.7,0.5,13.5,0.5z"/>
				<g id="Group-11" transform="translate(13.000000, 7.000000)">
					<rect id="Rectangle" y="4" class="st1" width="1" height="9"/>
					<rect id="Rectangle-Copy" class="st1" width="1" height="2"/>
				</g>
			</g>
		</g>
	</g>
</g>
</svg>
