<?xml version="1.0" encoding="UTF-8"?>
<svg width="41px" height="41px" viewBox="0 0 41 41" version="1.1" xmlns="http://www.w3.org/2000/svg" xmlns:xlink="http://www.w3.org/1999/xlink">
    <!-- Generator: Sketch 49.3 (51167) - http://www.bohemiancoding.com/sketch -->
    <title>Group 4</title>
    <desc>Created with Sketch.</desc>
    <defs></defs>
    <g id="desktop" stroke="none" stroke-width="1" fill="none" fill-rule="evenodd">
        <g id="main-1280" transform="translate(-386.000000, -765.000000)" fill="#C59850" fill-rule="nonzero">
            <g id="Group-20" transform="translate(0.000000, 729.000000)">
                <g id="Group-13" transform="translate(386.000000, 36.000000)">
                    <g id="Group-4">
                        <path d="M37.9728333,4.82296667 C36.16815,1.9598 33.1696833,0.166733333 29.8780667,0.0123 C27.03745,-0.12095 24.35605,0.880816667 22.3094667,2.8331 C21.19495,3.89568333 20.3524,5.16053333 19.8166667,6.54838333 C19.2809333,5.16053333 18.4383833,3.89568333 17.32455,2.83241667 C15.2772833,0.87945 12.5815333,-0.120266667 9.75595,0.0116166667 C4.28518333,0.269233333 0,4.88515 0,10.5206 C0,15.27045 2.2591,19.8200833 6.0434,22.69145 L7.59115,23.8654167 C5.4325,27.4091833 4.2435,31.4142 4.1246,35.5333333 L3.41666667,35.5333333 C3.03878333,35.5333333 2.73333333,35.8394667 2.73333333,36.2166667 L2.73333333,40.3166667 C2.73333333,40.6938667 3.03878333,41 3.41666667,41 L8.88333333,41 L28.7,41 C29.0778833,41 29.3833333,40.6938667 29.3833333,40.3166667 L29.3833333,36.2166667 C29.3833333,35.9399167 29.2172833,35.7041667 28.98085,35.5968833 L29.3765,35.2217333 C36.7633333,28.2237167 41,18.3748333 41,8.2 C41,6.4493 39.6716,5.0184 37.9728333,4.82296667 Z M1.36666667,10.5206 C1.36666667,5.61631667 5.0799,1.60036667 9.8195,1.3776 C9.96505,1.37008333 10.1099167,1.36666667 10.2541,1.36666667 C12.5507833,1.36666667 14.7121667,2.22903333 16.3808667,3.8212 C18.1554833,5.5145 19.1333333,7.79751667 19.1333333,10.25 C19.1333333,10.6272 19.4387833,10.9333333 19.8166667,10.9333333 C20.19455,10.9333333 20.5,10.6272 20.5,10.25 C20.5,7.79751667 21.47785,5.5145 23.2524667,3.8212 C25.0264,2.12858333 27.3517833,1.25733333 29.8138333,1.37691667 C32.4351,1.49991667 34.8472667,2.829 36.43465,4.98355 C36.4032167,4.99448333 36.3752,5.01156667 36.34445,5.02386667 C36.2692833,5.05325 36.1975333,5.08741667 36.1251,5.12226667 C36.0137167,5.17488333 35.9071167,5.23296667 35.8025667,5.2972 C35.73355,5.33956667 35.6652167,5.38125 35.6003,5.42771667 C35.4896,5.50698333 35.3864167,5.59513333 35.2859667,5.6867 C35.2401833,5.72838333 35.1903,5.76528333 35.1465667,5.8097 C35.0133167,5.94568333 34.8923667,6.09328333 34.7830333,6.24976667 C34.7447667,6.30511667 34.7133333,6.36456667 34.6784833,6.42196667 C34.6081,6.53676667 34.5425,6.65361667 34.4857833,6.7773 C34.45435,6.84495 34.4270167,6.91328333 34.3996833,6.98366667 C34.3498,7.11213333 34.3101667,7.2447 34.276,7.38 C34.2596,7.44491667 34.24115,7.50778333 34.22885,7.57406667 C34.19195,7.77838333 34.1666667,7.98611667 34.1666667,8.2 C34.1666667,13.6331833 31.7066667,18.6625167 27.4180667,21.9978667 L25.6489167,23.3741 L27.7604167,20.3250667 C28.8189,18.79645 28.63235,16.7334667 27.3183,15.4187333 C25.81975,13.9201833 23.3809333,13.9208667 21.8823833,15.4187333 L13.2320667,24.0683667 C13.0147667,24.2856667 12.8049833,24.5084333 12.60135,24.7353 C12.5699167,24.77015 12.5405333,24.80705 12.5091,24.8419 C12.33075,25.0434833 12.1565,25.2484833 11.9884,25.4569 C11.9836167,25.46305 11.97815,25.4685167 11.9733667,25.4746667 L8.90315,23.1451833 C8.90315,23.1451833 8.90315,23.1451833 8.90246667,23.1451833 L6.86886667,21.6022167 C3.42418333,18.9877833 1.36666667,14.8454167 1.36666667,10.5206 Z M8.67423333,24.6867833 L11.1602,26.5721 C10.2698167,27.8793167 9.57213333,29.2958667 9.07671667,30.7869 C9.06373333,30.82585 9.05075,30.8648 9.03845,30.9030667 C8.8109,31.6062167 8.62776667,32.3244 8.49246667,33.05625 C8.47811667,33.1334667 8.46581667,33.2113667 8.45215,33.2885833 C8.40158333,33.5858333 8.35853333,33.88445 8.323,34.1851167 C8.3148,34.2555 8.30455,34.3258833 8.29703333,34.39695 C8.26013333,34.7516 8.23348333,35.1076167 8.21845,35.4663667 C8.21776667,35.4889167 8.21435,35.5107833 8.21366667,35.53265 L5.4776,35.53265 C5.59445,31.7107667 6.69188333,27.9879667 8.67423333,24.6867833 Z M4.1,36.9 L4.78333333,36.9 L8.2,36.9 L8.2,39.6333333 L4.1,39.6333333 L4.1,36.9 Z M28.0166667,39.6333333 L9.56666667,39.6333333 L9.56666667,36.9 L28.0166667,36.9 L28.0166667,39.6333333 Z M28.4369167,34.2295333 L27.0613667,35.5333333 L9.60015,35.5333333 C9.61108333,35.2818667 9.6145,35.0290333 9.63705,34.7796167 C9.65071667,34.6251833 9.67326667,34.4728 9.69171667,34.3197333 C9.72998333,33.99925 9.77508333,33.6808167 9.83248333,33.3651167 C9.86528333,33.1867667 9.90081667,33.0091 9.93908333,32.8321167 C10.00195,32.54375 10.0743833,32.2588 10.1529667,31.9759 C10.2035333,31.7941333 10.2506833,31.6123667 10.3080833,31.43265 C10.3989667,31.1442833 10.5055667,30.8620667 10.61285,30.57985 C10.7092,30.3283833 10.8089667,30.0782833 10.9183,29.8316 C11.0529167,29.5268333 11.1923167,29.2234333 11.3460667,28.9268667 C11.4560833,28.7157167 11.58045,28.5100333 11.7007167,28.3029833 C11.8155167,28.1048167 11.9303167,27.90665 12.0546833,27.7132667 C12.1817833,27.5144167 12.3170833,27.3189833 12.45375,27.1249167 C12.6068167,26.9083 12.7646667,26.6944167 12.92935,26.4846333 C13.0414167,26.3418167 13.1521167,26.1983167 13.2682833,26.0589167 C13.5641667,25.7076833 13.8696167,25.3619167 14.1983,25.0339167 L22.8479333,16.3842833 C23.8141667,15.4187333 25.38515,15.4187333 26.3513833,16.3842833 C27.0880167,17.1216 27.2738833,18.2238167 26.8604667,19.1463167 C26.7989667,19.2836667 26.7251667,19.4176 26.6363333,19.5453833 L21.9876167,26.2598167 C21.7956,26.53725 21.83455,26.9137667 22.0798667,27.1454167 C22.1434167,27.20555 22.2165333,27.2492833 22.2930667,27.2807167 C22.3204,27.29165 22.3497833,27.2923333 22.3778,27.29985 C22.4297333,27.3135167 22.4803,27.3278667 22.5336,27.3292333 C22.53975,27.3306 22.5445333,27.3333333 22.55,27.3333333 C22.5951,27.3333333 22.6388333,27.32035 22.68325,27.3114667 C22.7092167,27.3066833 22.7351833,27.3066833 22.7597833,27.2991667 C22.8335833,27.27525 22.90465,27.2397167 22.9688833,27.1898333 L28.2565167,23.07685 C32.8813167,19.4797833 35.5333333,14.0575333 35.5333333,8.2 C35.5333333,7.07523333 36.449,6.15683333 37.5737667,6.15136667 C37.5771833,6.15136667 37.5806,6.15 37.5833333,6.15 C38.7135667,6.15 39.6333333,7.06976667 39.6333333,8.2 C39.6333333,18.00105 35.5524667,27.48845 28.4369167,34.2295333 Z" id="Shape"></path>
                        <path d="M10.25,2.73333333 C6.4821,2.73333333 3.41666667,5.79876667 3.41666667,9.56666667 L4.78333333,9.56666667 C4.78333333,6.55248333 7.23581667,4.1 10.25,4.1 L10.25,2.73333333 Z" id="Shape"></path>
                    </g>
                </g>
            </g>
        </g>
    </g>
</svg>