<?xml version="1.0" encoding="UTF-8"?>
<svg width="86px" height="36px" viewBox="0 0 86 36" version="1.1" xmlns="http://www.w3.org/2000/svg" xmlns:xlink="http://www.w3.org/1999/xlink">
    <!-- Generator: Sketch 49.3 (51167) - http://www.bohemiancoding.com/sketch -->
    <title>Group 2</title>
    <desc>Created with Sketch.</desc>
    <defs></defs>
    <g id="desktop" stroke="none" stroke-width="1" fill="none" fill-rule="evenodd">
        <g id="main-1280" transform="translate(-40.000000, -767.000000)">
            <g id="Group-20" transform="translate(0.000000, 729.000000)">
                <g id="Group-14" transform="translate(40.000000, 36.000000)">
                    <g id="Group-2" transform="translate(0.000000, 2.000000)">
                        <ellipse id="Oval" stroke="#C59850" fill-rule="nonzero" cx="70.6761833" cy="30.3606581" rx="2.69263689" ry="2.67491613"></ellipse>
                        <ellipse id="Oval" stroke="#C59850" fill-rule="nonzero" cx="50.7185297" cy="30.3606581" rx="2.69263689" ry="2.67491613"></ellipse>
                        <ellipse id="Oval" stroke="#C59850" fill-rule="nonzero" cx="39.4088469" cy="30.3606581" rx="2.69275378" ry="2.67503226"></ellipse>
                        <ellipse id="Oval" stroke="#C59850" fill-rule="nonzero" cx="9.21268203" cy="30.3606581" rx="2.69263689" ry="2.67491613"></ellipse>
                        <path d="M84.7707358,12.7126452 L78.5505739,3.52846452 C78.0137766,2.73588387 76.8401171,2.10925161 75.878628,2.10193548 L64.6072879,2.01576774 C63.5020139,2.01576774 62.595584,2.90903226 62.5865828,4.00691613 L62.4233927,24.0464903 L60.9821528,24.0464903 L60.9821528,2.08614194 C60.9821528,0.979548387 60.0759567,0.079316129 58.9620322,0.079316129 L2.29288345,0.079316129 C1.17895895,0.079316129 0.272645948,0.979548387 0.272645948,2.08614194 L0.272645948,27.6048 C0.272645948,28.7112774 1.17895895,29.6116258 2.29288345,29.6116258 L4.01806949,29.6116258 C3.97727196,29.8733806 3.95587956,30.1415226 3.95587956,30.4143097 C3.95587956,33.2938452 6.31395333,35.6366323 9.21268203,35.6366323 C12.1114107,35.6366323 14.4696014,33.2938452 14.4696014,30.4143097 C14.4696014,30.1414065 14.448209,29.8733806 14.4074115,29.6116258 L34.2068697,29.6116258 C34.1712157,29.8564258 34.1519275,30.1064516 34.1519275,30.3608903 C34.1519275,33.2403097 36.5101182,35.5832129 39.4088469,35.5832129 C42.3074587,35.5832129 44.6656493,33.2403097 44.6656493,30.3608903 C44.6656493,30.1064516 44.6462442,29.8564258 44.6107071,29.6116258 L45.5702089,29.6116258 C45.5346718,29.8564258 45.5152666,30.1064516 45.5152666,30.3608903 C45.5152666,33.2403097 47.8734573,35.5832129 50.772186,35.5832129 C53.6709147,35.5832129 56.0291054,33.2403097 56.0291054,30.3608903 C56.0291054,30.1064516 56.0097003,29.8564258 55.9741632,29.6116258 L58.9619153,29.6116258 C59.597141,29.6116258 60.1639811,29.3182839 60.5346658,28.8614323 L62.7549164,28.8614323 C62.8207302,28.9552645 62.8937917,29.0450323 62.9766726,29.1279484 C63.3570599,29.5089677 63.8635805,29.7186968 64.402482,29.7186968 L65.4668416,29.7186968 C65.4362142,29.9464258 65.4189132,30.1784516 65.4189132,30.4144258 C65.4189132,33.2939613 67.776987,35.6367484 70.6757157,35.6367484 C73.5744444,35.6367484 75.9326351,33.2939613 75.9326351,30.4144258 C75.9326351,30.1784516 75.9153341,29.9464258 75.8847067,29.7186968 L83.6275867,29.7186968 C84.7413943,29.7186968 85.6477073,28.8183484 85.6477073,27.711871 L85.6477073,15.5683742 C85.6478242,14.6931097 85.2625272,13.4386839 84.7707358,12.7126452 Z M9.21268203,34.3311097 C7.03860628,34.3311097 5.27005095,32.5739613 5.27005095,30.4143097 C5.27005095,28.2546581 7.03860628,26.4975097 9.21268203,26.4975097 C11.3867578,26.4975097 13.15543,28.2546581 13.15543,30.4143097 C13.15543,32.5739613 11.3867578,34.3311097 9.21268203,34.3311097 Z M39.40873,34.2776903 C37.2346542,34.2776903 35.465982,32.5204258 35.465982,30.3608903 C35.465982,28.2012387 37.2346542,26.4439742 39.40873,26.4439742 C41.5826888,26.4439742 43.351478,28.2012387 43.351478,30.3608903 C43.351478,32.5204258 41.5826888,34.2776903 39.40873,34.2776903 Z M50.772186,34.2776903 C48.5981103,34.2776903 46.8295549,32.5204258 46.8295549,30.3608903 C46.8295549,28.2012387 48.5981103,26.4439742 50.772186,26.4439742 C52.9462618,26.4439742 54.7148171,28.2012387 54.7148171,30.3608903 C54.7147002,32.5204258 52.9461449,34.2776903 50.772186,34.2776903 Z M59.6896076,27.6048 C59.6896076,28.0033548 59.3632274,28.3277032 58.9619153,28.3277032 L55.6139993,28.3277032 C54.8142976,26.4552387 52.9450928,25.1386839 50.7720691,25.1386839 C48.5989286,25.1386839 46.7297237,26.4552387 45.9301389,28.3277032 L44.2505433,28.3277032 C43.4509585,26.4552387 41.5817536,25.1386839 39.40873,25.1386839 C37.2355894,25.1386839 35.3663846,26.4552387 34.5666829,28.3277032 L14.0304143,28.3277032 C13.2180875,26.4841548 11.3648978,25.1921032 9.21279893,25.1921032 C7.06070007,25.1921032 5.20751033,26.4841548 4.39518361,28.3277032 L2.29288345,28.3277032 C1.89157137,28.3277032 1.56519114,28.0033548 1.56519114,27.6048 L1.56519114,2.08614194 C1.56519114,1.6875871 1.89157137,1.36323871 2.29288345,1.36323871 L58.9619153,1.36323871 C59.3632274,1.36323871 59.6896076,1.68747097 59.6896076,2.08614194 L59.6896076,27.6048 Z M62.3945188,27.5775097 L60.9820359,27.5775097 L60.9820359,25.3304129 L62.4127549,25.3304129 L62.3945188,27.5775097 Z M70.6758326,34.3313419 C68.5019906,34.3313419 66.7333184,32.5740774 66.7333184,30.4144258 C66.7333184,28.2548903 68.5019906,26.4976258 70.6758326,26.4976258 C72.8501421,26.4976258 74.6186975,28.2548903 74.6186975,30.4144258 C74.6186975,32.5740774 72.8501421,34.3313419 70.6758326,34.3313419 Z M83.6277036,28.4347742 L75.5392721,28.4347742 C74.7525461,26.5343226 72.8693135,25.1922194 70.6758326,25.1922194 C68.4823517,25.1922194 66.5993529,26.5343226 65.81251,28.4347742 L64.402482,28.4347742 C64.2105349,28.4347742 64.0300438,28.3597548 63.8942079,28.2238839 C63.7582551,28.0876645 63.6842584,27.9076645 63.685895,27.7170968 L63.8788942,4.01748387 C63.8820505,3.62183226 64.2087814,3.29980645 64.6126652,3.29992258 L72.9807176,3.36390968 L74.5856152,14.8126065 C74.7311537,15.8510323 75.6677434,16.746271 76.7179583,16.8509032 L84.3551621,17.6106194 L84.3551621,27.711871 C84.3553959,28.1104258 84.0288988,28.4347742 83.6277036,28.4347742 Z M84.3553959,16.3201935 L76.8470141,15.5731355 C76.3880711,15.5273806 75.9297126,15.0892258 75.8661199,14.6353935 L74.2872906,3.37366452 L75.8685748,3.38574194 C76.4092297,3.38992258 77.1765506,3.79950968 77.4783821,4.24509677 L83.698544,13.4292774 C84.0485377,13.9459355 84.3553959,14.9454581 84.3553959,15.5681419 L84.3553959,16.3201935 Z" id="Shape" fill="#C59850" fill-rule="nonzero"></path>
                        <path d="M14.7135166,10.3577344 L14.7135166,17.7444784 L13.5028262,17.7444784 L13.5028262,12.9732343 C13.5028262,12.7825198 13.5130429,12.5764832 13.5334766,12.3551181 L11.3011065,16.5491131 C11.1955324,16.7500445 11.0337681,16.8505086 10.8158087,16.8505086 L10.6216896,16.8505086 C10.4037301,16.8505086 10.2419658,16.7500445 10.1363917,16.5491131 L7.87847965,12.3397929 C7.8886965,12.4521782 7.89721041,12.5628591 7.90402165,12.6718388 C7.91083288,12.7808185 7.91423844,12.8812827 7.91423844,12.9732343 L7.91423844,17.7444784 L6.70354804,17.7444784 L6.70354804,10.3577344 L7.7405529,10.3577344 C7.80185398,10.3577344 7.85464024,10.3594372 7.89891325,10.3628428 C7.94318625,10.3662484 7.98320164,10.3747623 8.01896061,10.3883848 C8.05471957,10.4020072 8.08707244,10.4241434 8.11602018,10.4547939 C8.14496791,10.4854445 8.17306382,10.5263113 8.20030875,10.5773955 L10.4122452,14.6794394 C10.4701407,14.7884191 10.5237783,14.9008027 10.5731598,15.0165936 C10.6225412,15.1323846 10.6710705,15.2515794 10.7187491,15.3741815 C10.7664277,15.2481737 10.8158084,15.1264248 10.8668927,15.0089311 C10.9179769,14.8914373 10.972466,14.7782023 11.0303614,14.6692226 L13.2116475,10.5773955 C13.2388924,10.5263113 13.2678397,10.4854445 13.2984903,10.4547939 C13.3291408,10.4241434 13.3623451,10.4020072 13.398104,10.3883848 C13.433863,10.3747623 13.4738784,10.3662484 13.5181514,10.3628428 C13.5624244,10.3594372 13.6152107,10.3577344 13.6765118,10.3577344 L14.7135166,10.3577344 Z M15.975291,17.0497362 C15.975291,16.9441621 15.994873,16.8436979 16.0340376,16.7483407 C16.0732022,16.6529834 16.1268398,16.5712499 16.1949521,16.5031376 C16.2630645,16.4350252 16.344798,16.3805362 16.4401553,16.3396688 C16.5355125,16.2988014 16.6376794,16.278368 16.7466592,16.278368 C16.8556389,16.278368 16.9569544,16.2988014 17.0506089,16.3396688 C17.1442633,16.3805362 17.2259968,16.4350252 17.295812,16.5031376 C17.3656271,16.5712499 17.4209675,16.6529834 17.4618349,16.7483407 C17.5027023,16.8436979 17.5231357,16.9441621 17.5231357,17.0497362 C17.5231357,17.1587159 17.5027023,17.2600314 17.4618349,17.3536859 C17.4209675,17.4473403 17.3656271,17.5282225 17.295812,17.5963348 C17.2259968,17.6644471 17.1442633,17.7180848 17.0506089,17.7572494 C16.9569544,17.7964139 16.8556389,17.8159959 16.7466592,17.8159959 C16.6376794,17.8159959 16.5355125,17.7964139 16.4401553,17.7572494 C16.344798,17.7180848 16.2630645,17.6644471 16.1949521,17.5963348 C16.1268398,17.5282225 16.0732022,17.4473403 16.0340376,17.3536859 C15.994873,17.2600314 15.975291,17.1587159 15.975291,17.0497362 Z M27.4947292,10.3577344 L27.4947292,17.7444784 L26.1154617,17.7444784 L26.1154617,14.5159706 L22.6468592,14.5159706 L22.6468592,17.7444784 L21.2675917,17.7444784 L21.2675917,10.3577344 L22.6468592,10.3577344 L22.6468592,13.5351581 L26.1154617,13.5351581 L26.1154617,10.3577344 L27.4947292,10.3577344 Z M36.1841148,14.0511064 C36.1841148,14.5925993 36.0947187,15.0940687 35.9159239,15.5555297 C35.737129,16.0169906 35.4842659,16.4162931 35.1573267,16.7534491 C34.8303876,17.0906051 34.4370449,17.3536849 33.9772867,17.5426966 C33.5175286,17.7317083 33.0066938,17.8262127 32.4447672,17.8262127 C31.8862462,17.8262127 31.3771143,17.7317083 30.9173561,17.5426966 C30.457598,17.3536849 30.0634038,17.0906051 29.7347619,16.7534491 C29.40612,16.4162931 29.151554,16.0169906 28.9710564,15.5555297 C28.7905587,15.0940687 28.7003112,14.5925993 28.7003112,14.0511064 C28.7003112,13.5096134 28.7905587,13.008144 28.9710564,12.5466831 C29.151554,12.0852221 29.40612,11.6859196 29.7347619,11.3487636 C30.0634038,11.0116077 30.457598,10.7485278 30.9173561,10.5595161 C31.3771143,10.3705044 31.8862462,10.276 32.4447672,10.276 C32.819385,10.276 33.1718609,10.319421 33.5022057,10.4062642 C33.8325504,10.4931074 34.1356457,10.6157077 34.4115006,10.7740688 C34.6873555,10.93243 34.9351103,11.1248444 35.1547725,11.3513178 C35.3744348,11.5777913 35.5608894,11.8306545 35.7141421,12.109915 C35.8673949,12.3891755 35.9840355,12.6922708 36.0640674,13.0192099 C36.1440994,13.346149 36.1841148,13.6901111 36.1841148,14.0511064 Z M34.7793053,14.0511064 C34.7793053,13.6458381 34.7248162,13.282294 34.6158365,12.9604633 C34.5068568,12.6386326 34.3519036,12.365336 34.1509723,12.1405654 C33.9500409,11.9157947 33.7056916,11.7438137 33.4179171,11.6246172 C33.1301426,11.5054206 32.8057625,11.4458232 32.4447672,11.4458232 C32.0837719,11.4458232 31.7593919,11.5054206 31.4716173,11.6246172 C31.1838428,11.7438137 30.9386421,11.9157947 30.736008,12.1405654 C30.5333738,12.365336 30.3775692,12.6386326 30.2685895,12.9604633 C30.1596098,13.282294 30.1051208,13.6458381 30.1051208,14.0511064 C30.1051208,14.4563747 30.1596098,14.8199187 30.2685895,15.1417494 C30.3775692,15.4635801 30.5333738,15.7360253 30.736008,15.9590931 C30.9386421,16.182161 31.1838428,16.3532906 31.4716173,16.4724872 C31.7593919,16.5916837 32.0837719,16.6512811 32.4447672,16.6512811 C32.8057625,16.6512811 33.1301426,16.5916837 33.4179171,16.4724872 C33.7056916,16.3532906 33.9500409,16.182161 34.1509723,15.9590931 C34.3519036,15.7360253 34.5068568,15.4635801 34.6158365,15.1417494 C34.7248162,14.8199187 34.7793053,14.4563747 34.7793053,14.0511064 Z M40.367893,16.6359559 C40.6335311,16.6359559 40.8710692,16.5916836 41.0805146,16.5031376 C41.28996,16.4145915 41.4661979,16.2902884 41.6092338,16.1302245 C41.7522697,15.9701605 41.8620991,15.7760433 41.9387255,15.5478671 C42.0153519,15.3196908 42.0536645,15.0642734 42.0536645,14.7816073 L42.0536645,10.3577344 L43.4278236,10.3577344 L43.4278236,14.7816073 C43.4278236,15.2209318 43.3571581,15.6270454 43.2158251,15.9999603 C43.074492,16.3728753 42.8718609,16.6947011 42.6079257,16.9654476 C42.3439905,17.2361941 42.023016,17.4473391 41.6449926,17.598889 C41.2669692,17.7504389 40.8412736,17.8262127 40.367893,17.8262127 C39.8911068,17.8262127 39.4637084,17.7504389 39.085685,17.598889 C38.7076617,17.4473391 38.3866872,17.2361941 38.122752,16.9654476 C37.8588167,16.6947011 37.6561856,16.3728753 37.5148526,15.9999603 C37.3735195,15.6270454 37.302854,15.2209318 37.302854,14.7816073 L37.302854,10.3577344 L38.6770132,10.3577344 L38.6770132,14.7764989 C38.6770132,15.059165 38.7153258,15.3145824 38.7919521,15.5427587 C38.8685785,15.7709349 38.9792594,15.9659035 39.123998,16.1276703 C39.2687367,16.289437 39.4458261,16.4145915 39.6552715,16.5031376 C39.8647168,16.5916836 40.102255,16.6359559 40.367893,16.6359559 Z M48.9142434,11.7012431 C48.873376,11.7727611 48.8299551,11.8246959 48.7839793,11.8570493 C48.7380035,11.8894026 48.6809602,11.9055791 48.6128479,11.9055791 C48.54133,11.9055791 48.4638534,11.8791859 48.3804158,11.8263989 C48.2969782,11.7736118 48.1973654,11.7148659 48.0815745,11.6501592 C47.9657836,11.5854524 47.8304124,11.5267065 47.6754568,11.4739194 C47.5205013,11.4211324 47.3374522,11.3947392 47.126304,11.3947392 C46.9355895,11.3947392 46.7687168,11.4177268 46.625681,11.4637026 C46.4826451,11.5096784 46.3625989,11.5735328 46.2655389,11.6552675 C46.1684788,11.7370023 46.0961106,11.8349123 46.048432,11.9490005 C46.0007533,12.0630886 45.9769144,12.1882431 45.9769144,12.3244677 C45.9769144,12.4981541 46.0254437,12.6428906 46.1225037,12.7586816 C46.2195638,12.8744725 46.3481239,12.9732339 46.5081878,13.0549687 C46.6682518,13.1367035 46.8504495,13.2099231 47.0547864,13.2746298 C47.2591234,13.3393365 47.4685656,13.4082992 47.6831194,13.48152 C47.8976732,13.5547407 48.1071155,13.6398798 48.3114524,13.7369399 C48.5157894,13.8339999 48.6979871,13.9566003 48.858051,14.1047445 C49.018115,14.2528888 49.1466751,14.4342352 49.2437351,14.648789 C49.3407952,14.8633428 49.3893245,15.1238685 49.3893245,15.4303739 C49.3893245,15.7641243 49.3322813,16.0765848 49.2181931,16.367765 C49.104105,16.6589452 48.9372323,16.9126597 48.7175701,17.1289164 C48.4979079,17.345173 48.2297196,17.5154512 47.9129974,17.6397562 C47.5962751,17.7640612 47.2335824,17.8262127 46.8249085,17.8262127 C46.589921,17.8262127 46.3583426,17.8032252 46.1301663,17.7572494 C45.9019901,17.7112735 45.6831825,17.6457164 45.4737372,17.560576 C45.2642918,17.4754356 45.0676204,17.3732687 44.8837171,17.2540721 C44.6998139,17.1348756 44.5363468,17.0020585 44.3933109,16.855617 L44.7968744,16.1966337 C44.8309305,16.148955 44.8752029,16.1089397 44.9296927,16.0765863 C44.9841826,16.044233 45.0420772,16.0280565 45.1033783,16.0280565 C45.1885187,16.0280565 45.2804689,16.0629636 45.3792318,16.1327787 C45.4779946,16.2025938 45.5954866,16.2800704 45.7317113,16.3652108 C45.8679359,16.4503512 46.0271461,16.5278278 46.2093465,16.5976429 C46.391547,16.6674581 46.6103545,16.7023651 46.8657757,16.7023651 C47.2574215,16.7023651 47.5605168,16.6095635 47.7750706,16.4239574 C47.9896244,16.2383513 48.0968997,15.9718659 48.0968997,15.624493 C48.0968997,15.4303729 48.0483704,15.2720142 47.9513103,15.149412 C47.8542503,15.0268098 47.7256902,14.9237915 47.5656263,14.8403539 C47.4055623,14.7569163 47.2233646,14.6862508 47.0190276,14.6283554 C46.8146907,14.5704599 46.6069512,14.507457 46.395803,14.4393446 C46.1846549,14.3712323 45.9769154,14.2894988 45.7725785,14.1941415 C45.5682415,14.0987843 45.3860438,13.9744812 45.2259798,13.8212284 C45.0659159,13.6679757 44.9373558,13.4764127 44.8402958,13.2465336 C44.7432357,13.0166546 44.6947064,12.7331413 44.6947064,12.3959853 C44.6947064,12.1269416 44.7483441,11.8647132 44.855621,11.609292 C44.9628979,11.3538708 45.1187024,11.1274007 45.3230394,10.929875 C45.5273764,10.7323493 45.7793882,10.5739905 46.0790824,10.4547939 C46.3787766,10.3355974 46.7227386,10.276 47.1109788,10.276 C47.5468977,10.276 47.9487543,10.3441113 48.3165608,10.4803359 C48.6843673,10.6165606 48.9976793,10.8072722 49.2565061,11.0524765 L48.9142434,11.7012431 Z M51.9639572,11.4509316 L51.9639572,13.4993993 L54.5488068,13.4993993 L54.5488068,14.5568378 L51.9639572,14.5568378 L51.9639572,16.6461727 L55.243549,16.6461727 L55.243549,17.7444784 L50.5846897,17.7444784 L50.5846897,10.3577344 L55.243549,10.3577344 L55.243549,11.4509316 L51.9639572,11.4509316 Z" id="M.-HOUSE" fill="#C59850"></path>
                    </g>
                </g>
            </g>
        </g>
    </g>
</svg>