<?xml version="1.0" encoding="UTF-8"?>
<svg width="20px" height="20px" viewBox="0 0 20 20" version="1.1" xmlns="http://www.w3.org/2000/svg" xmlns:xlink="http://www.w3.org/1999/xlink">
    <!-- Generator: Sketch 49.3 (51167) - http://www.bohemiancoding.com/sketch -->
    <title>Shape</title>
    <desc>Created with Sketch.</desc>
    <defs></defs>
    <g id="Symbols" stroke="none" stroke-width="1" fill="none" fill-rule="evenodd" opacity="0.600000024">
        <g id="footer" transform="translate(-1012.000000, -161.000000)" fill="#B78C4D">
            <g id="Group-2">
                <g>
                    <g transform="translate(980.000000, 159.000000)">
                        <path d="M48.1348233,2 L35.8651767,2 C33.7339035,2 32,3.73353505 32,5.86485124 L32,9.94755421 L32,18.1351488 C32,20.266465 33.7339035,22 35.8651767,22 L48.1352267,22 C50.2664999,22 52,20.266465 52,18.1351488 L52,9.94715078 L52,5.86444781 C51.9995966,3.73313162 50.2660965,2 48.1348233,2 L48.1348233,2 Z M49.2434242,4.30479072 L49.6855737,4.303177 L49.6855737,4.7433182 L49.6855737,7.69319213 L46.3069227,7.70408472 L46.2952235,4.31447302 L49.2434242,4.30479072 L49.2434242,4.30479072 Z M39.1453929,9.94715078 C39.7860255,9.06081694 40.825238,8.47947554 42,8.47947554 C43.174762,8.47947554 44.2139745,9.06081694 44.8538002,9.94715078 C45.2705341,10.5256682 45.5202517,11.2332829 45.5202517,11.9997983 C45.5202517,13.9406959 43.9396482,15.5197176 41.9995966,15.5197176 C40.0583347,15.5197176 38.4793448,13.9406959 38.4793448,11.9997983 C38.4797483,11.2332829 38.728659,10.5256682 39.1453929,9.94715078 L39.1453929,9.94715078 Z M50.0510731,18.1347453 C50.0510731,19.1921331 49.1913829,20.0510338 48.1348233,20.0510338 L35.8651767,20.0510338 C34.8082137,20.0510338 33.9485235,19.1921331 33.9485235,18.1347453 L33.9485235,9.94715078 L36.933839,9.94715078 C36.6760529,10.5813414 36.5312248,11.2740292 36.5312248,11.9997983 C36.5312248,15.0146243 38.9840245,17.4690872 42,17.4690872 C45.0155721,17.4690872 47.4683718,15.0146243 47.4683718,11.9997983 C47.4683718,11.2740292 47.3227368,10.5813414 47.0649508,9.94715078 L50.0510731,9.94715078 L50.0510731,18.1347453 L50.0510731,18.1347453 Z" id="Shape"></path>
                    </g>
                </g>
            </g>
        </g>
    </g>
</svg>