<?xml version="1.0" encoding="UTF-8"?>
<svg viewBox="0 0 45 55" version="1.1" xmlns="http://www.w3.org/2000/svg" xmlns:xlink="http://www.w3.org/1999/xlink">
    <!-- Generator: Sketch 50.2 (55047) - http://www.bohemiancoding.com/sketch -->
    <title>Group</title>
    <desc>Created with Sketch.</desc>
    <defs></defs>
    <g id="desktop" stroke="none" stroke-width="1" fill="none" fill-rule="evenodd">
        <g id="catalog-content-1280" transform="translate(-803.000000, -3492.000000)" fill="#C8A05F">
            <g id="Group-4-Copy-2" transform="translate(787.000000, 3478.000000)">
                <g id="Group" transform="translate(16.000000, 14.000000)">
                    <path d="M4.07264286,49.575625 L4.07264286,55 L44.8266786,55 L44.8266786,11.5689063 L33.53325,0 L4.07264286,0 L4.07264286,29.1465625 L0.171642857,29.1465625 L0.171642857,45.6053125 L4.06089286,49.5876563 L4.07264286,49.575625 Z M33.6658571,1.3509375 L43.7809286,11.7115625 L33.6658571,11.7115625 L33.6658571,1.3509375 Z M4.91192857,0.859375 L32.8265714,0.859375 L32.8265714,12.5709375 L43.9873929,12.5709375 L43.9873929,54.140625 L4.91192857,54.140625 L4.91192857,45.8579688 L41.4510714,45.8579688 L41.4510714,29.1465625 L4.91192857,29.1465625 L4.91192857,0.859375 Z M1.01092857,30.0059375 L40.6117857,30.0059375 L40.6117857,44.9985937 L1.01092857,44.9985937 L1.01092857,30.0059375 Z M4.07264286,45.8579688 L4.07264286,48.3879688 L1.60346429,45.8579688 L4.07264286,45.8579688 Z" id="Shape" fill-rule="nonzero"></path>
                    <path d="M8.739,38.535 C8.739,39.0950028 8.67016736,39.5966644 8.5325,40.04 C8.39483265,40.4833355 8.19183468,40.8578318 7.9235,41.1635 C7.65516532,41.4691682 7.32500196,41.7036659 6.933,41.867 C6.54099804,42.0303342 6.09066921,42.112 5.582,42.112 C5.11999769,42.112 4.64866907,42.0466673 4.168,41.916 C4.17733338,41.780666 4.18899993,41.6465007 4.203,41.5135 C4.21700007,41.3804993 4.22866662,41.2486673 4.238,41.118 C4.24733338,41.0386663 4.27649975,40.9745002 4.3255,40.9255 C4.37450025,40.8764998 4.45033282,40.852 4.553,40.852 C4.63700042,40.852 4.74783265,40.8729998 4.8855,40.915 C5.02316736,40.9570002 5.2086655,40.978 5.442,40.978 C5.75000154,40.978 6.02533212,40.9313338 6.268,40.838 C6.51066788,40.7446662 6.71366585,40.600001 6.877,40.404 C7.04033415,40.207999 7.16516624,39.9571682 7.2515,39.6515 C7.33783376,39.3458318 7.381,38.9830021 7.381,38.563 L7.381,31.969 L8.739,31.969 L8.739,38.535 Z M14.457,37.17 C14.8443353,37.17 15.1861652,37.1186672 15.4825,37.016 C15.7788348,36.9133328 16.028499,36.7698343 16.2315,36.5855 C16.434501,36.4011657 16.5873328,36.180668 16.69,35.924 C16.7926672,35.667332 16.844,35.3850015 16.844,35.077 C16.844,34.4376635 16.6468353,33.9383351 16.2525,33.579 C15.8581647,33.2196649 15.2596707,33.04 14.457,33.04 L12.847,33.04 L12.847,37.17 L14.457,37.17 Z M14.457,31.969 C15.0916699,31.969 15.6434977,32.0424993 16.1125,32.1895 C16.5815024,32.3365007 16.9699985,32.545332 17.278,32.816 C17.5860016,33.086668 17.8158326,33.4133314 17.9675,33.796 C18.1191674,34.1786686 18.195,34.6056643 18.195,35.077 C18.195,35.543669 18.1133342,35.9706647 17.95,36.358 C17.7866659,36.7453353 17.5475016,37.0789986 17.2325,37.359 C16.9174984,37.6390014 16.5278357,37.8571659 16.0635,38.0135 C15.5991644,38.1698341 15.0636697,38.248 14.457,38.248 L12.847,38.248 L12.847,42 L11.496,42 L11.496,31.969 L14.457,31.969 Z M26.391,40.894 L26.384,42 L20.203,42 L20.203,31.969 L26.384,31.969 L26.384,33.075 L21.561,33.075 L21.561,36.407 L25.467,36.407 L25.467,37.471 L21.561,37.471 L21.561,40.894 L26.391,40.894 Z M36.519,37.177 L36.519,41.027 C36.0149975,41.3910018 35.4771696,41.6628324 34.9055,41.8425 C34.3338305,42.0221676 33.7073368,42.112 33.026,42.112 C32.2186627,42.112 31.4906699,41.9871679 30.842,41.7375 C30.1933301,41.4878321 29.639169,41.1378356 29.1795,40.6875 C28.7198311,40.2371644 28.3663346,39.6970032 28.119,39.067 C27.8716655,38.4369968 27.748,37.7440038 27.748,36.988 C27.748,36.2226628 27.8681655,35.5250032 28.1085,34.895 C28.3488346,34.2649969 28.6906645,33.7248356 29.134,33.2745 C29.5773356,32.8241644 30.1163302,32.4753346 30.751,32.228 C31.3856699,31.9806654 32.0949961,31.857 32.879,31.857 C33.2756687,31.857 33.6443317,31.8861664 33.985,31.9445 C34.3256684,32.0028336 34.6406653,32.0868328 34.93,32.1965 C35.2193348,32.3061672 35.4876655,32.4391659 35.735,32.5955 C35.9823346,32.7518341 36.2133323,32.927999 36.428,33.124 L36.043,33.74 C35.9823331,33.8333338 35.9041672,33.8928332 35.8085,33.9185 C35.7128329,33.9441668 35.6066673,33.9220003 35.49,33.852 C35.3779995,33.7866663 35.2496674,33.7073338 35.105,33.614 C34.9603326,33.5206662 34.7841677,33.4308338 34.5765,33.3445 C34.3688323,33.2581662 34.1238348,33.184667 33.8415,33.124 C33.5591653,33.063333 33.2243353,33.033 32.837,33.033 C32.2723305,33.033 31.7613357,33.1251657 31.304,33.3095 C30.8466644,33.4938343 30.4570016,33.7574983 30.135,34.1005 C29.8129984,34.4435017 29.5656676,34.8588309 29.393,35.3465 C29.2203325,35.8341691 29.134,36.3813303 29.134,36.988 C29.134,37.6180031 29.2238325,38.1814975 29.4035,38.6785 C29.5831676,39.1755025 29.8398317,39.5978316 30.1735,39.9455 C30.5071684,40.2931684 30.9119977,40.5579991 31.388,40.74 C31.8640024,40.9220009 32.3983304,41.013 32.991,41.013 C33.457669,41.013 33.8718316,40.9605005 34.2335,40.8555 C34.5951685,40.7504995 34.948665,40.6046676 35.294,40.418 L35.294,38.213 L33.733,38.213 C33.6443329,38.213 33.573167,38.1873336 33.5195,38.136 C33.4658331,38.0846664 33.439,38.021667 33.439,37.947 L33.439,37.177 L36.519,37.177 Z" id="JPEG"></path>
                </g>
            </g>
        </g>
    </g>
</svg>