<?xml version="1.0" encoding="UTF-8"?>
<svg viewBox="0 0 57 55" version="1.1" xmlns="http://www.w3.org/2000/svg" xmlns:xlink="http://www.w3.org/1999/xlink">
    <!-- Generator: Sketch 50.2 (55047) - http://www.bohemiancoding.com/sketch -->
    <title>Group 7</title>
    <desc>Created with Sketch.</desc>
    <defs></defs>
    <g id="desktop" stroke="none" stroke-width="1" fill="none" fill-rule="evenodd">
        <g id="catalog-content-1280" transform="translate(-1039.000000, -3815.000000)" fill="#C8A05F" fill-rule="nonzero">
            <g id="Group-4-Copy-11" transform="translate(1018.000000, 3790.000000)">
                <g id="Group-7" transform="translate(21.000000, 25.000000)">
                    <path d="M55.9875888,17.8841143 C55.628808,17.5698286 55.1570304,17.4082857 54.6782304,17.4466286 C54.1687872,17.4799429 53.6804112,17.7225714 53.3382288,18.1141714 L51.6566832,20.0332 C51.4013232,19.9162857 51.1197888,19.8584571 50.8254864,19.8785714 C50.3479632,19.9156571 49.8946992,20.1507429 49.5818832,20.5247429 L41.7129648,29.9539429 L41.7129648,0.0044 L4.0473648,0.0044 L4.0473648,48.4044 L26.3153952,48.4044 L25.429296,49.4610286 L24.0394992,54.5367429 L28.8792096,52.4819429 L32.6266176,48.4044 L41.7123264,48.4044 L41.7123264,38.5182286 L52.012272,27.3101714 L52.23252,27.5031429 C52.5766176,27.8042286 52.5830016,28.3617714 52.2465648,28.7464571 L45.902784,35.9888571 L46.8693216,36.8104 L53.2137408,29.5673714 C54.0021648,28.666 53.943432,27.3189714 53.081592,26.5646857 L52.8690048,26.3786286 L54.3960576,24.7173143 L54.3973344,24.7166857 C54.7235568,24.3596571 54.8959248,23.8844571 54.869112,23.4124 C54.8480448,23.0302286 54.6954672,22.682 54.447768,22.4048 L56.1050544,20.5128 C56.7958032,19.7239429 56.7421776,18.5453714 55.9875888,17.8841143 Z M5.3241648,47.1472571 L5.3241648,1.26154286 L40.4361648,1.26154286 L40.4361648,31.4329714 L40.4782992,31.4329714 L27.3649248,47.1472571 L5.3241648,47.1472571 Z M25.9636368,52.3417714 L26.4967008,50.3950857 L27.81372,51.5485143 L25.9636368,52.3417714 Z M40.4361648,47.1472571 L33.78276,47.1472571 L40.4368032,39.9073714 L40.4368032,47.1472571 L40.4361648,47.1472571 Z M28.7828112,50.7144 L27.1989408,49.3265143 L48.2929536,24.0497714 L51.0604176,26.4741714 L28.7828112,50.7144 Z M53.4505872,23.8731429 L51.916512,25.5426286 L49.1037216,23.078 L50.5682112,21.3230286 C50.6614176,21.2111429 50.7910128,21.142 50.9244384,21.1313143 C51.0048768,21.1269143 51.1114896,21.1369714 51.2072496,21.2212 L53.4639936,23.1986857 C53.5693296,23.2904571 53.5910352,23.4155429 53.5948656,23.4815429 C53.6031648,23.6204571 53.5501776,23.7631429 53.4505872,23.8731429 Z M55.1397936,19.6912571 L53.5086816,21.5537143 L52.6615248,20.8113714 L54.3060432,18.9350857 C54.4260624,18.7968 54.5926848,18.7119429 54.7631376,18.7006286 C54.862728,18.6949714 55.0108368,18.7106857 55.1391552,18.8232 C55.3760016,19.0312571 55.37664,19.4203429 55.1397936,19.6912571 Z" id="Shape"></path>
                    <path d="M25.53144,37.6376 L25.406952,37.1988571 L24.6976896,37.5936 C24.0490752,37.9550286 23.4579168,38.5892571 22.885272,39.2027429 C22.1709024,39.9683429 21.4316352,40.7609714 20.7345024,40.8634286 C20.5787328,40.8866857 20.468928,40.8923429 20.3904048,40.8910857 C20.4970176,40.5579429 20.8953792,39.9507429 21.081792,39.6672571 C21.4207824,39.1499429 21.6078336,38.8652 21.5950656,38.5515429 L21.554208,37.5659429 L20.66364,38.0197714 C20.3591232,38.1744 20.0099184,38.3673714 19.6287936,38.5773143 C18.202608,39.3630286 16.143768,40.4969714 14.7194976,40.5057714 C14.873352,39.9381714 15.0348672,39.4233714 15.2200032,38.9538286 L15.400032,39.6163429 C17.3777952,39.0946286 21.8268048,37.1460571 22.170264,34.7568571 C22.2768768,34.0113714 21.8912832,33.6556 21.6518832,33.5097714 C20.2946448,32.6794286 17.063064,34.6902286 17.0324208,34.7116 C14.586072,36.3672571 13.8736176,38.5735429 13.3054416,40.8791429 L13.1637168,41.4517714 L13.7357232,41.6271429 C15.3515136,42.1218286 17.4997296,41.1513143 19.3000176,40.1927429 C19.0670016,40.7100571 18.9801792,41.2135429 19.2572448,41.6365714 C19.5349488,42.0602286 20.022048,42.152 20.414664,42.152 C20.6291664,42.152 20.8155792,42.1243429 20.9241072,42.1086286 C22.0668432,41.9395429 22.9606032,40.9816 23.8256352,40.0544571 C24.267408,39.5811429 24.6893904,39.1292 25.0915824,38.8400571 C26.2490016,39.0487429 30.5122368,38.9638857 31.8477696,37.7318857 L30.9750768,36.8148 C30.1426032,37.5804 26.623104,37.7564 25.53144,37.6376 Z M17.7550896,35.7462286 C18.5543664,35.2062857 20.1810096,34.5532 20.8098336,34.5532 C20.8462224,34.5532 20.8781424,34.5557143 20.9075088,34.5601143 C20.9068704,34.5664 20.906232,34.5733143 20.9049552,34.5802286 C20.7134352,35.9102857 17.6995488,37.5835429 15.5194128,38.2699429 C16.022472,37.2573143 16.699176,36.4602857 17.7550896,35.7462286 Z" id="Shape"></path>
                    <rect id="Rectangle-path" x="0.8553648" y="5.66154286" width="1.2768" height="8.17142857"></rect>
                    <polygon id="Shape" points="2.1321648 18.8615429 0.8553648 18.8615429 0.8553648 51.5472571 15.5385648 51.5472571 15.5385648 50.2901143 2.1321648 50.2901143"></polygon>
                    <rect id="Rectangle-path" x="11.7081648" y="8.8044" width="22.344" height="1.25714286"></rect>
                    <rect id="Rectangle-path" x="11.7081648" y="14.4615429" width="22.344" height="1.25714286"></rect>
                    <rect id="Rectangle-path" x="11.7081648" y="20.1186857" width="22.344" height="1.25714286"></rect>
                    <rect id="Rectangle-path" x="11.7081648" y="25.7758286" width="22.344" height="1.25714286"></rect>
                </g>
            </g>
        </g>
    </g>
</svg>