<?xml version="1.0" encoding="UTF-8"?>
<svg width="21px" height="21px" viewBox="0 0 21 21" version="1.1" xmlns="http://www.w3.org/2000/svg" xmlns:xlink="http://www.w3.org/1999/xlink">
    <!-- Generator: Sketch 49.3 (51167) - http://www.bohemiancoding.com/sketch -->
    <title>Combined Shape</title>
    <desc>Created with Sketch.</desc>
    <defs></defs>
    <g id="Symbols" stroke="none" stroke-width="1" fill="none" fill-rule="evenodd" opacity="0.600000024">
        <g id="footer" transform="translate(-1182.000000, -161.000000)" fill="#B78C4D" fill-rule="nonzero">
            <g id="Group-2">
                <g>
                    <g transform="translate(980.000000, 159.000000)">
                        <path d="M223,12.5 C223,23 223,23 212.5,23 C202,23 202,23 202,12.5 C202,2 202,2 212.5,2 C223,2 223,2 223,12.5 Z M214.144727,16.0704102 C214.973242,15.8817383 215.770996,15.5536133 216.505196,15.0921875 C217.060958,14.7415039 217.229122,14.0073447 216.878418,13.4495117 C216.527734,12.8916992 215.793575,12.7235352 215.235742,13.0742188 C213.570508,14.122168 211.427441,14.1201172 209.762207,13.0742188 C209.204415,12.7235352 208.470215,12.8916992 208.119531,13.4495117 C207.768848,14.0052734 207.937012,14.7415039 208.492773,15.0921875 C209.226953,15.5536133 210.024707,15.8817383 210.853223,16.0704102 L208.583008,18.3426758 C208.117501,18.8081826 208.117501,19.5608193 208.583008,20.0263672 C208.816797,20.2581055 209.120313,20.375 209.423828,20.375 C209.729395,20.375 210.03291,20.2581055 210.26672,20.0263672 L212.5,17.7930664 L214.733301,20.0263672 C215.198828,20.4918945 215.951465,20.4918945 216.416992,20.0263672 C216.88252,19.5608398 216.88252,18.8061523 216.416992,18.3426758 L214.144727,16.0704102 Z M212.5,7.00800781 C213.429024,7.00800781 214.183712,7.76269531 214.183712,8.69169922 C214.183712,9.61865234 213.429024,10.3733398 212.5,10.3733398 C211.573067,10.3733398 210.816309,9.61865234 210.816309,8.69169922 C210.816309,7.76269531 211.573067,7.00800781 212.5,7.00800781 Z M212.5,12.7542969 C214.741524,12.7542969 216.564648,10.9311523 216.564648,8.69167871 C216.564648,6.44814453 214.741524,4.625 212.5,4.625 C210.258496,4.625 208.435372,6.44814453 208.435372,8.68964844 C208.435372,10.9311523 210.258496,12.7542969 212.5,12.7542969 Z" id="Combined-Shape"></path>
                    </g>
                </g>
            </g>
        </g>
    </g>
</svg>