<?xml version="1.0" encoding="UTF-8"?>
<svg width="17px" height="19px" viewBox="0 0 17 19" version="1.1" xmlns="http://www.w3.org/2000/svg" xmlns:xlink="http://www.w3.org/1999/xlink">
    <!-- Generator: Sketch 49.3 (51167) - http://www.bohemiancoding.com/sketch -->
    <title>Shape</title>
    <desc>Created with Sketch.</desc>
    <defs></defs>
    <g id="desktop" stroke="none" stroke-width="1" fill="none" fill-rule="evenodd">
        <g id="catalog-cart-1280" transform="translate(-403.000000, -1137.000000)" fill="#C59850" fill-rule="nonzero">
            <g id="Group-10" transform="translate(40.000000, 925.000000)">
                <g id="Group-13">
                    <g id="button-copy" transform="translate(320.000000, 198.000000)">
                        <g id="Group-6" transform="translate(43.100000, 14.000000)">
                            <path d="M13.379707,12.3662577 C13.139707,12.4338351 12.7875018,12.4414742 12.4096557,12.3891753 C12.0043223,12.3329588 11.5907839,12.2146495 11.1844249,12.0403196 C11.9091429,11.9396392 12.4713993,11.9705876 12.9522198,12.1333608 C13.0662711,12.1719485 13.253348,12.2749794 13.379707,12.3662577 Z M9.33621978,11.7314227 C9.30668132,11.7390619 9.27775824,11.7463093 9.24883516,11.7539485 C9.05375824,11.8046804 8.86401465,11.8540412 8.68124542,11.8981134 L8.43468132,11.9578557 C7.93868132,12.077732 7.4316044,12.2001546 6.93088645,12.3458866 C7.12124542,11.9075155 7.29806593,11.4644433 7.47119414,11.0311649 C7.59939927,10.7105155 7.73027106,10.3828144 7.86565568,10.0594227 C7.93437363,10.1677423 8.00596337,10.2760619 8.08063004,10.3847732 C8.42032234,10.8789691 8.84739927,11.3359485 9.33621978,11.7314227 Z M8.07468132,6.78887629 C8.10688645,7.32969072 7.98463004,7.84993814 7.80534799,8.34903093 C7.58463004,7.73182474 7.48165568,7.05037113 7.75775824,6.50015464 C7.82852747,6.35912371 7.88657875,6.28371134 7.92411722,6.24434021 C7.9821685,6.33013402 8.05868132,6.52170103 8.07468132,6.78887629 Z M5.48555311,13.6398454 C5.36145055,13.8517835 5.23488645,14.0502062 5.10504029,14.2374639 C4.79180952,14.6881753 4.2796044,15.1708144 4.01642491,15.1708144 C3.99057875,15.1708144 3.95919414,15.1668969 3.91345055,15.1206701 C3.88391209,15.0910928 3.87919414,15.0699381 3.88063004,15.0411443 C3.88945055,14.875433 4.11939927,14.5802474 4.45252747,14.3066082 C4.75488645,14.0582371 5.09663004,13.8376804 5.48555311,13.6398454 Z M14.2178608,12.389567 C14.1776557,11.8375876 13.2045275,11.4834433 13.1948864,11.4801134 C12.8186813,11.3527938 12.4100659,11.2908969 11.9456557,11.2908969 C11.4484249,11.2908969 10.9124249,11.3596495 10.2240147,11.5132165 C9.61150183,11.0985464 9.08227106,10.5794742 8.68698901,10.0047732 C8.51242491,9.75091753 8.35550183,9.49745361 8.21868132,9.24986598 C8.55263004,8.48731959 8.85334799,7.66738144 8.79878388,6.7491134 C8.75468132,6.01281443 8.40698901,5.5182268 7.9341685,5.5182268 C7.60986081,5.5182268 7.33047619,5.74759794 7.10339927,6.20065979 C6.69827106,7.00806186 6.8047326,8.0411134 7.41970696,9.27376289 C7.1981685,9.77050515 6.99242491,10.2854639 6.79324542,10.7841649 C6.54545055,11.4041134 6.29006593,12.0436495 6.00227106,12.6520412 C5.19509158,12.9570206 4.53211722,13.3268351 3.97950183,13.7808763 C3.61745055,14.0778247 3.18114286,14.5316701 3.15611722,15.0054948 C3.14401465,15.2285979 3.22401465,15.4332887 3.38688645,15.5972371 C3.55980952,15.7713711 3.77724542,15.8630412 4.01621978,15.8632371 C4.80555311,15.8632371 5.56514286,14.8276392 5.70914286,14.6200103 C5.99919414,14.2025979 6.27057875,13.737 6.53663004,13.1999072 C7.20657875,12.9687732 7.92063004,12.7962062 8.61252747,12.6293196 L8.86032234,12.5691856 C9.04657875,12.5239381 9.24021978,12.4739897 9.43878388,12.4220825 C9.64904029,12.3678247 9.86524542,12.3116082 10.0849377,12.258134 C10.7955018,12.6896495 11.5596044,12.9711237 12.3048352,13.0743505 C12.9325275,13.1615155 13.4900659,13.1109794 13.8672967,12.923134 C14.206989,12.7542887 14.2258608,12.4937732 14.2178608,12.389567 Z M15.7464762,17.1360412 C15.7464762,18.1469588 14.813348,18.2092474 14.6250403,18.2114021 L2.58668132,18.2114021 C1.53191209,18.2114021 1.46832234,17.3142887 1.46627106,17.1360412 L1.46627106,1.86415464 C1.46627106,0.852257732 2.40104029,0.790948454 2.58668132,0.788793814 L10.718989,0.788793814 L10.7232967,0.792907216 L10.7232967,3.82330928 C10.7232967,4.43150515 11.1083223,5.58286598 12.5665788,5.58286598 L15.7193993,5.58286598 L15.7464762,5.60872165 L15.7464762,17.1360412 Z M14.998989,4.89201031 L12.5667839,4.89201031 C11.5122198,4.89201031 11.4484249,3.99979381 11.446989,3.82330928 L11.446989,1.48630928 L14.998989,4.89201031 Z M16.4697582,17.1360412 L16.4697582,5.32352577 L11.446989,0.507319588 L11.446989,0.484989691 L11.422989,0.484989691 L11.019707,0.0979381443 L2.58668132,0.0979381443 C1.94893773,0.0979381443 0.742989011,0.467164948 0.742989011,1.86415464 L0.742989011,17.1362371 C0.742989011,17.7469794 1.12842491,18.9022577 2.58668132,18.9022577 L14.6262711,18.9022577 C15.2638095,18.9020619 16.4697582,18.5330309 16.4697582,17.1360412 Z" id="Shape"></path>
                        </g>
                    </g>
                </g>
            </g>
        </g>
    </g>
</svg>