<?xml version="1.0" encoding="UTF-8"?>
<svg viewBox="0 0 45 55" version="1.1" xmlns="http://www.w3.org/2000/svg" xmlns:xlink="http://www.w3.org/1999/xlink">
    <!-- Generator: Sketch 50.2 (55047) - http://www.bohemiancoding.com/sketch -->
    <title>Group</title>
    <desc>Created with Sketch.</desc>
    <defs></defs>
    <g id="desktop" stroke="none" stroke-width="1" fill="none" fill-rule="evenodd">
        <g id="catalog-content-1280" transform="translate(-339.000000, -3492.000000)" fill="#C8A05F">
            <g id="Group-4" transform="translate(323.000000, 3478.000000)">
                <g id="Group" transform="translate(16.000000, 14.000000)">
                    <path d="M4.07264286,49.575625 L4.07264286,55 L44.8266786,55 L44.8266786,11.5689063 L33.53325,0 L4.07264286,0 L4.07264286,29.1465625 L0.171642857,29.1465625 L0.171642857,45.6053125 L4.06089286,49.5876563 L4.07264286,49.575625 Z M33.6658571,1.3509375 L43.7809286,11.7115625 L33.6658571,11.7115625 L33.6658571,1.3509375 Z M4.91192857,0.859375 L32.8265714,0.859375 L32.8265714,12.5709375 L43.9873929,12.5709375 L43.9873929,54.140625 L4.91192857,54.140625 L4.91192857,45.8579688 L41.4510714,45.8579688 L41.4510714,29.1465625 L4.91192857,29.1465625 L4.91192857,0.859375 Z M1.01092857,30.0059375 L40.6117857,30.0059375 L40.6117857,44.9985937 L1.01092857,44.9985937 L1.01092857,30.0059375 Z M4.07264286,45.8579688 L4.07264286,48.3879688 L1.60346429,45.8579688 L4.07264286,45.8579688 Z" id="Shape" fill-rule="nonzero"></path>
                    <path d="M11.242,37.17 C11.6293353,37.17 11.9711652,37.1186672 12.2675,37.016 C12.5638348,36.9133328 12.813499,36.7698343 13.0165,36.5855 C13.219501,36.4011657 13.3723328,36.180668 13.475,35.924 C13.5776672,35.667332 13.629,35.3850015 13.629,35.077 C13.629,34.4376635 13.4318353,33.9383351 13.0375,33.579 C12.6431647,33.2196649 12.0446707,33.04 11.242,33.04 L9.632,33.04 L9.632,37.17 L11.242,37.17 Z M11.242,31.969 C11.8766698,31.969 12.4284977,32.0424993 12.8975,32.1895 C13.3665023,32.3365007 13.7549985,32.545332 14.063,32.816 C14.3710015,33.086668 14.6008326,33.4133314 14.7525,33.796 C14.9041674,34.1786686 14.98,34.6056643 14.98,35.077 C14.98,35.543669 14.8983342,35.9706647 14.735,36.358 C14.5716659,36.7453353 14.3325016,37.0789986 14.0175,37.359 C13.7024984,37.6390014 13.3128357,37.8571659 12.8485,38.0135 C12.3841643,38.1698341 11.8486697,38.248 11.242,38.248 L9.632,38.248 L9.632,42 L8.281,42 L8.281,31.969 L11.242,31.969 Z M25.682,36.988 C25.682,37.7393371 25.5630012,38.4229969 25.325,39.039 C25.0869988,39.6550031 24.7510022,40.1823311 24.317,40.621 C23.8829978,41.0596689 23.3615031,41.3991655 22.7525,41.6395 C22.143497,41.8798345 21.470337,42 20.733,42 L16.988,42 L16.988,31.969 L20.733,31.969 C21.470337,31.969 22.143497,32.0891655 22.7525,32.3295 C23.3615031,32.5698345 23.8829978,32.9104978 24.317,33.3515 C24.7510022,33.7925022 25.0869988,34.3209969 25.325,34.937 C25.5630012,35.5530031 25.682,36.2366629 25.682,36.988 Z M24.289,36.988 C24.289,36.3719969 24.2050009,35.8213358 24.037,35.336 C23.8689992,34.8506642 23.6310016,34.4400017 23.323,34.104 C23.0149985,33.7679983 22.6416689,33.5113342 22.203,33.334 C21.7643312,33.1566658 21.2743361,33.068 20.733,33.068 L18.346,33.068 L18.346,40.901 L20.733,40.901 C21.2743361,40.901 21.7643312,40.8123342 22.203,40.635 C22.6416689,40.4576658 23.0149985,40.2021683 23.323,39.8685 C23.6310016,39.5348317 23.8689992,39.1253358 24.037,38.64 C24.2050009,38.1546642 24.289,37.6040031 24.289,36.988 Z M29.293,33.075 L29.293,36.582 L33.416,36.582 L33.416,37.688 L29.293,37.688 L29.293,42 L27.935,42 L27.935,31.969 L34.116,31.969 L34.116,33.075 L29.293,33.075 Z" id="PDF"></path>
                </g>
            </g>
        </g>
    </g>
</svg>