<?xml version="1.0" encoding="UTF-8"?>
<svg width="24px" height="24px" viewBox="0 0 24 24" version="1.1" xmlns="http://www.w3.org/2000/svg" xmlns:xlink="http://www.w3.org/1999/xlink">
    <!-- Generator: Sketch 50.2 (55047) - http://www.bohemiancoding.com/sketch -->
    <title>Group 10</title>
    <desc>Created with Sketch.</desc>
    <defs></defs>
    <g id="desktop" stroke="none" stroke-width="1" fill="none" fill-rule="evenodd" opacity="0.5">
        <g id="card-product-1280" transform="translate(-1128.000000, -277.000000)" fill="#3E3E3E" fill-rule="nonzero">
            <g id="Group-3" transform="translate(40.000000, 214.000000)">
                <g id="Group-10" transform="translate(1088.000000, 63.000000)">
                    <path d="M18.6366444,23.4590222 L0.822122222,23.4590222 C0.368255556,23.4590222 0,23.0910222 0,22.6366444 L0,4.82212222 C0,4.368 0.368255556,4 0.822122222,4 L9.72925556,4 C10.1833778,4 10.5513778,4.36825556 10.5513778,4.82212222 C10.5513778,5.27598889 10.1831222,5.64424444 9.72925556,5.64424444 L1.6445,5.64424444 L1.6445,21.8145222 L17.8145222,21.8145222 L17.8145222,13.7292556 C17.8145222,13.2751333 18.1827778,12.9071333 18.6366444,12.9071333 C19.0907667,12.9071333 19.4587667,13.2753889 19.4587667,13.7292556 L19.4587667,22.6366444 C19.4590222,23.0910222 19.0907667,23.4590222 18.6366444,23.4590222 Z" id="Shape"></path>
                    <path d="M23.1499964,2.80044167 L20.5875409,0.240541667 C20.2668187,-0.0801805556 19.746252,-0.0801805556 19.4255298,0.240541667 L17.1096853,2.55919722 L8.15834088,11.5102861 C8.08422977,11.5843972 8.02417422,11.6720528 7.98302977,11.7678861 L6.06738533,16.2434306 C5.93296311,16.5531639 6.00426311,16.9122194 6.24014088,17.1478417 C6.39909644,17.3067972 6.60737422,17.3890861 6.82127422,17.3890861 C6.93090755,17.3890861 7.04054088,17.3671083 7.14736311,17.3234083 L11.6229075,15.4077639 C11.7187409,15.3666194 11.806652,15.3063083 11.8805075,15.2324528 L20.8315964,6.28136389 L23.150252,3.96551944 C23.4707187,3.64173056 23.4707187,3.12116389 23.1499964,2.80044167 Z M8.38578533,15.0047528 L9.13405199,13.2616083 L10.1289298,14.2564861 L8.38578533,15.0047528 Z M11.1046409,13.6837861 L9.70700755,12.2861528 L17.7700409,4.22286389 L19.1679298,5.62049722 L11.1046409,13.6837861 Z M19.9432853,4.84488611 L18.545652,3.44725278 L20.0064075,1.98649722 L21.4040409,3.381575 L19.9432853,4.84488611 Z" id="Shape"></path>
                </g>
            </g>
        </g>
    </g>
</svg>