<?xml version="1.0" encoding="utf-8"?>
<!-- Generator: Adobe Illustrator 21.1.0, SVG Export Plug-In . SVG Version: 6.00 Build 0)  -->
<svg version="1.1" id="Слой_1" xmlns="http://www.w3.org/2000/svg" xmlns:xlink="http://www.w3.org/1999/xlink" x="0px" y="0px"
	 viewBox="0 0 22 22" style="enable-background:new 0 0 22 22;" xml:space="preserve">
<style type="text/css">
	.st0{fill:#646464;}
</style>
<title>phone</title>
<desc>Created with Sketch.</desc>
<g id="Symbols">
	<g id="header" transform="translate(-1112.000000, -70.000000)">
		<g id="top-bar" transform="translate(0.000000, 33.000000)">
			<path class="st0" d="M1130,58.5C1130,58.5,1129.9,58.5,1130,58.5c-3.7-0.1-7.9-3.6-10.9-6.5c-2.9-2.9-6.5-7.1-6.6-10.7
				c0-1.3,3.1-3.5,3.1-3.5c0.8-0.6,1.7-0.4,2.1,0.1c0.3,0.4,2.6,3.9,2.9,4.3c0.3,0.4,0.2,1-0.1,1.7c-0.2,0.3-0.8,1.4-1.1,1.9
				c0.3,0.4,1.1,1.5,2.8,3.1c1.7,1.6,2.7,2.5,3.2,2.8c0.5-0.3,1.6-0.9,1.9-1.1c0.6-0.3,1.3-0.4,1.7-0.1c0.4,0.3,4,2.6,4.3,2.8
				c0.2,0.2,0.4,0.5,0.5,0.8c0.1,0.4,0,0.9-0.3,1.3C1133.5,55.5,1131.2,58.5,1130,58.5z M1116.7,38.5c-0.1,0-0.3,0-0.5,0.2
				c-1,0.7-2.6,2.2-2.7,2.7c0.1,3.2,3.5,7.2,6.3,10c2.8,2.8,6.9,6.1,10.2,6.2c0.5,0,2-1.7,2.7-2.6c0.3-0.4,0.1-0.6,0.1-0.7
				c-0.3-0.2-3.9-2.5-4.3-2.8c-0.1-0.1-0.4,0-0.7,0.1c-0.4,0.2-2.1,1.2-2.2,1.2l-0.2,0.1l-0.2-0.1c-0.1,0-1.3-0.7-3.6-3.1
				c-2.4-2.3-3.1-3.5-3.1-3.6l-0.2-0.3l0.1-0.3c0,0,1-1.7,1.2-2.1c0.2-0.3,0.2-0.6,0.1-0.7c-0.3-0.5-2.6-3.9-2.8-4.2
				C1116.9,38.5,1116.8,38.5,1116.7,38.5z"/>
		</g>
	</g>
</g>
</svg>
