<?xml version="1.0" encoding="UTF-8"?>
<svg width="17px" height="22px" viewBox="0 0 17 22" version="1.1" xmlns="http://www.w3.org/2000/svg" xmlns:xlink="http://www.w3.org/1999/xlink">
    <!-- Generator: Sketch 49.3 (51167) - http://www.bohemiancoding.com/sketch -->
    <title>Shape 4</title>
    <desc>Created with Sketch.</desc>
    <defs></defs>
    <g id="Symbols" stroke="none" stroke-width="1" fill="none" fill-rule="evenodd" opacity="0.600000024">
        <g id="footer" transform="translate(-1223.000000, -160.000000)" fill="#B78C4D">
            <g id="Group-2">
                <g>
                    <g transform="translate(980.000000, 159.000000)">
                        <path d="M252.014487,1 C246.02164,1 243,5.30453581 243,8.8941285 C243,11.0675893 243.821358,13.0011918 245.583013,13.7217489 C245.871882,13.840064 246.130631,13.7258191 246.214406,13.4053999 C246.272685,13.1836469 246.410535,12.6242116 246.472035,12.3912305 C246.556511,12.0743201 246.523729,11.9631629 246.290616,11.686954 C245.782643,11.0866769 245.458051,10.3095587 245.458051,9.20879329 C245.458051,6.01526842 247.842974,3.15633806 251.66832,3.15633806 C255.0556,3.15633806 256.916579,5.22986959 256.916579,7.99911628 C256.916579,11.6427437 255.307065,14.7179535 252.917659,14.7179535 C251.597994,14.7179535 250.610207,13.6246267 250.926954,12.2837224 C251.306043,10.6828898 252.040544,8.95518077 252.040544,7.79967887 C252.040544,6.76529905 251.486341,5.90256734 250.339269,5.90256734 C248.990325,5.90256734 247.906715,7.30059411 247.906715,9.17342508 C247.906715,10.3662601 248.309059,11.1729921 248.309059,11.1729921 C248.309059,11.1729921 246.928594,17.0327468 246.686656,18.0588459 C246.20474,20.1026233 246.614228,22.6080119 246.648831,22.861063 C246.669144,23.0109568 246.86149,23.0466058 246.948628,22.9333433 C247.073029,22.7706776 248.679602,20.7836017 249.22582,18.7980696 C249.380341,18.2358273 250.113021,15.3245464 250.113021,15.3245464 C250.551228,16.1620151 251.832088,16.8996949 253.1942,16.8996949 C257.249017,16.8996949 260,13.1962784 260,8.23911485 C260,4.49092661 256.830983,1 252.014487,1 L252.014487,1 Z" id="Shape-4"></path>
                    </g>
                </g>
            </g>
        </g>
    </g>
</svg>