<?xml version="1.0" encoding="UTF-8"?>
<svg viewBox="0 0 50 56" version="1.1" xmlns="http://www.w3.org/2000/svg" xmlns:xlink="http://www.w3.org/1999/xlink">
    <!-- Generator: Sketch 50.2 (55047) - http://www.bohemiancoding.com/sketch -->
    <title>Group</title>
    <desc>Created with Sketch.</desc>
    <defs></defs>
    <g id="desktop" stroke="none" stroke-width="1" fill="none" fill-rule="evenodd">
        <g id="catalog-content-1280" transform="translate(-576.000000, -3814.000000)" fill="#C8A05F" fill-rule="nonzero">
            <g id="Group-4-Copy-9" transform="translate(555.000000, 3790.000000)">
                <g id="Group" transform="translate(21.000000, 24.000000)">
                    <path d="M1.16185897,0.24137931 C0.855396165,0.300096626 0.635527948,0.571823415 0.641025641,0.885057471 L0.641025641,44.6551724 C0.637756225,44.8873059 0.759214933,45.1032248 0.958892852,45.2202496 C1.15857077,45.3372743 1.40553179,45.3372743 1.60520971,45.2202496 C1.80488763,45.1032248 1.92634634,44.8873059 1.92307692,44.6551724 L1.92307692,1.52873563 L26.6626603,1.52873563 L35.2564103,10.158046 L35.2564103,29.2068966 C35.2531408,29.43903 35.3745995,29.6549489 35.5742775,29.7719737 C35.7739554,29.8889985 36.0209164,29.8889985 36.2205943,29.7719737 C36.4202722,29.6549489 36.541731,29.43903 36.5384615,29.2068966 L36.5384615,9.89655172 C36.5424351,9.72432616 36.4774972,9.55768702 36.3581731,9.43390805 L27.3838141,0.422413793 C27.2605452,0.302595882 27.0945928,0.237389261 26.9230769,0.24137931 L1.28205128,0.24137931 C1.24207558,0.237599815 1.20183467,0.237599815 1.16185897,0.24137931 Z M1.16185897,47.8735632 C0.932842571,47.8951223 0.732676949,48.0377282 0.636762562,48.2476625 C0.540848174,48.4575967 0.563756699,48.7029655 0.696858716,48.8913406 C0.829960732,49.0797158 1.05303488,49.1824787 1.28205128,49.1609195 L27.7644231,49.1609195 C27.9955999,49.1642025 28.2106291,49.0422412 28.3271716,48.841737 C28.4437142,48.6412328 28.4437142,48.3932499 28.3271716,48.1927457 C28.2106291,47.9922416 27.9955999,47.8702803 27.7644231,47.8735632 L1.28205128,47.8735632 C1.24207558,47.8697837 1.20183467,47.8697837 1.16185897,47.8735632 Z" id="Shape"></path>
                    <path d="M26.8429487,0.864942529 C26.5127463,0.906488958 26.269104,1.19482707 26.2820513,1.52873563 L26.2820513,9.89655172 C26.2820867,10.2520306 26.5690629,10.5401943 26.9230769,10.5402299 L35.2564103,10.5402299 C35.4875871,10.5435128 35.7026163,10.4215515 35.8191588,10.2210474 C35.9357013,10.0205432 35.9357013,9.77256026 35.8191588,9.57205609 C35.7026163,9.37155191 35.4875871,9.24959062 35.2564103,9.25287356 L27.5641026,9.25287356 L27.5641026,1.52873563 C27.5714654,1.33965971 27.4956123,1.15690649 27.3567025,1.0290456 C27.2177927,0.901184707 27.0298959,0.84116677 26.8429487,0.864942529 Z" id="Shape"></path>
                    <path d="M15.2644231,40.1494253 C15.0354067,40.1709844 14.835241,40.3135902 14.7393266,40.5235245 C14.6434122,40.7334588 14.6663207,40.9788276 14.7994228,41.1672027 C14.9325248,41.3555779 15.155599,41.4583408 15.3846154,41.4367816 L27.2636218,41.4367816 C27.4947987,41.4400646 27.7098278,41.3181033 27.8263703,41.1175991 C27.9429129,40.9170949 27.9429129,40.669112 27.8263703,40.4686078 C27.7098278,40.2681036 27.4947987,40.1461423 27.2636218,40.1494253 L15.3846154,40.1494253 C15.3446397,40.1456458 15.3043988,40.1456458 15.2644231,40.1494253 Z" id="Shape"></path>
                    <path d="M12.119391,36.2672736 C11.9531207,36.2893798 11.802099,36.376035 11.6987179,36.5086529 L8.31330128,40.4913471 L6.87099359,39.0430713 C6.70996072,38.8777845 6.47334416,38.8113188 6.25027511,38.8687111 C6.02720605,38.9261034 5.85157401,39.0986345 5.78953787,39.3213135 C5.72750174,39.5439925 5.78848629,39.7829892 5.94951923,39.9482759 L7.87259615,41.8793103 C7.99944629,42.0060985 8.17330431,42.0738671 8.35212288,42.0662263 C8.53094144,42.0585855 8.69843758,41.9762311 8.81410256,41.8390805 L12.6602564,37.3333333 C12.8336946,37.135276 12.8692785,36.8510241 12.7500522,36.6160259 C12.6308259,36.3810277 12.3809098,36.2428254 12.119391,36.2672736 Z" id="Shape"></path>
                    <path d="M15.2644231,30.4942529 C15.0354067,30.515812 14.835241,30.6584178 14.7393266,30.8683521 C14.6434122,31.0782864 14.6663207,31.3236551 14.7994228,31.5120303 C14.9325248,31.7004055 15.155599,31.8031684 15.3846154,31.7816092 L30.7692308,31.7816092 C31.0004076,31.7848921 31.2154368,31.6629308 31.3319793,31.4624267 C31.4485218,31.2619225 31.4485218,31.0139396 31.3319793,30.8134354 C31.2154368,30.6129312 31.0004076,30.4909699 30.7692308,30.4942529 L15.3846154,30.4942529 C15.3446397,30.4904734 15.3043988,30.4904734 15.2644231,30.4942529 Z" id="Shape"></path>
                    <path d="M12.119391,26.6121011 C11.9531207,26.6342074 11.802099,26.7208626 11.6987179,26.8534805 L8.31330128,30.8361747 L6.87099359,29.3878989 C6.70996071,29.2226122 6.47334417,29.1561465 6.25027515,29.2135388 C6.02720613,29.2709311 5.85157411,29.4434621 5.78953797,29.6661411 C5.72750184,29.8888201 5.78848635,30.1278168 5.94951923,30.2931034 L7.87259615,32.2241379 C7.99944629,32.3509261 8.17330431,32.4186947 8.35212288,32.4110539 C8.53094144,32.4034131 8.69843758,32.3210587 8.81410256,32.183908 L12.6602564,27.6781609 C12.8336946,27.4801036 12.8692785,27.1958517 12.7500522,26.9608535 C12.6308259,26.7258553 12.3809098,26.587653 12.119391,26.6121011 Z" id="Shape"></path>
                    <path d="M15.2644231,20.8390805 C15.0354067,20.8606396 14.835241,21.0032454 14.7393266,21.2131797 C14.6434122,21.423114 14.6663207,21.6684827 14.7994228,21.8568579 C14.9325248,22.045233 15.155599,22.1479959 15.3846154,22.1264368 L30.7692308,22.1264368 C31.0004076,22.1297197 31.2154368,22.0077584 31.3319793,21.8072543 C31.4485218,21.6067501 31.4485218,21.3587672 31.3319793,21.158263 C31.2154368,20.9577588 31.0004076,20.8357975 30.7692308,20.8390805 L15.3846154,20.8390805 C15.3446397,20.835301 15.3043988,20.835301 15.2644231,20.8390805 Z" id="Shape"></path>
                    <path d="M12.119391,16.9568966 C11.9531207,16.9790028 11.802099,17.065658 11.6987179,17.1982759 L8.31330128,21.1810345 L6.87099359,19.7327586 C6.7099828,19.5673943 6.47333381,19.5008661 6.2502197,19.558243 C6.0271056,19.6156199 5.85143619,19.7881816 5.78940649,20.0109039 C5.7273768,20.2336263 5.78841435,20.4726591 5.94951923,20.637931 L7.87259615,22.5689655 C7.99944629,22.6957537 8.17330431,22.7635222 8.35212288,22.7558815 C8.53094144,22.7482407 8.69843758,22.6658863 8.81410256,22.5287356 L12.6602564,18.0229885 C12.8337182,17.8249332 12.8693163,17.5406653 12.7500864,17.305653 C12.6308566,17.0706408 12.3809226,16.9324345 12.119391,16.9568966 Z" id="Shape"></path>
                    <path d="M37.8205122,32.4109977 C44.1854359,32.4109977 49.3649833,37.6119816 49.3649833,44.0032552 C49.3649833,50.3945287 44.1854359,55.5955126 37.8205122,55.5955126 C31.4555885,55.5955126 26.276041,50.3945287 26.276041,44.0032552 C26.276041,37.6119816 31.4555885,32.4109977 37.8205122,32.4109977 Z M37.8205122,33.7104552 C32.1484609,33.7104552 27.5701115,38.3077333 27.5701115,44.0032552 C27.5701115,49.698777 32.1484609,54.2960552 37.8205122,54.2960552 C43.4925641,54.2960552 48.0709128,49.698777 48.0709128,44.0032552 C48.0709128,38.3077333 43.4925641,33.7104552 37.8205122,33.7104552 Z" id="Shape"></path>
                    <path d="M37.7403846,36.9109517 C37.4101949,36.9524972 37.1665569,37.2408162 37.1794872,37.5747126 L37.1794872,39.2241379 C37.1762178,39.4562714 37.2976765,39.6721903 37.4973544,39.7892151 C37.6970323,39.9062399 37.9439933,39.9062399 38.1436713,39.7892151 C38.3433492,39.6721903 38.4648079,39.4562714 38.4615385,39.2241379 L38.4615385,37.5747126 C38.4688916,37.3856422 38.3930343,37.202898 38.2541257,37.0750444 C38.1152172,36.9471909 37.927326,36.8871771 37.7403846,36.9109517 Z" id="Shape"></path>
                    <path d="M37.8205128,38.862069 C37.0608103,38.8691494 36.2938603,39.0863908 35.6770833,39.5661241 C35.0603064,40.0457931 34.6153846,40.824708 34.6153846,41.7586207 C34.6308141,42.6411678 35.0315154,43.3585471 35.6169872,43.7901977 C36.202459,44.2219126 36.9072782,44.4421149 37.6602564,44.6350897 C38.3724814,44.8175724 38.9388718,44.999669 39.2628205,45.2384736 C39.5867692,45.4773425 39.7337026,45.6988966 39.7435897,46.2643678 C39.7435897,46.8272644 39.5291282,47.1615908 39.1826923,47.4310345 C38.8362564,47.7004782 38.3361288,47.8686713 37.8205128,47.8735632 C36.608459,47.8735632 36.1232218,47.3130483 35.8373397,46.7270437 C35.7371451,46.5186387 35.5338368,46.379739 35.3039993,46.3626667 C35.0741617,46.3455944 34.8527126,46.4529433 34.7230698,46.6442759 C34.5934269,46.8356086 34.5752861,47.0818571 34.6754808,47.2902621 C35.1222,48.206023 36.1629513,49.1609195 37.8205128,49.1609195 C38.5802372,49.1538391 39.3471641,48.9365977 39.9639423,48.4568644 C40.5807205,47.9771954 41.025641,47.1982805 41.025641,46.2643678 C41.0257437,46.2577169 41.0257437,46.2510647 41.025641,46.2444138 C41.0102115,45.3618023 40.6095109,44.6444874 40.0240385,44.2127724 C39.438566,43.7810575 38.7337474,43.5810023 37.9807692,43.3880276 C37.2685442,43.2055448 36.7021532,43.0033655 36.3782051,42.7644966 C36.0591468,42.5292322 35.9112526,42.3054253 35.8974359,41.7587494 C35.8972244,41.7503816 35.8975853,41.7471632 35.8974359,41.7387954 C35.9030769,41.1895448 36.1166545,40.8378391 36.4583333,40.5720644 C36.8047712,40.3026207 37.304875,40.1546391 37.8205128,40.1496828 C39.0325667,40.1496828 39.5178038,40.6900506 39.8036859,41.2761195 C39.9038806,41.4845245 40.1071888,41.6234242 40.3370264,41.6404965 C40.5668639,41.6575688 40.788313,41.5502199 40.9179559,41.3588873 C41.0475988,41.1675546 41.0657396,40.9213061 40.9655449,40.7129011 C40.5188256,39.7971402 39.4780744,38.8623264 37.8205128,38.8623264 L37.8205128,38.862069 Z" id="Shape"></path>
                    <path d="M37.7403846,48.1551724 C37.4179767,48.1959791 37.1769686,48.4725567 37.1794872,48.7988506 L37.1794872,50.4482759 C37.1762178,50.6804093 37.2976765,50.8963282 37.4973544,51.013353 C37.6970323,51.1303778 37.9439933,51.1303778 38.1436713,51.013353 C38.3433492,50.8963282 38.4648079,50.6804093 38.4615385,50.4482759 L38.4615385,48.7988506 C38.4629679,48.6132427 38.3845422,48.4360483 38.2463847,48.3127334 C38.1082272,48.1894186 37.9237853,48.1319861 37.7403846,48.1551724 Z" id="Shape"></path>
                </g>
            </g>
        </g>
    </g>
</svg>