<?xml version="1.0" encoding="utf-8"?>
<!-- Generator: Adobe Illustrator 21.1.0, SVG Export Plug-In . SVG Version: 6.00 Build 0)  -->
<svg version="1.1" id="Слой_1" xmlns="http://www.w3.org/2000/svg" xmlns:xlink="http://www.w3.org/1999/xlink" x="0px" y="0px"
	 viewBox="0 0 22 22" style="enable-background:new 0 0 22 22;" xml:space="preserve">
<style type="text/css">
	.st0{fill:#646464;}
</style>
<title>search</title>
<desc>Created with Sketch.</desc>
<g id="Symbols">
	<g id="header" transform="translate(-1062.000000, -70.000000)">
		<g id="top-bar" transform="translate(0.000000, 33.000000)">
			<path class="st0" d="M1063.1,58.5c-0.2,0-0.3-0.1-0.5-0.2l0,0c-0.3-0.3-0.3-0.7,0-0.9l6.4-6.4c0.1-0.1,0.1-0.1,0.2-0.1
				c-1.2-1.4-2-3.3-2-5.3c0-4.5,3.6-8.1,8.1-8.1c4.5,0,8.1,3.6,8.1,8.1c0,4.5-3.6,8.1-8.1,8.1c-2,0-3.9-0.7-5.3-2
				c0,0.1-0.1,0.1-0.1,0.2l-6.4,6.4C1063.5,58.4,1063.3,58.5,1063.1,58.5C1063.1,58.5,1063.1,58.5,1063.1,58.5z M1063.4,58.1
				L1063.4,58.1C1063.4,58.1,1063.4,58.1,1063.4,58.1z M1062.9,57.6C1062.9,57.6,1062.9,57.6,1062.9,57.6L1062.9,57.6z M1075.4,38.5
				c-3.9,0-7.1,3.2-7.1,7.1s3.2,7.1,7.1,7.1s7.1-3.2,7.1-7.1S1079.3,38.5,1075.4,38.5z"/>
		</g>
	</g>
</g>
</svg>
