<?xml version="1.0" encoding="UTF-8"?>
<svg viewBox="0 0 55 67" version="1.1" xmlns="http://www.w3.org/2000/svg" xmlns:xlink="http://www.w3.org/1999/xlink">
    <!-- Generator: Sketch 50.2 (55047) - http://www.bohemiancoding.com/sketch -->
    <title>Shape</title>
    <desc>Created with Sketch.</desc>
    <defs></defs>
    <g id="desktop" stroke="none" stroke-width="1" fill="none" fill-rule="evenodd">
        <g id="catalog-content-1280" transform="translate(-342.000000, -3808.000000)" fill="#C8A05F" fill-rule="nonzero">
            <g id="Group-4-Copy-8" transform="translate(323.000000, 3790.000000)">
                <path d="M73.431419,44.8677507 C73.1171488,44.8677507 72.862843,45.1220565 72.862843,45.4363292 L72.862843,47.672163 L65.8018206,43.4151367 L65.81931,34.0180233 C65.8284709,33.9773169 65.8355509,33.9358464 65.8355509,33.8931606 C65.8355509,33.6938253 65.7311641,33.5089249 65.5606987,33.4062028 L54.983117,27.0291145 C54.802106,26.9202853 54.5755604,26.9202853 54.3956593,27.0291145 L51.5412397,28.7527955 L51.5455427,25.6159595 C51.5594228,25.5664031 51.5677513,25.5150073 51.5677513,25.4621891 C51.5677513,25.2628531 51.4633645,25.0779534 51.2929017,24.9752313 L40.71532,18.5981428 C40.5309745,18.4870921 40.2988774,18.489313 40.116754,18.6053611 L29.6818725,25.2406426 C29.5294553,25.337083 29.4377,25.5004318 29.4240267,25.678148 C29.3947368,25.7467217 29.3781491,25.822028 29.3781491,25.9013945 L29.3781491,32.189434 L21.122637,37.1725927 L21.122637,33.2607269 C21.122637,32.9464528 20.8683306,32.6921471 20.5540572,32.6921471 C20.2397838,32.6921471 19.9854774,32.9464528 19.9854774,33.2607269 L19.9854774,61.8762821 C19.9854774,62.1905524 20.2397838,62.4448581 20.5540572,62.4448581 C20.8683306,62.4448581 21.122637,62.1905524 21.122637,61.8762821 L21.122637,57.2837069 L55.4267673,77.9652404 L55.4267673,84.270215 C55.4267674,84.5844916 55.6810731,84.8387973 55.9953433,84.8387973 C56.3096186,84.8387973 56.5639244,84.5844916 56.5639244,84.2702162 L56.5639244,77.8005409 L72.862843,67.973697 L72.862843,74.0518845 C72.862843,74.3661599 73.1171487,74.6204656 73.4314189,74.6204656 C73.7456943,74.6204656 74,74.3661599 74,74.0518845 L74,45.4363292 C74.0000001,45.1220565 73.7456943,44.8677507 73.431419,44.8677507 Z M56.5639244,70.6745548 L61.5063781,67.7327139 L56.5639244,75.8561112 L56.5639244,70.6745548 Z M56.5639244,69.3511744 L56.5639244,59.512706 L64.3924471,54.7927698 L64.3924471,62.9890457 L62.7686072,65.6579405 L56.5639244,69.3511744 Z M53.8065342,58.8007311 L53.8065342,70.3155796 L44.3577835,64.6914184 L44.3577835,53.0038824 L53.8245811,58.7114395 C53.8195845,58.7417017 53.8065342,58.7690456 53.8065342,58.8007311 Z M43.2206239,52.4997126 L43.2206239,60.2896779 C43.1548254,60.3013384 43.0893068,60.3209113 43.0285049,60.3571078 L40.568733,61.8211384 L40.568733,50.7194287 L43.2532446,52.3379586 C43.2374198,52.3901545 43.2206239,52.442312 43.2206239,52.4997126 Z M28.8456606,44.0054408 L28.8456606,50.8464787 C28.7874982,50.8596317 28.7291265,50.8751097 28.6751978,50.9077996 L21.2726247,55.3710332 L28.5218094,43.4563298 L28.9408865,43.7089708 C28.8857773,43.7965258 28.8456606,43.8942514 28.8456606,44.0054408 Z M29.9828202,44.3371696 L39.4878617,50.0677702 C39.4537126,50.1408543 39.4315734,50.2203968 39.4315734,50.3064592 L39.4315734,61.821313 L29.9828202,56.1971467 L29.9828202,44.3371696 Z M54.9436938,59.3861773 L55.4267673,59.6774066 L55.4267673,70.0280317 L54.9436938,70.3155797 L54.9436938,59.3861773 Z M64.3924471,64.0820938 L64.3924471,64.6914185 L63.811237,65.0373742 L64.3924471,64.0820938 Z M65.5296041,61.1200249 L65.5296041,54.2060057 C65.5296041,54.1747389 65.5166977,54.1477752 65.5118372,54.1178957 L72.2681665,50.0443799 L65.5296041,61.1200249 Z M64.6806219,34.9159376 L64.6589707,46.4252372 L55.2890612,52.002759 L55.2890612,40.5722389 L64.4667823,35.0395864 L64.6806219,34.9159376 Z M54.1480148,52.0005395 L44.7814424,46.4246823 L44.72668,34.9174995 L54.1058172,40.5718921 L54.1480148,52.0005395 Z M54.6893881,28.1801554 L64.1659014,33.8931606 L63.8921641,34.058176 L54.5059469,39.4850172 L45.2295319,33.8926057 L54.6893881,28.1801554 Z M43.8352895,33.4062028 C43.6648267,33.5094811 43.5604399,33.6943802 43.5604399,33.8931605 C43.5604399,33.9495541 43.5707106,34.0040031 43.5866047,34.0565446 C43.5866047,34.0586614 43.5854255,34.0603967 43.5854255,34.0625135 L43.6235976,42.0753791 C43.5502361,42.0854083 43.4776374,42.1099443 43.4099661,42.1503386 L41.0218192,43.5723436 L41.0218192,32.1552167 C41.0218192,32.1509831 41.0195277,32.1474777 41.0194583,32.1432441 L50.4071321,26.4831959 L50.403384,29.2740056 C50.4032453,29.3264764 50.4197662,29.3737426 50.4330914,29.4220158 L43.8352895,33.4062028 Z M30.5153087,37.9953754 L30.5153087,26.6887443 L39.8846595,32.1736438 L39.8846595,43.5721356 L30.5153087,37.9953754 Z M40.4293622,19.7536257 L49.8981044,25.4621892 L40.4260328,31.1729728 L31.0777808,25.7003927 L40.4293622,19.7536257 Z M29.3781492,33.5179137 L29.3781492,38.3185329 C29.3781492,38.5189793 29.4836471,38.7044346 29.6557758,38.8071554 L40.1622862,45.0609771 C40.1642283,45.0621588 40.1664504,45.0624002 40.1683925,45.063546 C40.1697824,45.0643784 40.1708228,45.0656988 40.1722793,45.0665312 C40.1971982,45.0806553 40.2241978,45.0882542 40.250432,45.0983888 C40.2697274,45.1057797 40.2881904,45.1166078 40.307902,45.1218125 C40.3464903,45.1320857 40.3862602,45.135451 40.4260327,45.1373958 C40.4349161,45.1378119 40.4437995,45.1409358 40.452683,45.1409358 C40.4528218,45.1409358 40.4528218,45.1408998 40.4529605,45.1408998 C40.4530992,45.1408998 40.4530992,45.1409358 40.4532379,45.1409358 C40.4571247,45.1409358 40.4610116,45.1394433 40.4648984,45.1393739 C40.5102224,45.1384028 40.5552665,45.1330235 40.5988539,45.1214657 C40.6148173,45.1172681 40.6293242,45.1086954 40.6448715,45.103108 C40.676313,45.0917943 40.707685,45.0808275 40.7368349,45.064101 C40.7391957,45.0627472 40.7418315,45.062367 40.7441924,45.0609771 L43.6297065,43.3431958 L43.6459474,46.7517255 C43.6470571,46.9510607 43.7525563,47.1354062 43.9235741,47.2375734 L54.4295282,53.4913951 C54.4314729,53.4925409 54.433695,53.4928517 54.4356372,53.493964 C54.4370244,53.4947964 54.4380674,53.4961143 54.439524,53.4969466 C54.465622,53.511731 54.4938008,53.5198873 54.5212861,53.5302634 C54.5390529,53.5369606 54.5558487,53.546887 54.5740344,53.5517449 C54.6219248,53.5645846 54.6710637,53.5713512 54.7204826,53.5713512 C54.7697603,53.5713512 54.8190405,53.564618 54.867139,53.5517449 C54.8865731,53.5465736 54.9044093,53.5360589 54.9232885,53.5288042 C54.9499414,53.5185335 54.9772879,53.5107933 55.002551,53.4963918 C55.0039382,53.4956288 55.0048425,53.4943803 55.0061603,53.4936173 C55.007825,53.4926436 55.0097697,53.4924021 55.0114344,53.4913952 L65.517946,47.2375735 C65.6895212,47.1354063 65.7950179,46.949951 65.7955727,46.7500609 L65.7993182,44.7417079 L72.3303555,48.6790127 L56.5639244,58.184573 L56.5639244,55.6546636 C56.5639244,55.3403908 56.3096187,55.0860825 55.9953433,55.0860825 C55.6810731,55.0860825 55.4267674,55.3403908 55.4267674,55.6546636 L55.4267674,58.3492737 L21.8133725,38.0836601 L29.3781492,33.5179137 Z M28.0352678,43.1629811 L21.1226371,54.524548 L21.1226371,38.995317 L28.0352678,43.1629811 Z M21.813928,56.3726061 L28.8456606,52.1331411 L28.8456606,56.5203029 C28.8456606,56.7207505 28.9511585,56.9062058 29.1232872,57.0089279 L39.7092001,63.3099438 C39.7115584,63.3113362 39.7141967,63.3117163 39.716555,63.3130676 C39.7465398,63.3302848 39.7787442,63.3416293 39.8110179,63.3530816 C39.8256635,63.3582863 39.8394048,63.3664093 39.8543973,63.3704015 C39.8981928,63.3820235 39.9433781,63.3874388 39.9889076,63.3884099 C39.9926556,63.3884818 39.9964038,63.389905 40.0001519,63.389905 C40.0002906,63.389905 40.0002906,63.3898691 40.0004293,63.3898691 C40.000568,63.3898691 40.000568,63.389905 40.0007068,63.389905 C40.0102864,63.389905 40.0197941,63.3866065 40.0294405,63.3861184 C40.0682394,63.3840735 40.107177,63.3808777 40.1452129,63.3708177 C40.1659649,63.3653304 40.185399,63.3541247 40.2057349,63.3461763 C40.2309979,63.3362858 40.2570959,63.329103 40.2811105,63.3154979 C40.282567,63.3146655 40.2836101,63.3133451 40.2849973,63.3125127 C40.2869394,63.311367 40.2891615,63.3111255 40.2911037,63.3099438 L43.2206239,61.5663445 L43.2206239,65.0145773 C43.2206239,65.2150224 43.3261205,65.400475 43.4982505,65.5031971 L54.0841608,71.8042155 C54.0861055,71.8053613 54.0883251,71.8056747 54.0902698,71.8067845 C54.091657,71.8076169 54.0926975,71.8089373 54.0941566,71.8097696 C54.1192116,71.8239657 54.14635,71.8316674 54.1728642,71.8417993 C54.1917408,71.8490181 54.2095797,71.8594275 54.2289444,71.8646014 C54.2769042,71.877405 54.3260431,71.8841717 54.3751152,71.8841717 C54.4241848,71.8841717 54.4733263,71.877405 54.5212861,71.8646014 C54.5406508,71.8594275 54.5584871,71.8490181 54.5773663,71.8417993 C54.6038779,71.8316673 54.6310163,71.8239657 54.6560738,71.8097696 C54.6575304,71.8089373 54.6585709,71.8076169 54.6599606,71.8067845 C54.6619028,71.8056747 54.6641249,71.8053613 54.666067,71.8042155 L55.4267672,71.3514428 L55.4267672,76.6371085 L21.813928,56.3726061 Z M57.0220097,76.1962405 L62.5488641,67.1121475 L65.2519774,65.5031972 C65.4241075,65.400475 65.5296041,65.2150224 65.5296041,65.0145773 L65.5296041,62.8536671 C65.5450127,62.8652222 65.5544561,62.8817046 65.571252,62.8918417 L72.3303557,66.9668476 L57.0220097,76.1962405 Z M66.1587097,61.9179261 C66.0303083,61.8407085 65.8848286,61.8234298 65.7496246,61.8514314 L72.862843,50.160047 L72.862843,65.959998 L66.1587097,61.9179261 Z" id="Shape"></path>
            </g>
        </g>
    </g>
</svg>