<?xml version="1.0" encoding="UTF-8"?>
<svg width="22px" height="18px" viewBox="0 0 22 18" version="1.1" xmlns="http://www.w3.org/2000/svg" xmlns:xlink="http://www.w3.org/1999/xlink">
    <!-- Generator: Sketch 49.3 (51167) - http://www.bohemiancoding.com/sketch -->
    <title>Shape 5</title>
    <desc>Created with Sketch.</desc>
    <defs></defs>
    <g id="Symbols" stroke="none" stroke-width="1" fill="none" fill-rule="evenodd" opacity="0.600000024">
        <g id="footer" transform="translate(-1100.000000, -162.000000)" fill="#B78C4D">
            <g id="Group-2">
                <g>
                    <g transform="translate(980.000000, 159.000000)">
                        <path d="M142,5.13074107 C141.190624,5.49221398 140.320638,5.73640754 139.407753,5.84626696 C140.339558,5.28390193 141.055325,4.39339834 141.392253,3.33223613 C140.520067,3.85307165 139.554162,4.23115637 138.525997,4.43492786 C137.702761,3.55173347 136.529727,3 135.231514,3 C132.738926,3 130.717906,5.03450334 130.717906,7.5439936 C130.717906,7.90015074 130.757836,8.24700526 130.834726,8.57957363 C127.083525,8.39008829 123.757801,6.58095179 121.531742,3.83169779 C121.143224,4.50281478 120.920585,5.2833482 120.920585,6.11615344 C120.920585,7.69272464 121.717421,9.08357585 122.928515,9.89844034 C122.188549,9.87485157 121.492693,9.6704156 120.884176,9.33009506 C120.883736,9.34903252 120.883736,9.36808072 120.883736,9.38723967 C120.883736,11.5888578 122.439568,13.4254591 124.504367,13.8429692 C124.125639,13.9468484 123.726891,14.0023318 123.315163,14.0023318 C123.024215,14.0023318 122.741516,13.9737595 122.465858,13.9208232 C123.040385,15.7260836 124.707096,17.0399668 126.682247,17.0765128 C125.137524,18.2953764 123.191414,19.0217553 121.076675,19.0217553 C120.712356,19.0217553 120.353098,19.0002707 120,18.9581875 C121.99748,20.2475959 124.370058,21 126.918855,21 C135.220844,21 139.760741,14.075756 139.760741,8.07080936 C139.760741,7.87379334 139.756341,7.67788476 139.747651,7.48286215 C140.629737,6.84231089 141.394893,6.04195404 142,5.13074107 L142,5.13074107 Z" id="Shape-5"></path>
                    </g>
                </g>
            </g>
        </g>
    </g>
</svg>