<?xml version="1.0" encoding="UTF-8"?>
<svg width="28px" height="16px" viewBox="0 0 28 16" version="1.1" xmlns="http://www.w3.org/2000/svg" xmlns:xlink="http://www.w3.org/1999/xlink">
    <!-- Generator: Sketch 49.3 (51167) - http://www.bohemiancoding.com/sketch -->
    <title>Shape</title>
    <desc>Created with Sketch.</desc>
    <defs></defs>
    <g id="Symbols" stroke="none" stroke-width="1" fill="none" fill-rule="evenodd" opacity="0.600000024">
        <g id="footer" transform="translate(-1052.000000, -163.000000)" fill="#B78C4D" fill-rule="nonzero">
            <g id="Group-2">
                <g>
                    <g transform="translate(980.000000, 159.000000)">
                        <path d="M99.8515029,18.4497562 C99.8175981,18.376574 99.7859911,18.3158701 99.7566308,18.2672354 C99.2708324,17.3909413 98.3424847,16.3153523 96.9721494,15.0401615 L96.9431975,15.0109602 L96.9286961,14.9966408 L96.9140415,14.9819635 L96.8993358,14.9819635 C96.2774077,14.38817 95.8835709,13.9889154 95.7186426,13.7845064 C95.4168696,13.3951219 95.3492642,13.0009814 95.5141926,12.6016244 C95.6307148,12.2998949 96.0684133,11.6626831 96.8262669,10.6891196 C97.2249034,10.1731621 97.5406162,9.75963925 97.7737626,9.44809074 C99.4552662,7.20915544 100.18427,5.77844613 99.9606211,5.15540024 L99.8737656,5.00980297 C99.8154024,4.92214799 99.6647713,4.84195953 99.4220763,4.76882848 C99.1788197,4.69585085 98.8679067,4.68378167 98.4887757,4.73241637 L94.2903014,4.76146423 C94.2222876,4.73732587 94.1251688,4.73957606 93.9986386,4.76882848 C93.8722616,4.7980809 93.8090476,4.81275825 93.8090476,4.81275825 L93.7359787,4.84932378 L93.6779729,4.89325355 C93.6293624,4.92230141 93.5759011,4.97339086 93.5175379,5.04641963 C93.4594811,5.1191927 93.4109217,5.2045975 93.372115,5.30191805 C92.9150131,6.47973712 92.39531,7.5748107 91.8120354,8.58708766 C91.4524098,9.19070012 91.1221445,9.71381727 90.8205247,10.156746 C90.5193134,10.5995213 90.2666104,10.9257471 90.0626711,11.134861 C89.8584254,11.3441795 89.6740937,11.5118695 89.5085526,11.6385447 C89.3432668,11.7652711 89.217094,11.8188153 89.1297279,11.7992285 C89.0421576,11.7796416 88.9596934,11.7602082 88.8816205,11.7407748 C88.7456439,11.6531198 88.6362703,11.5339111 88.5538062,11.3830463 C88.4709845,11.2321816 88.4152255,11.0422965 88.3860694,10.8135446 C88.3570665,10.5846393 88.3399099,10.387748 88.335008,10.2222059 C88.3304635,10.0568684 88.332557,9.82300245 88.3424119,9.52127293 C88.352522,9.21938999 88.3570665,9.01513445 88.3570665,8.90804604 C88.3570665,8.53809497 88.3642662,8.13659015 88.3787165,7.7034293 C88.3934222,7.27026845 88.4053195,6.92706391 88.4152765,6.67422481 C88.4251824,6.42113 88.429778,6.15335784 88.429778,5.87106175 C88.429778,5.58876566 88.4126213,5.36737801 88.3787165,5.20669426 C88.3452203,5.04621507 88.2938014,4.89044082 88.2260429,4.73942264 C88.1578759,4.58855788 88.0581019,4.47185504 87.9271804,4.38900727 C87.7960036,4.30626179 87.6329134,4.24059726 87.438829,4.19180913 C86.9236703,4.07505515 86.2676842,4.01189652 85.4705644,4.00207752 C83.6629391,3.9826441 82.5014449,4.0995515 81.9863373,4.35264631 C81.7822448,4.45958129 81.5975557,4.60568998 81.432423,4.79051209 C81.2574355,5.00474005 81.2330282,5.12164745 81.3593541,5.14087632 C81.9425777,5.22837787 82.3554603,5.43769633 82.5984616,5.76862713 L82.686032,5.94398824 C82.7541479,6.07051007 82.8221617,6.29450588 82.8902266,6.61566882 C82.9581893,6.93683177 83.0020511,7.29210549 83.0213523,7.68128542 C83.0698607,8.39198629 83.0698607,9.00035482 83.0213523,9.50644216 C82.9726908,10.0127341 82.9267355,10.4068746 82.8828737,10.6891707 C82.839012,10.9714668 82.7734491,11.2002187 82.686032,11.3753752 C82.5984616,11.5505829 82.5402005,11.6576713 82.5109934,11.6965382 C82.4818373,11.735405 82.4575321,11.7599014 82.4382309,11.7695158 C82.3119049,11.8179971 82.1805239,11.842698 82.0445473,11.842698 C81.9083665,11.842698 81.7432339,11.7744764 81.5488941,11.6381356 C81.3546054,11.5017948 81.1529639,11.3145179 80.9439695,11.0759982 C80.7349751,10.8374273 80.4992756,10.5040418 80.2367688,10.0757904 C79.9744663,9.64753906 79.7023089,9.14140058 79.4204499,8.55737497 L79.1872524,8.13382856 C79.041472,7.86135146 78.8423325,7.46460272 78.5896295,6.94394031 C78.3367733,6.42307334 78.1132775,5.91923619 77.9189888,5.43253113 C77.8413244,5.22812217 77.724649,5.07250134 77.569167,4.96541293 L77.4962002,4.92148316 C77.4476919,4.88261631 77.3698232,4.84134584 77.2630027,4.79736493 C77.1560291,4.75343516 77.0444088,4.72193255 76.9276824,4.70255027 L72.9331985,4.73159812 C72.5250135,4.73159812 72.2480564,4.82421374 72.102225,5.00918928 L72.0438618,5.09669084 C72.0147057,5.14542783 72,5.22326382 72,5.33040336 C72,5.43749177 72.0291561,5.5689231 72.0875193,5.72454394 C72.6706407,7.09715754 73.3047725,8.42093186 73.9899146,9.69607149 C74.6750568,10.9712111 75.2704329,11.99837 75.7756857,12.7766276 C76.2810406,13.5554477 76.7961482,14.2904915 77.3210085,14.9814009 C77.8458688,15.6725661 78.1932908,16.1154948 78.3632742,16.3100848 C78.5334619,16.5050327 78.6671407,16.6507834 78.7643106,16.748104 L79.1288381,17.0984682 C79.3620867,17.3321296 79.7046067,17.6119709 80.1565513,17.9379922 C80.6085981,18.2642181 81.109051,18.585381 81.6581656,18.9019925 C82.2073822,19.2180925 82.8463138,19.4760457 83.5753177,19.6755451 C84.3042194,19.8752491 85.0136668,19.9553865 85.7037619,19.9167242 L87.3803126,19.9167242 C87.7203306,19.8873183 87.9779355,19.7802299 88.1530251,19.5954078 L88.2110308,19.5222256 C88.2500418,19.4641299 88.2865507,19.3738667 88.3202512,19.2524078 C88.3543602,19.1307443 88.3713126,18.9967048 88.3713126,18.850903 C88.3613557,18.4324195 88.3931669,18.0552576 88.4658784,17.7194685 C88.5385388,17.3837816 88.6213604,17.1306868 88.7139858,16.9602352 C88.8065602,16.789937 88.9110319,16.6462319 89.0272987,16.5297336 C89.1438209,16.4129797 89.2268467,16.3422522 89.2755593,16.3179093 C89.3239656,16.2934129 89.3626191,16.2767922 89.3917751,16.2668198 C89.6250237,16.1889838 89.8995299,16.2643651 90.2157022,16.4933215 C90.5316192,16.7220734 90.8279286,17.0045229 91.10509,17.3402098 C91.3820982,17.6762035 91.7149166,18.0531608 92.1035961,18.4716443 C92.4925309,18.8902813 92.8326,19.2014718 93.1240586,19.4061876 L93.4155172,19.5813953 C93.6101633,19.6983027 93.8628663,19.8053911 94.1739325,19.9027116 C94.484437,19.9999811 94.7564922,20.024324 94.9900982,19.9756893 L98.7220242,19.917389 C99.0911473,19.917389 99.3783677,19.8561737 99.5821028,19.7347148 C99.7862464,19.6130513 99.9075172,19.4790118 99.9466303,19.33321 C99.9856412,19.1872547 99.9877347,19.0216615 99.9540342,18.8365325 C99.9194656,18.6518638 99.8854077,18.5227338 99.8515029,18.4497562 Z" id="Shape"></path>
                    </g>
                </g>
            </g>
        </g>
    </g>
</svg>