<?xml version="1.0" encoding="UTF-8"?>
<svg viewBox="0 0 45 55" version="1.1" xmlns="http://www.w3.org/2000/svg" xmlns:xlink="http://www.w3.org/1999/xlink">
    <!-- Generator: Sketch 50.2 (55047) - http://www.bohemiancoding.com/sketch -->
    <title>Group</title>
    <desc>Created with Sketch.</desc>
    <defs></defs>
    <g id="desktop" stroke="none" stroke-width="1" fill="none" fill-rule="evenodd">
        <g id="catalog-content-1280" transform="translate(-1035.000000, -3492.000000)" fill="#C8A05F">
            <g id="Group-4-Copy-3" transform="translate(1019.000000, 3478.000000)">
                <g id="Group" transform="translate(16.000000, 14.000000)">
                    <path d="M4.07264286,49.575625 L4.07264286,55 L44.8266786,55 L44.8266786,11.5689063 L33.53325,0 L4.07264286,0 L4.07264286,29.1465625 L0.171642857,29.1465625 L0.171642857,45.6053125 L4.06089286,49.5876563 L4.07264286,49.575625 Z M33.6658571,1.3509375 L43.7809286,11.7115625 L33.6658571,11.7115625 L33.6658571,1.3509375 Z M4.91192857,0.859375 L32.8265714,0.859375 L32.8265714,12.5709375 L43.9873929,12.5709375 L43.9873929,54.140625 L4.91192857,54.140625 L4.91192857,45.8579688 L41.4510714,45.8579688 L41.4510714,29.1465625 L4.91192857,29.1465625 L4.91192857,0.859375 Z M1.01092857,30.0059375 L40.6117857,30.0059375 L40.6117857,44.9985937 L1.01092857,44.9985937 L1.01092857,30.0059375 Z M4.07264286,45.8579688 L4.07264286,48.3879688 L1.60346429,45.8579688 L4.07264286,45.8579688 Z" id="Shape" fill-rule="nonzero"></path>
                    <path d="M16.932,42 L15.588,42 C15.4853328,42 15.4048336,41.9731669 15.3465,41.9195 C15.2881664,41.8658331 15.2403335,41.8063337 15.203,41.741 L12.515,37.527 C12.4776665,37.6390006 12.4356669,37.7346663 12.389,37.814 L9.771,41.741 C9.7243331,41.8063337 9.67416694,41.8658331 9.6205,41.9195 C9.56683307,41.9731669 9.4933338,42 9.4,42 L8.14,42 L11.591,36.848 L8.28,31.969 L9.631,31.969 C9.72900049,31.969 9.8013331,31.9853332 9.848,32.018 C9.8946669,32.0506668 9.93666648,32.097333 9.974,32.158 L12.592,36.176 C12.6246668,36.0779995 12.6736663,35.9706672 12.739,35.854 L15.21,32.186 C15.2473335,32.1206663 15.2916664,32.0681669 15.343,32.0285 C15.3943336,31.9888331 15.4549996,31.969 15.525,31.969 L16.82,31.969 L13.495,36.785 L16.932,42 Z M24.358,40.859 L24.358,42 L18.667,42 L18.667,31.969 L20.018,31.969 L20.018,40.859 L24.358,40.859 Z M31.287,33.537 C31.2449998,33.6070003 31.1995003,33.6594998 31.1505,33.6945 C31.1014998,33.7295002 31.0420004,33.747 30.972,33.747 C30.8926663,33.747 30.7993339,33.7073337 30.692,33.628 C30.5846662,33.5486663 30.4505008,33.4611671 30.2895,33.3655 C30.1284992,33.2698329 29.9348345,33.1823337 29.7085,33.103 C29.4821656,33.0236663 29.2080016,32.984 28.886,32.984 C28.5826652,32.984 28.3155012,33.0248329 28.0845,33.1065 C27.8534989,33.1881671 27.6598341,33.2989993 27.5035,33.439 C27.3471659,33.5790007 27.2293338,33.7434991 27.15,33.9325 C27.0706663,34.1215009 27.031,34.3256656 27.031,34.545 C27.031,34.8250014 27.0998327,35.0571657 27.2375,35.2415 C27.3751674,35.4258343 27.5571656,35.5833327 27.7835,35.714 C28.0098345,35.8446673 28.2664986,35.9578329 28.5535,36.0535 C28.8405015,36.1491671 29.1344985,36.2483328 29.4355,36.351 C29.7365015,36.4536672 30.0304986,36.569166 30.3175,36.6975 C30.6045015,36.825834 30.8611656,36.987999 31.0875,37.184 C31.3138345,37.380001 31.4958327,37.6203319 31.6335,37.905 C31.7711674,38.1896681 31.84,38.5396646 31.84,38.955 C31.84,39.3936689 31.7653341,39.8054981 31.616,40.1905 C31.4666659,40.5755019 31.2485015,40.9103319 30.9615,41.195 C30.6744986,41.4796681 30.3221688,41.7036659 29.9045,41.867 C29.4868313,42.0303342 29.0120027,42.112 28.48,42.112 C27.8266634,42.112 27.2340027,41.9941678 26.702,41.7585 C26.1699974,41.5228322 25.7150019,41.2043353 25.337,40.803 L25.729,40.159 C25.7663335,40.1076664 25.8118331,40.0645002 25.8655,40.0295 C25.919167,39.9944998 25.9786664,39.977 26.044,39.977 C26.104667,39.977 26.1734996,40.0014998 26.2505,40.0505 C26.3275004,40.0995002 26.4149995,40.161333 26.513,40.236 C26.6110005,40.310667 26.7229994,40.3923329 26.849,40.481 C26.9750007,40.5696671 27.1184992,40.651333 27.2795,40.726 C27.4405008,40.800667 27.6236657,40.8624998 27.829,40.9115 C28.0343344,40.9605002 28.2653321,40.985 28.522,40.985 C28.8440016,40.985 29.1309988,40.9406671 29.383,40.852 C29.6350013,40.7633329 29.8484991,40.6385008 30.0235,40.4775 C30.1985009,40.3164992 30.3326662,40.1240011 30.426,39.9 C30.5193338,39.6759989 30.566,39.4263347 30.566,39.151 C30.566,38.8476651 30.4971674,38.5991676 30.3595,38.4055 C30.2218327,38.2118324 30.0410011,38.0496673 29.817,37.919 C29.5929989,37.7883327 29.3363348,37.6775005 29.047,37.5865 C28.7576652,37.4954995 28.4636682,37.4021671 28.165,37.3065 C27.8663319,37.2108329 27.5723348,37.1000006 27.283,36.974 C26.9936652,36.8479994 26.7370011,36.6846677 26.513,36.484 C26.2889989,36.2833323 26.1081674,36.0325015 25.9705,35.7315 C25.8328327,35.4304985 25.764,35.0583356 25.764,34.615 C25.764,34.2603316 25.8328327,33.917335 25.9705,33.586 C26.1081674,33.254665 26.308832,32.960668 26.5725,32.704 C26.836168,32.447332 27.1604981,32.2420008 27.5455,32.088 C27.9305019,31.9339992 28.3726642,31.857 28.872,31.857 C29.4320028,31.857 29.9418311,31.9456658 30.4015,32.123 C30.861169,32.3003342 31.2659983,32.5569983 31.616,32.893 L31.287,33.537 Z" id="XLS"></path>
                </g>
            </g>
        </g>
    </g>
</svg>