<svg xmlns="http://www.w3.org/2000/svg" width="86" height="46" viewBox="0 0 86 46">
    <path fill="#C59850" d="M78.981 10.505a6.962 6.962 0 0 0-2.89.633v-.706C76.091 4.674 71.434.005 65.687 0H19.87C14.133.02 9.493 4.685 9.493 10.432v.598a7.05 7.05 0 0 0-8.959 3.937 7.072 7.072 0 0 0 3.585 9.119v16.847c0 .5.404.905.903.905h4.705v3.257c0 .5.405.905.904.905h5.789a.903.903 0 0 0 .758-.407l2.439-3.755h45.871l2.439 3.755a.903.903 0 0 0 .758.407h5.79a.904.904 0 0 0 .903-.905v-3.257h5.418a.904.904 0 0 0 .904-.905V24.086a7.07 7.07 0 0 0 4.162-7.892 7.057 7.057 0 0 0-6.872-5.68l-.009-.01zM11.3 10.432c.005-4.755 3.851-8.608 8.598-8.613h45.79c4.746.005 8.593 3.858 8.598 8.613v1.9a7.117 7.117 0 0 0-2.33 4.877v8.062H13.873v-8.143a7.053 7.053 0 0 0-2.574-5.04v-1.656zm60.638 16.649v4.976H13.882v-4.976h58.055zM15.94 44.199h-4.407v-2.352h5.933l-1.526 2.352zm57.63 0h-4.407l-1.535-2.352h5.933l.01 2.352zm6.964-21.606a.905.905 0 0 0-.642.905v16.53H5.925V23.452a.905.905 0 0 0-.641-.904 5.258 5.258 0 0 1-3.627-5.931 5.25 5.25 0 0 1 5.421-4.345 5.252 5.252 0 0 1 4.98 4.847V32.88c0 .5.404.905.903.905H72.84a.904.904 0 0 0 .903-.905V17.173a5.243 5.243 0 0 1 4.916-4.924 5.24 5.24 0 0 1 5.467 4.302 5.249 5.249 0 0 1-3.61 5.951l.019.09z"/>
</svg>
