<svg xmlns="http://www.w3.org/2000/svg" width="57" height="71" viewBox="0 0 57 71">
    <path fill="#C59850" fill-rule="nonzero" d="M55.218 0H.833A.833.833 0 0 0 0 .832v5.411c0 .459.373.832.833.832h6.143v5.716c0 .459.373.833.833.833h.77v24.69H2.592a.833.833 0 0 0-.833.832v24.188c0 .459.373.832.833.832h13.637a.833.833 0 0 0 .833-.832V39.146a.832.832 0 0 0-.833-.832h-5.986v-24.69h.77a.834.834 0 0 0 .833-.833V7.075h13.498v5.716c0 .459.373.833.832.833h.77v14.44h-5.737a.833.833 0 0 0-.833.832v24.187c0 .46.373.833.833.833h13.637c.46 0 .832-.373.832-.833V28.896a.832.832 0 0 0-.832-.832h-6.235v-14.44h.77a.833.833 0 0 0 .832-.833V7.075h13.498v5.716c0 .459.373.833.832.833h.77v31.349h-5.987a.832.832 0 0 0-.832.832v24.188c0 .459.373.832.832.832H52.965a.833.833 0 0 0 .832-.832V45.804a.832.832 0 0 0-.832-.832h-5.99V13.624h.77a.833.833 0 0 0 .832-.833V7.075h6.642c.46 0 .832-.373.832-.832V.832A.833.833 0 0 0 55.218 0zm-43.83 62.502H7.431v-6.324h3.957v6.324zm-2.555-9.355c-.067-.659.25-1.366.587-1.904.444.663.633 1.282.559 1.848-.065.506-.337.906-.583 1.172-.336-.337-.522-.707-.563-1.116zm6.564 9.355h-2.344v-7.157a.833.833 0 0 0-.832-.832h-.979c.18-.34.324-.733.386-1.182.178-1.301-.363-2.645-1.606-3.996a.83.83 0 0 0-1.208-.019c-.076.077-1.843 1.913-1.638 3.99.042.432.184.829.381 1.206h-.958a.833.833 0 0 0-.833.832v7.157H3.422V43.555h11.974v18.947h.001zm0-22.524v1.913H3.423v-1.913h11.974zM8.641 11.959V7.075h1.539v4.884H8.641zm21.362 40.292h-3.957v-6.324h3.957v6.324zm-2.554-9.373c-.067-.659.25-1.367.587-1.904.444.663.633 1.282.56 1.848-.065.506-.337.906-.583 1.171-.337-.338-.523-.706-.564-1.115zm6.563 9.373h-2.344v-7.156a.832.832 0 0 0-.833-.832h-.989c.186-.345.335-.744.398-1.202.177-1.301-.363-2.645-1.606-3.995a.83.83 0 0 0-.599-.269.909.909 0 0 0-.608.25c-.076.077-1.844 1.912-1.639 3.99.043.438.188.843.39 1.226h-.968a.832.832 0 0 0-.832.832v7.156h-2.343V33.198h11.973v19.053zm0-22.523v1.805H22.039v-1.805h11.973zm-7.005-17.769V7.075h1.539v4.884h-1.539zM48.12 69.16h-3.957v-6.325h3.957v6.325zm-2.507-9.355c-.067-.659.249-1.366.587-1.904.444.663.634 1.282.56 1.848-.065.506-.337.906-.583 1.172-.336-.337-.523-.706-.564-1.116zm6.515 9.355h-2.344v-7.157a.833.833 0 0 0-.832-.832h-.93c.18-.34.324-.733.386-1.183.178-1.3-.363-2.644-1.606-3.995a.827.827 0 0 0-.599-.269.907.907 0 0 0-.608.25c-.076.077-1.843 1.913-1.639 3.99.044.432.185.829.382 1.206h-1.007a.833.833 0 0 0-.832.832v7.157h-2.344V50.214h11.973V69.16zm0-22.523v1.913H40.155v-1.913h11.973zm-6.755-34.678V7.075h1.538v4.884h-1.538zm9.013-6.549H1.665V1.664h52.721V5.41z"/>
</svg>
