<svg xmlns="http://www.w3.org/2000/svg" width="62" height="62" viewBox="0 0 62 62">
    <g fill="#C59850" fill-rule="nonzero">
        <path d="M61 56h-1V34a4 4 0 0 0-4-4 2 2 0 0 1-2-2 4 4 0 0 0-4-4 2 2 0 0 1-2-2 4 4 0 0 0-3.032-3.868C44.63 8.06 38.5 0 31 0S17.37 8.06 17.032 18.132A4 4 0 0 0 14 22a2 2 0 0 1-2 2 4 4 0 0 0-4 4 2 2 0 0 1-2 2 4 4 0 0 0-4 4v22H1a1 1 0 0 0-1 1v4a1 1 0 0 0 1 1h60a1 1 0 0 0 1-1v-4a1 1 0 0 0-1-1zm-3-16H4v-2h54v2zM4 42h24v10H4V42zm26 0h2v10h-2V42zm4 0h24v10H34V42zm12-20a4 4 0 0 0 4 4 2 2 0 0 1 2 2 4 4 0 0 0 4 4 2 2 0 0 1 2 2v2H37.215c4.344-2.938 7.4-8.838 7.738-15.747A1.992 1.992 0 0 1 46 22zM31 2c6.617 0 12 7.626 12 17 0 9.374-5.383 17-12 17s-12-7.626-12-17c0-9.374 5.383-17 12-17zM6 32a4 4 0 0 0 4-4 2 2 0 0 1 2-2 4 4 0 0 0 4-4c.002-.73.404-1.4 1.047-1.747.334 6.909 3.394 12.809 7.738 15.747H4v-2a2 2 0 0 1 2-2zM4 54h54v2H4v-2zm56 6H2v-2h58v2z"/>
        <path d="M24 44h2v6h-2zM36 44h2v6h-2zM31 34c5.514 0 10-6.729 10-15S36.514 4 31 4s-10 6.729-10 15 4.486 15 10 15zm0-28c4.411 0 8 5.832 8 13s-3.589 13-8 13-8-5.832-8-13 3.589-13 8-13z"/>
        <path d="M25.293 13.293l4-4 1.415 1.414-4 4zM27.293 17.292l4-4 1.415 1.414-4 4z"/>
    </g>
</svg>
