<svg xmlns="http://www.w3.org/2000/svg" width="78" height="69" viewBox="0 0 78 69">
    <g fill="#C59850" fill-rule="nonzero">
        <path d="M74.91 29.001a1.106 1.106 0 0 0-.35-.174c-.264-.076-26.388-7.599-28.033-8.124a1.097 1.097 0 0 0-.667 0L4.285 33.81c-.449.14-.757.551-.769 1.02-.01.47.28.892.722 1.054 2.287.833 28.894 11.053 29.653 11.39 3.755 1.745 5.463 3.085 4.346 5.641-.002.002-.002.002-.002.005-.002 0-.002.002-.004.004-.2.215-1.307.547-3.988-.524-4.598-1.831-28.647-11.57-28.89-11.667a1.133 1.133 0 0 0-.225-.064c-1.16-.197-3.384-.007-4.36 2.006-.591 1.217-.572 2.49.06 3.687.208.394.56.892 1.267 1.43-.524.32-1 .78-1.326 1.455-.595 1.215-.574 2.487.057 3.686.397.752 1.277 1.876 4.246 2.938L34.18 68.245c.09.041 1.546.703 3.526.703a8.22 8.22 0 0 0 3.354-.697l33.213-14.02c.56-.236.822-.88.583-1.436a1.101 1.101 0 0 0-1.441-.584L40.187 66.24c-2.56 1.135-5.055.029-5.11.005L5.877 53.83c-1.175-.42-2.666-1.095-3.104-1.924-.303-.573-.311-1.113-.024-1.704.495-1.018 1.926-.815 2.008-.801.166.028.327.012.48-.033L34.18 61.672c.09.043 1.546.703 3.526.703a8.22 8.22 0 0 0 3.354-.698L74.273 47.66c.56-.237.822-.88.583-1.438a1.1 1.1 0 0 0-1.441-.582L40.187 59.666c-2.56 1.134-5.055.029-5.11.005l-29.2-12.414c-1.175-.42-2.668-1.095-3.104-1.92-.303-.573-.31-1.116-.024-1.706.43-.886 1.568-.848 1.906-.814 1.93.781 24.345 9.856 28.77 11.62 2.383.949 4.24 1.153 5.519.598a2.56 2.56 0 0 0 .993-.73c2.653-1.12 6.575-2.692 10.732-4.357 13.66-5.473 23.447-9.462 24.959-10.99 1.566-1.583 2.293-3.282 2.156-5.05-.224-2.912-2.766-4.828-2.873-4.907zm-.849 8.418c-1.305 1.32-15.092 6.841-24.214 10.494-3.334 1.337-6.528 2.615-9.039 3.653.096-3.45-3.754-5.24-5.988-6.28-.653-.303-19.38-7.485-26.857-10.334l38.233-12.055c3.32.999 24.96 7.234 27.537 7.976.43.368 1.735 1.614 1.859 3.204.084 1.107-.43 2.231-1.53 3.342z"/>
        <path d="M56.634 30.812c-1.094.487-2.331 1.184-3.64 1.922-2.539 1.43-5.368 3.025-7.633 3.366.082-.454.216-.965.346-1.465.496-1.902 1.114-4.27-.494-5.788-.515-.488-1.455-1.034-2.987-.853-3.757.44-9.01 5.02-9.987 6.508a1.095 1.095 0 0 0 .319 1.518c.508.33 1.19.19 1.523-.32.675-1.028 5.43-5.182 8.401-5.529.833-.1 1.123.178 1.217.267.666.629.266 2.162-.122 3.645-.31 1.188-.603 2.31-.467 3.315l.122.895.904.054c.125.008.25.012.377.012 2.966 0 6.463-1.97 9.563-3.716 1.265-.712 2.458-1.384 3.456-1.829.554-.247.802-.894.554-1.448a1.1 1.1 0 0 0-1.452-.554zM34.113 17.029h2.2v-5.018h5.034V9.82h-5.034V4.802h-2.2V9.82H29.08v2.192h5.034zM19.986 22.207h2.201v-3.173h3.184v-2.192h-3.184v-3.174h-2.2v3.174h-3.185v2.192h3.184zM24.272 7.735h2.2v-2.51h2.52V3.034h-2.52V.523h-2.2v2.51h-2.52v2.193h2.52z"/>
    </g>
</svg>
