<svg xmlns="http://www.w3.org/2000/svg" width="62" height="62" viewBox="0 0 62 62">
    <g fill="#C59850" fill-rule="nonzero">
        <path d="M59.926 32c.044-.668.074-1.336.074-2C60 13.458 46.542 0 30 0S0 13.458 0 30c0 16.276 13.032 29.557 29.208 29.98-.078.28-.146.564-.194.856L28.819 62H57.18l-.194-1.164a8.147 8.147 0 0 0-3.705-5.575C58.349 53.485 62 48.667 62 43V32h-2.074zM30.05 57.999L30 58C14.561 58 2 45.439 2 30S14.561 2 30 2s28 12.561 28 28c0 .664-.033 1.333-.08 2h-5.021c.06-.676.101-1.346.101-2C53 17.317 42.683 7 30 7S7 17.317 7 30a22.93 22.93 0 0 0 21.641 22.942 13.007 13.007 0 0 0 4.078 2.319 8.139 8.139 0 0 0-2.669 2.738zm-3.501-7.301A20.928 20.928 0 0 1 9 30C9 18.421 18.421 9 30 9s21 9.421 21 21c0 .651-.045 1.323-.111 2H24v11c0 2.883.955 5.54 2.549 7.698zM31.298 60a6.159 6.159 0 0 1 5.785-4h11.834a6.159 6.159 0 0 1 5.785 4H31.298zM60 43c0 6.065-4.935 11-11 11H37c-6.065 0-11-4.935-11-11v-9h34v9z"/>
        <path d="M32.646 50.875l.971-1.748A7.016 7.016 0 0 1 30 43v-7h-2v7a9.016 9.016 0 0 0 4.646 7.875zM37 50a6.949 6.949 0 0 1-1.752-.222l-.502 1.936A8.98 8.98 0 0 0 37 52v-2zM30 11c-8.935 0-16.554 6.077-18.529 14.778l1.951.443C15.188 18.437 22.006 13 30 13v-2zM11 30h2c0-.631.035-1.267.104-1.891l-1.988-.219A19.292 19.292 0 0 0 11 30z"/>
    </g>
</svg>
