<?xml version="1.0" encoding="utf-8"?>
<!-- Generator: Adobe Illustrator 21.0.0, SVG Export Plug-In . SVG Version: 6.00 Build 0)  -->
<svg version="1.1" id="Слой_1" xmlns="http://www.w3.org/2000/svg" xmlns:xlink="http://www.w3.org/1999/xlink" x="0px" y="0px"
	 viewBox="0 0 800 600" style="enable-background:new 0 0 800 600;" xml:space="preserve">
<style type="text/css">
	.st0{fill:url(#SVGID_1_);}
</style>
<radialGradient id="SVGID_1_" cx="372.2019" cy="293.4843" r="264.5233" gradientTransform="matrix(1.0696 0 0 1.0864 -2.3934 -11.4686)" gradientUnits="userSpaceOnUse">
	<stop  offset="5.598370e-03" style="stop-color:#6E3B00"/>
	<stop  offset="8.427000e-02" style="stop-color:#6F5928"/>
	<stop  offset="0.6622" style="stop-color:#AF9253"/>
	<stop  offset="1" style="stop-color:#A18148"/>
</radialGradient>
<path class="st0" d="M756.9,352.2c-0.5-0.5-1.3-0.3-2.9,1.1c-5,4.6-11.2,9.5-16.3,13c-11.7,8.1-20.8,10-24.2,10
	c-4,0-6.1-2.2-6.1-6.2c0-1.6,0.6-4.1,1.6-6.2c6.1-1.6,15.2-4.9,22.9-8.7c8-4.1,16.5-9.5,17.1-16.5c0.2-3.5-1.9-7.3-7.7-7.3h-0.3
	c-7.2,0-15.2,3.5-22.9,7.6c-5.1,2.7-10.1,6-13.1,8.1c-2.6,2-4.6,3.5-6.6,5.2c-0.2,0.2-0.4,0.3-0.6,0.5c-4.6,4.1-10.1,8.9-17.6,13.5
	c-4.3,2.7-8.8,4.9-11.7,5.9c3.2-2.2,6.9-7.3,8.5-11.1c3.2-7.6,2.6-14.6,2.4-22.2c0-3-0.3-5.2,1.9-7.3c1.3-1.4,4-2.4,6.4-4.1
	c3.4-2.2,7.4-5.7,1.3-5.7c-1.9,0-4.8,0.8-7.7,3c-1.9,1.4-3.8,3.5-4.3,4.6c-6.1,5.4-10.9,9.5-15.7,13c-4.3,3.2-8.5,5.9-11.2,7.6
	c-1.4,0.8-1.6,1.4-1.4,2.2c0.6,0.8,1.6,0.3,2.7-0.3c2.1-1.1,6.4-3.8,10.1-6.5c4.5-3.2,10.1-7.6,12.8-10.3v0.3
	c-2.9,3.5-7.7,19.7-12.5,27.6c-5.9,10.3-12.5,14.6-17.9,14.6c-4.8,0-8-2.4-7.7-6.8c0.3-3.8,3.7-6.8,6.1-8.1c3.5-1.9,5.3-4.1,5.9-6.8
	c0.5-3-1.4-5.7-5.1-6c-4.2-0.2-8.3,2.6-10.9,6.8c-2.5,2.2-5.3,4.7-8.5,7.3c-4.3,3.5-9.3,6.8-12,8.1c-2.6,1.3-4.8,1.9-6.1,0.8
	c-1-0.8-0.8-3.3,0.8-6c1.9-3.2,5.3-8.1,9.9-13.8c5.3-7,9.3-11.4,14.1-17.3c3.2-3.8,0.5-4.3-4-4.3c-4,0-5.6,1.4-7.7,3
	c-8.5,6.8-16,13.5-28.7,23.5c-8.3,6.5-14.1,10.8-20,14.1c-2.7,1.3-5.1,1.6-6.1,0.5c-0.8-0.8-0.8-2.7,0.3-4.9c1.3-3,5.6-8.9,9.9-14.6
	c5.3-6.8,10.4-13,13.9-16.8c3.2-3.5,2.7-4.3-2.9-4.3c-5.1,0-8.5,1.1-15.5,6c-6.4,4.3-16,12.4-18.9,15.2c-0.2,0.2-0.4,0.4-0.6,0.6
	c-2.8,2.5-4.9,4.4-8.2,6.7c-3.7,2.7-6.6,4.1-9,4.6c-1.1,0.3-4,0.5-5.1,0c8.3-7.6,14.4-15.4,15.2-21.9c0.5-4.1-1.1-7.3-3.2-9.5
	c-1.1-1.1-2.6-2.2-3.7-1.6c-0.8,0.5,0.3,1.4,0.3,4.3c0,1.4,0,4.3-0.8,6.2c-1.9,0.8-5.6,3-8.5,7c-3.5,4.6-4.5,8.6-4.8,11.4
	c-8.3,9.2-18.9,16.5-24.8,16.5c-2.9,0-4-1.9-3.7-4.6c0.5-5.4,7.7-16,15.5-23.8c7.4-7.3,12.8-11.9,19.2-14.9c2.1-1.1,2.9-1.1,2.9-1.6
	c0-1.1-2.1-1.1-4-1.1c-6.1,0.3-14.4,3.3-22.1,7.3c-5.6,3-9.3,5.4-12.8,7.8c-2.6,1.9-6.4,4.9-8.2,6.8c-0.1,0.1-0.2,0.2-0.3,0.3
	c-4,3.5-11.4,10-15.1,12.7c-8.3,6-14.4,8.4-18.9,8.4c-2.6,0-5-1.4-5-4.6c0-10,17.1-32.5,29-47.9c6.1-0.3,14.9-0.3,24.3-0.3
	c1.8,0,5.9,0.3,5.9-0.8c0-0.8-4-1.1-6.1-1.4c-4.7-0.5-14.1-0.8-21.3-1.1c3.7-5.1,23.3-26.9,30.2-32.1c6.7-4.9,15.7-9.2,24.3-9.2
	c8.5,0,12.8,3.2,14.9,7.6c0.8,1.6,0.8,2.7,1.3,2.4c0.8-0.3,1-1.9,0.3-4.1c-1.3-3.8-6.9-8.7-16.8-8.7c-8.8,0-19.5,4.1-26.7,8.1
	c-7.2,4-13.3,7.5-25.4,18.3c-9,8-13.6,12.5-17.8,17.6h-38.1c5.1-6.5,10.7-14.6,18.6-24.6c6.7-8.7,12.5-14.9,19.2-21.4
	c2.6-2.7,5.1-3.8,3.5-4.9c-1.9-1.1-5.1,1.1-8.8,3.3c-8.5,4.9-45,0-63.1-0.5c-40.5-1.1-60.7,18.4-59.9,43
	c0.5,12.2,9.3,24.1,22.9,28.1c1.9,0.5,4.8,0.5,5-0.3c0.3-0.8-0.8-0.5-3.2-1.3c-13.1-4.3-19.5-16.8-19.5-26c0-26.8,27.2-39,58.1-37.9
	c28.8,1.1,46.9,1.6,57-2.2c-10.9,7.3-32,27.6-46.1,44.9c-7.7,0.3-14.9,0.5-19.7,1.1c-3.7,0.3-7.4,0.5-7.7,1.6
	c-0.5,1.6,3.2,1.3,5.1,1.3c9.3-0.3,15.4-0.5,19.7-0.5c-15.2,19.8-41,57.6-69.5,57.6c-5.6,0-12.8-2.2-13.3-7.8c0-2.4,1.1-4.6,3.5-6.8
	c2.4-2.2,4-4.9,4.2-8.1c0.5-5.7-3.2-9.7-8.5-10c-8-0.3-13.9,6.8-13.9,14.1c0,15.4,13.9,21.1,26.6,21.1c37.8,0,61.5-27.9,87.4-60.1
	l37.6-0.3c-6.7,8.1-25.3,31.1-25.3,45.2c0,7.9,5.1,11.9,12.8,11.9c10.4,0,20.8-7.9,24.8-10.8c4.3-3.3,12-10,15.5-13.3
	c0.1-0.1,0.1-0.1,0.2-0.2c0,0,0,0,0.1,0c1.9-1.6,2.9-2.7,4.8-4.3l0.3,0.3c-5.1,5.4-8.3,11.9-8.5,17.3c-0.3,7.8,4.8,11.9,13.1,11.9
	c10.9,0,23.4-7.8,30.4-13.3c1.6,1.1,4.8,1.1,7.2,0.5c2.7-0.5,5.8-1.9,10.1-4.9c3.4-2.4,6.1-4.9,8.5-7c0.4-0.3,0.7-0.7,1.1-1
	c2.5-2.2,5.2-4.5,8.8-7.4c4-3.2,9.6-7.3,11.5-8.1c-8.3,7.8-13.6,14.3-18.9,21.6c-2.4,3.2-4.8,7.3-5,11.1c-0.3,4.9,3.2,7.6,8.8,7.6
	c8,0,17.6-6.5,28.5-14.9c6.9-5.4,16-12.7,21.3-17l0.3,0.3c-4.5,4.6-9.6,9.7-12.5,14.1c-2.4,3.5-4.3,7.3-4.3,11.1
	c0,4,2.9,6.5,8.3,6.5c8.8,0,18.1-7,22.9-10.8c2.8-2.2,5.6-4.6,8.2-6.8c-0.2,0.7-0.4,1.4-0.5,2.2c-1.1,7.6,1.9,16.2,16,16.2
	c8,0,17.6-2.7,22.4-4.9c5.1-2.2,10.9-5.1,16.8-9.2c5-3.5,9.4-7.1,12.3-9.7c0.3-0.2,0.5-0.4,0.8-0.7c0.2-0.2,0.4-0.4,0.6-0.5
	c0.1-0.1,0.1-0.1,0.2-0.1c1.3-1.2,2.5-2.3,3-2.8l0.3,0.3c-5.3,6.5-7.7,11.4-8,16.8c-0.2,7,4.3,10.8,14.1,10.8
	c9.1,0,18.9-3.5,30.1-11.1c4.8-3.2,13.3-10.3,16.8-13.5C756.3,354.4,757.4,353,756.9,352.2z M724.7,342.7c5.3-5.2,9.3-7.8,11.7-7.8
	c2.4,0,3.5,1.4,3.2,3.8c-0.3,3.8-4.3,9.5-10.9,14.1c-5.6,3.8-12.8,6.8-18.1,8.1C713.7,355.5,720.4,346.8,724.7,342.7z M280,373.1
	c3.2-4.1,1.9-7-2.7-7c-4.8,0-8.8,1.3-10.1,5.1c-1.1,3.2-1.1,7.3,0.3,9.2C270.5,380.4,276.8,377.4,280,373.1z M249.7,368.5
	c6.6-5.4,11.5-9.7,14.9-13c1.9-1.9,2.9-3,2.4-3.8c-0.8-0.8-1.9,0.3-3.2,1.4c-2.9,2.7-7.5,6.8-12.8,11.1c-8.5,7-16,11.1-20.3,11.1
	c-2.1,0-3.4-1.3-3.4-3.5c0.3-10,14.7-29.2,28.5-46.8c12.5-16,31.7-37.1,44.5-50.6c6.1-6.2,8.5-10,10.1-13.5c1.3-3,1-7.3-0.8-6.8
	c-1.3,0.5,0.6,2.2-2.9,6.5c-3.2,4.3-8.8,8.7-17.9,12.5c-9.3,3.8-20.2,4.6-27.4,4.9c-5.1,0.3-12.8-0.3-19.4-1.4
	c1.3-1.6,2.4-2.7,3.7-4.3c3.7-4.3,4.2-6.5,0.3-7c-2.7-0.3-6.1,2.7-8.5,4.9c-1.9,1.6-3.7,3.5-5.1,4.9c-12-1.9-33-9.9-55.1-10.7
	c-41.6-1.6-65.8,14.9-68.5,40c-1.3,14.3,6.6,28.2,22.1,32.7c2.9,0.8,4.8,0.6,5.1-0.3c0.3-0.8-1.1-0.5-3.2-1.3
	c-17-6-20.2-19.5-18.1-30.3c5.1-24.3,33-35.4,62.1-35.4c23.2,0,40.5,5.6,53.3,8c-26.4,24.9-49.8,49.3-74.3,67.4
	c-28,21.1-63.9,37.9-86.9,37.9c-13.3,0-20.2-4.1-19.2-9.5c0.5-3,2.7-4.3,5.1-6.8c2.7-2.2,5.3-4.9,5.9-9.2c0.5-5.4-4-9.2-10.1-9.2
	c-9.6,0-16.3,9.5-16,18.4C35.2,382,51.2,386,65.8,386h0.3c27.7,0,64.5-18.4,90.8-38.4c23.7-17.6,58.3-52.5,68.2-62.2h0.3
	c-14.4,18.1-41,63.6-56.5,85.5c-1.6,2.2-2.9,5.4-0.8,7.3c2.4,1.6,3.7-0.5,6.9-3.5c15.2-14.6,30.6-28.7,50.9-46.5
	c17.6-15.4,35.7-30.6,53.5-44.1h0.3c-13.6,11.6-33.6,33.8-44.2,47.9c-11.5,14.9-20,27.6-19.7,37.4c0.3,7.8,5.3,10.3,12,10
	C235.3,379,244.3,372.8,249.7,368.5z M244.9,308.4c-18.4,15.2-39.7,34.1-50.1,43.6c13.1-17.6,32.3-53.8,45.3-72.8
	c6.6,0.8,14.4,1.4,20.5,1.4c8-0.3,17.8-1.4,25.6-4.3v0.3C272.3,286.2,259.5,296.2,244.9,308.4z M479.7,446.9
	c-24.6,2.1-54.9,7.3-77,11.5c-15.5-2.5-33.4-5.4-53.5-8.4c-56.8-8.5-69-2-96.1-0.8c0,0-2.2,0.6-1.4,1.1c0.7,0.5,1.2,0.5,5.7,0.4
	c3.7-0.1,15-2.5,39.7-3.5c8.3-0.3,15.3-0.7,49.9,4.2c7.7,1.1,26.9,5.1,45.9,8.9c-7.6,1.5-13.6,2.7-17.1,3.3c-3,0.6-6.3,1.1-9.8,1.7
	c-24-6.9-49.6-10-66.5-8.2c-20.7,2.3-20.6,9.7-9.5,13.3c8.8,2.8,24.9,2.1,42.6,0.7c6.5-0.5,17.7-2.3,30.9-4.6
	c1.3,0.4,2.7,0.8,3.9,1.2c10.7,3.4,36,13.7,46,14.2c10,0.4,13.6-0.3,14.2-1.1c0.6-0.8-1.7-0.5-1.7-0.5s-4.2,1.3-12.5,0.5
	c-8.3-0.8-14.3-3.6-30.6-9.8c-4.9-1.8-9.9-3.5-15-5c8.9-1.5,18.5-3.2,28.2-4.9c15.3,3,30.1,5.9,38.6,7c31.4,4,48.8,6.2,72.8,3.9
	c24.5-2.4,27.6-7.2,31.3-11.8C546.6,449.7,519.2,443.6,479.7,446.9z M330.5,470.3c-8.2,0.8-33.4,1.4-37.4-3.7
	c-3.5-4.5,7.4-8.6,33.6-6.5c12,1,24.7,3.3,34.9,6C350.5,467.8,338.7,469.5,330.5,470.3z M527.8,459.9c-6.7,5.8-33.6,9.6-71.6,6.4
	c-9.4-0.8-26.5-3.5-49.6-7.2c10.4-1.7,20.4-3.3,29.2-4.5c20.4-2.7,29.9-4.7,51.8-5.7C510.3,447.9,535,453.6,527.8,459.9z
	 M454.2,169.3c-0.5,0-0.9,0.4-0.9,0.9c0,0.3,0.1,0.5,0.3,0.7c0-0.1-0.1-0.2-0.1-0.3c0-0.5,0.4-0.9,0.9-0.9c0.2,0,0.5,0.1,0.6,0.2
	C455,169.5,454.6,169.3,454.2,169.3z M420.7,159.4c0.8,0,1.5-0.7,1.5-1.5c0-0.8-0.7-1.5-1.5-1.5c-0.8,0-1.5,0.7-1.5,1.5
	C419.2,158.7,419.9,159.4,420.7,159.4z M420.7,156.7c0.6,0,1.1,0.5,1.1,1.1c0,0.3-0.1,0.5-0.2,0.7c0-0.1,0-0.2,0-0.3
	c0-0.6-0.5-1.1-1.1-1.1c-0.4,0-0.7,0.2-0.9,0.4C419.7,157.1,420.2,156.7,420.7,156.7z M404.7,161c-0.7-1.1-3.9-7.9,0.1-4.8
	c1.9,1.4,2.5,5.7,2.6,6.1c0.6-0.6,1.7-1.1,2.9-1.3c1.3-0.3,2.5-0.1,3.3,0.2l0.2,0c0,0-1-4.5,0.3-6.7c2.6-4.3,2,3.2,1.7,4.5
	c4.9-5.7,0-15.5-4.6-5.6c-0.2-7.8-1.2-10.3-4.7-13.8c-2.1,4.5-2.1,7.2,0.4,14.5C399.3,146.5,398.1,157.4,404.7,161z M409.5,158.6
	c-5.5-17-2.6-17.1-2.6-17.1l3.6,18.2c-0.7-0.1-2.3,0.6-2.3,0.6c-0.4-3.8-5.4-7.6-5.4-7.6C406.2,153.9,409.5,158.6,409.5,158.6z
	 M416.5,176c-0.4,0-0.6,0.3-0.7,0.6c0.1-0.1,0.3-0.2,0.5-0.2c0.4,0,0.7,0.3,0.7,0.7v0.1c0.1-0.1,0.2-0.3,0.2-0.5
	C417.2,176.3,416.9,176,416.5,176z M406.2,139.2c0.8,0,1.5-0.7,1.5-1.5c0-0.8-0.7-1.5-1.5-1.5c-0.8,0-1.5,0.7-1.5,1.5
	C404.7,138.5,405.4,139.2,406.2,139.2z M406.2,136.6c0.6,0,1.1,0.5,1.1,1.1c0,0.3-0.1,0.5-0.2,0.7c0-0.1,0-0.2,0-0.3
	c0-0.6-0.5-1.1-1.1-1.1c-0.4,0-0.7,0.2-0.9,0.4C405.2,136.9,405.7,136.6,406.2,136.6z M400.6,163.8c0.8,0,1.5-0.7,1.5-1.5
	c0-0.8-0.7-1.5-1.5-1.5c-0.8,0-1.5,0.7-1.5,1.5C399.1,163.1,399.7,163.8,400.6,163.8z M399.6,162.3c0-0.6,0.4-1,1-1c0.6,0,1,0.5,1,1
	c0,0.1,0,0.2-0.1,0.3c-0.1-0.5-0.5-0.9-1-0.9c-0.4,0-0.8,0.3-0.9,0.7V162.3z M487.8,147.8c0.8,0.2,1.6-0.3,1.8-1.1
	c0.2-0.8-0.3-1.6-1-1.8c-0.8-0.2-1.6,0.3-1.8,1.1C486.5,146.8,487,147.6,487.8,147.8z M488.5,145.3c0.6,0.2,0.9,0.8,0.8,1.4
	c-0.1,0.3-0.2,0.5-0.4,0.6c0-0.1,0.1-0.2,0.1-0.3c0.2-0.6-0.2-1.2-0.8-1.4c-0.3-0.1-0.7,0-0.9,0.2
	C487.4,145.4,487.9,145.2,488.5,145.3z M392.2,166.8c0,0,0.5,0.7,0.7,1c0.7-0.9,1.6-1.4,2.6-1.8c0,0-2.6-4.2-2.1-6.6
	c1-4.7,2.8,2.2,3,3.5c2.5-6.7-5-13.9-5.9-3.5c-2.9-7.6-4.6-9.2-9.8-11.3L392.2,166.8z M474.2,159.4c0.5,2.3-2.1,6.6-2.1,6.6
	c1,0.4,1.9,0.9,2.6,1.8c0.2-0.3,0.7-1,0.7-1l11.5-18.8c-5.2,2.2-6.9,3.8-9.8,11.3c-0.9-10.3-8.5-3.1-5.9,3.5
	C471.4,161.7,473.2,154.7,474.2,159.4z M379.6,147.9c0.8,0,1.5-0.7,1.5-1.5c0-0.8-0.7-1.5-1.5-1.5c-0.8,0-1.5,0.7-1.5,1.5
	C378.1,147.2,378.7,147.9,379.6,147.9z M379.6,145.3c0.6,0,1.1,0.5,1.1,1.1c0,0.3-0.1,0.5-0.2,0.7c0-0.1,0-0.2,0-0.3
	c0-0.6-0.5-1.1-1.1-1.1c-0.3,0-0.7,0.2-0.8,0.4C378.6,145.7,379,145.3,379.6,145.3z M407.8,177.6c-0.4,0-0.6,0.3-0.7,0.6
	c0.1-0.1,0.3-0.2,0.5-0.2c0.4,0,0.7,0.3,0.7,0.7v0.1c0.1-0.1,0.2-0.3,0.2-0.5C408.5,177.9,408.2,177.6,407.8,177.6z M394.8,167
	c-1,0.5-1.5,1.4-1.3,2c0.3,0.6,1.3,0.7,2.3,0.2c1-0.5,1.5-1.4,1.2-2C396.8,166.7,395.7,166.6,394.8,167z M471.8,169.2
	c1,0.5,2,0.4,2.3-0.2c0.3-0.6-0.3-1.5-1.3-2c-1-0.5-2-0.4-2.3,0.2C470.2,167.9,470.8,168.8,471.8,169.2z M471.7,173.3
	c-1.7-0.6-5.9-2.2-7.2-5.3c0,0-9.1,2.8-17.8-3.8c0,0-7,2.8-12.9,2.7c-5.9,0.2-12.9-2.7-12.9-2.7c-8.7,6.6-17.8,3.8-17.8,3.8
	c-1.3,3.1-5.5,4.7-7.2,5.3c0.5,1,1,2,1.5,3.2c11.4-5.2,32.5-6,36.4-6.1c3.9,0.1,24.9,0.9,36.4,6.1
	C470.7,175.3,471.2,174.2,471.7,173.3z M398.3,175L398.3,175L398.3,175L398.3,175z M398.2,174.8l-0.4-1.1c0,0,4.3-2,5.7-4.5
	c-0.1,0.2,2.9,0.6,5.7,0.4c0.2,0,0.4,0,0.6,0l0.3,1.7C402.9,172.7,399.3,174.2,398.2,174.8z M412.8,171.7c-0.8,0-1.4-0.7-1.4-1.5
	c0-0.8,0.7-1.5,1.4-1.5c0.8,0,1.4,0.7,1.4,1.5C414.3,171,413.6,171.7,412.8,171.7z M426.7,169.4c-4.1,0.2-7.6,0.6-10.7,0.9l-0.4-2.1
	c1.8-0.7,3.6-1.6,5.3-3c1.1,0.8,6,1.6,6,1.7L426.7,169.4z M429.4,169.3c-0.4,0-0.8,0.1-1.2,0.1v-2.2c0,0,0.5,0.1,1.2,0.2V169.3z
	 M432.1,169.2c-0.6,0-1.2,0-1.8,0v-1.7c0.5,0.1,1.1,0.1,1.8,0.2V169.2z M434.4,169.2c-0.4,0-0.9,0-1.4,0v-1.5c0.5,0,0.9,0,1.4,0
	V169.2z M437.2,169.3c-0.5,0-1.2,0-1.8-0.1v-1.5c0.6,0,1.2-0.1,1.8-0.2V169.3z M438.1,169.4v-1.9c0.4-0.1,0.7-0.2,1.1-0.3l0.1,2.3
	C439.3,169.5,438.8,169.4,438.1,169.4z M450.9,170.4c-3-0.4-6.4-0.7-10.3-1l-0.1-2.5c0,0,4.8-0.8,5.9-1.7h0c0,0,1.8,1.6,4.9,2.8
	L450.9,170.4z M454.2,171.7c-0.8,0-1.5-0.7-1.5-1.5c0-0.8,0.7-1.5,1.5-1.5c0.8,0,1.4,0.7,1.4,1.5C455.7,171,455,171.7,454.2,171.7z
	 M469.4,174.8c-1-0.6-4.4-2.1-12.5-3.5l0.3-1.7c0.5,0,0.9,0.1,1.4,0.1c2.9,0.2,5.5-0.3,5.3-0.6c1.4,2.4,5.9,4.6,5.9,4.6L469.4,174.8
	z M473.1,170.7c-1.2-0.3-5.8-1.6-6.8-5.3l-0.2-0.9l-0.9,0.4c0,0-9.4,3.9-17.9-4.3l-0.6-0.6l-0.6,0.6c0,0-3.2,3.5-12.3,3.7
	c-9.1-0.2-12.3-3.7-12.3-3.7l-0.6-0.6l-0.6,0.6c-8.5,8.2-17.8,4.3-17.9,4.3l-0.9-0.4l-0.2,0.9c-1,3.8-5.6,5-6.8,5.3
	c0.3,0.5,0.6,1,0.8,1.5c1.8-0.5,5.8-2,7.3-5.6c2.6,0.8,10.7,2.5,18.2-4.4c1.4,1.1,5.3,3.5,12.9,3.7c7.5-0.2,11.4-2.6,12.9-3.7
	c7.6,6.9,15.7,5.2,18.3,4.4c1.5,3.6,5.5,5.1,7.3,5.6C472.5,171.7,472.8,171.2,473.1,170.7z M459.5,163.4c0.1-0.7-0.9-1.5-2.3-1.8
	c-1.4-0.3-2.7,0.1-2.8,0.8c-0.1,0.7,0.9,1.5,2.3,1.8C458.1,164.4,459.4,164.1,459.5,163.4z M455.2,162.9c0,0.1,0,0.1,0,0.2
	c-0.2-0.2-0.3-0.4-0.2-0.6c0.1-0.5,0.9-0.8,1.9-0.7c0.9,0.1,1.5,0.5,1.6,1c-0.3-0.3-0.8-0.5-1.4-0.6
	C456.1,162.1,455.3,162.4,455.2,162.9z M441.7,175.9c0-0.4,0.3-0.7,0.7-0.7c0.2,0,0.4,0.1,0.5,0.2c0-0.3-0.3-0.6-0.7-0.6
	c-0.4,0-0.7,0.3-0.7,0.7c0,0.2,0.1,0.3,0.2,0.5C441.7,176,441.7,176,441.7,175.9z M438.2,161c0-2.5-8.7-2.5-8.7,0
	C429.4,163.4,438.2,163.4,438.2,161z M431.2,160.5c0.4-0.5,1.5-0.8,2.7-0.8c1.6,0,2.9,0.6,2.9,1.2c0,0.4-0.3,0.7-0.9,0.9
	c0.1-0.1,0.2-0.3,0.2-0.4c0-0.7-1.3-1.2-2.9-1.2C432.5,160.2,431.8,160.3,431.2,160.5z M410.9,164.1c1.4-0.3,2.5-1.1,2.3-1.8
	c-0.1-0.7-1.4-1.1-2.8-0.8c-1.4,0.3-2.5,1.1-2.3,1.8C408.2,164.1,409.4,164.4,410.9,164.1z M410.7,161.9c1-0.1,1.8,0.2,1.9,0.7
	c0,0.2-0.1,0.4-0.2,0.6c0-0.1,0-0.1,0-0.2c-0.1-0.5-0.9-0.8-1.9-0.7c-0.6,0.1-1.2,0.3-1.4,0.6C409.2,162.4,409.9,162,410.7,161.9z
	 M397.9,177.5c1.1,2.5,2.1,5,2.9,7.5c0.4-0.2,1-0.4,1.6-0.6c1.5-0.5,3.4-1.2,5.8-1.8c12.2-3.2,35.6-6.7,58.5,2.1
	c0.9-2.4,1.8-4.8,2.8-7.2c-2.6-1.2-13.7-5.4-35.8-5.9C411.7,172.1,400.6,176.4,397.9,177.5z M428.3,173.3l0.8-0.5l0.1,1.5l-0.2,0.1
	l-0.2,0.2l-1.4-0.6L428.3,173.3z M419.5,173.9l0.8-0.6l0.1,1.5l-0.2,0.2l-0.2,0.2l-1.4-0.6L419.5,173.9z M410.6,175.3l0.8-0.6
	l0.2,1.5l-0.2,0.2l-0.2,0.2l-1.4-0.5L410.6,175.3z M401.6,177.6l0.7-0.7l0.4,1.4l-0.2,0.2l-0.2,0.2l-1.5-0.3L401.6,177.6z
	 M401,180.1l-0.2-0.9l1.4,0.3l0.1,0.2l0.1,0.2l-1,1L401,180.1z M402.8,181.9l-0.9-0.3l1-1.1l0.2,0.1l0.2,0.1l0.4,1.4L402.8,181.9z
	 M403.8,178.2l-0.2-0.1l-0.4-1.4l1,0.2l1,0.3l-1,1.1L403.8,178.2z M405.2,181.3l-0.7,0.7l-0.4-1.4l0.2-0.2l0.2-0.2l1.4,0.3
	L405.2,181.3z M404.7,179.3l-0.1-0.2l-0.1-0.2l1-1l0.2,0.9l0.2,0.9L404.7,179.3z M407.8,179.3c-0.6,0-1-0.4-1-1c0-0.6,0.4-1,1-1
	c0.6,0,1,0.4,1,1C408.8,178.9,408.4,179.3,407.8,179.3z M409.6,177.7l-0.1-0.9l1.3,0.5l0,0.2l0,0.2l-1.2,0.9L409.6,177.7z
	 M411.2,179.8l-0.9-0.4l1.2-0.9l0.2,0.1l0.2,0.1l0.2,1.5L411.2,179.8z M412.4,176.1l-0.2-1.5l0.9,0.4l0.9,0.4l-1.2,0.9l-0.2-0.1
	L412.4,176.1z M413.7,179.4l-0.8,0.6l-0.2-1.5l0.2-0.1l0.2-0.2l1.4,0.5L413.7,179.4z M413.4,177.4l0-0.2l0-0.2l1.2-0.9l0.1,1
	l0.1,0.9L413.4,177.4z M416.5,177.7c-0.6,0-1-0.5-1-1c0-0.6,0.4-1,1-1c0.5,0,1,0.4,1,1C417.5,177.3,417.1,177.7,416.5,177.7z
	 M418.5,176.3l-0.1-0.9l1.3,0.6l0,0.2l0,0.2l-1.2,0.9L418.5,176.3z M420,178.4L419,178l1.2-0.9l0.2,0.1l0.2,0.1l0.1,1.5L420,178.4z
	 M421.3,174.8l-0.1-1.5l0.9,0.4l0.9,0.4l-1.2,0.9l-0.2-0.1L421.3,174.8z M422.5,178.1l-0.8,0.6l-0.2-1.5l0.2-0.1l0.2-0.2l1.4,0.6
	L422.5,178.1z M422.3,176.1l0-0.2l0-0.2l1.2-0.9l0.1,1l0.1,0.9L422.3,176.1z M425.4,176.6c-0.6,0-1-0.5-1-1c0-0.6,0.4-1,1-1
	c0.6,0,1,0.5,1,1C426.4,176.2,426,176.6,425.4,176.6z M427.2,175.6l-0.1-0.9l1.3,0.6v0.2l0,0.2l-1.2,0.8L427.2,175.6z M428.6,177.8
	l-0.9-0.5l1.2-0.8l0.4,0.2l0.1,1.5L428.6,177.8z M430,172.7l0.9,0.4l0.9,0.5l-1.2,0.8l-0.2-0.1l-0.2-0.1L430,172.7z M431.1,177.6
	l-0.8,0.6l-0.1-1.5l0.2-0.1l0.2-0.1l1.3,0.6L431.1,177.6z M431,175.6v-0.2l0-0.2l1.2-0.8l0.1,1l0,0.9L431,175.6z M433.8,177.3
	c-0.4,0-0.8-0.4-0.8-0.8c0-0.5,0.4-0.8,0.8-0.8c0.4,0,0.8,0.4,0.8,0.8C434.6,177,434.2,177.3,433.8,177.3z M437.3,178.2l-0.8-0.6
	l-0.9-0.6l1.3-0.6l0.2,0.1l0.2,0.1L437.3,178.2z M445.9,178.7l-0.8-0.6l-0.9-0.6l1.4-0.6l0.2,0.2l0.2,0.1L445.9,178.7z M454.7,180
	l-0.8-0.6l-0.8-0.7l1.4-0.5l0.2,0.2l0.2,0.1L454.7,180z M463,182l-0.7-0.7l-0.7-0.8l1.4-0.3l0.2,0.2l0.2,0.2L463,182z M466.6,180.1
	l-0.2,0.9l-1-1l0-0.2l0.1-0.2l1.4-0.3L466.6,180.1z M465.3,176.9l0.7,0.7l0.8,0.8l-1.5,0.3l-0.2-0.2l-0.2-0.2L465.3,176.9z
	 M464.7,180.6l1,1.1l-1,0.3l-0.9,0.3l0.4-1.4l0.2-0.1L464.7,180.6z M463.5,177l0.9-0.2l-0.4,1.4l-0.2,0.1l-0.2,0.1l-1-1.1L463.5,177
	z M461.7,178.8l0.3-0.9l1,1l-0.1,0.2l-0.1,0.2l-1.4,0.3L461.7,178.8z M459.8,177.3c0.5,0,1,0.4,1,1c0,0.6-0.4,1-1,1
	c-0.6,0-1-0.4-1-1C458.8,177.7,459.2,177.3,459.8,177.3z M458,177.7l-0.1,1l-1.2-0.9l0-0.2l0-0.2l1.4-0.5L458,177.7z M456.2,174.7
	l0.8,0.6l0.8,0.7l-1.4,0.5l-0.2-0.2l-0.2-0.2L456.2,174.7z M455.7,178.7l0.2-0.1l0.2-0.1l1.2,0.9l-0.9,0.4l-0.9,0.4L455.7,178.7z
	 M454.5,175l0.9-0.4l-0.2,1.5l-0.2,0.1l-0.2,0.1l-1.2-0.9L454.5,175z M452.9,177l0.1-1l1.2,0.9l0,0.2l0,0.2l-1.4,0.5L452.9,177z
	 M451,175.7c0.6,0,1,0.4,1,1c0,0.6-0.4,1-1,1c-0.5,0-1-0.5-1-1C450,176.1,450.5,175.7,451,175.7z M449.1,176.3l-0.1,1l-1.2-0.9
	l0-0.2l0-0.2l1.3-0.6L449.1,176.3z M447.3,173.4l0.8,0.6l0.9,0.6l-1.4,0.6l-0.2-0.2l-0.2-0.2L447.3,173.4z M446.9,177.3l0.2-0.1
	l0.2-0.1l1.2,0.9l-0.9,0.4l-0.9,0.4L446.9,177.3z M445.6,173.7l0.9-0.4l-0.2,1.5l-0.2,0.1l-0.2,0.1l-1.2-0.9L445.6,173.7z
	 M444.1,175.8l0.1-1l1.2,0.9l0,0.2l0,0.2l-1.3,0.6L444.1,175.8z M442.2,174.6c0.5,0,1,0.5,1,1c0,0.6-0.4,1-1,1c-0.6,0-1-0.5-1-1
	C441.2,175,441.6,174.6,442.2,174.6z M440.4,175.6l0,1l-1.2-0.8l0-0.2l0-0.2l1.3-0.6L440.4,175.6z M438.4,172.8l0.8,0.5l0.9,0.6
	l-1.3,0.6l-0.2-0.2l-0.2-0.1L438.4,172.8z M438.2,176.7l0.2-0.1l0.2-0.1l1.2,0.8l-0.9,0.5l-0.9,0.4L438.2,176.7z M436.7,173.1
	l0.9-0.4l-0.1,1.5l-0.2,0.1l-0.2,0.1l-1.2-0.8L436.7,173.1z M435.3,175.3l0.1-1l1.2,0.8l0,0.2l0,0.2l-1.3,0.6L435.3,175.3z
	 M434.6,174.3c0,0.5-0.4,0.8-0.8,0.8c-0.4,0-0.8-0.4-0.8-0.8c0-0.4,0.4-0.8,0.8-0.8C434.2,173.5,434.6,173.9,434.6,174.3z
	 M459.3,178.6c0-0.4,0.3-0.7,0.7-0.7c0.2,0,0.4,0.1,0.5,0.2c0-0.3-0.3-0.6-0.7-0.6c-0.4,0-0.7,0.3-0.7,0.7c0,0.2,0.1,0.3,0.2,0.5
	V178.6z M454.5,170.2c-0.3,0-0.5,0.2-0.5,0.5c0,0.3,0.2,0.5,0.5,0.5c0.2,0,0.5-0.2,0.5-0.5C455,170.4,454.8,170.2,454.5,170.2z
	 M450.6,177c0-0.4,0.3-0.7,0.7-0.7c0.2,0,0.4,0.1,0.5,0.2c0-0.3-0.3-0.6-0.7-0.6c-0.4,0-0.7,0.3-0.7,0.7
	C450.4,176.9,450.5,177,450.6,177L450.6,177z M433.4,174.2c0.1,0,0.1,0,0.2,0c0.3,0,0.5,0.2,0.5,0.5c0,0.1,0,0.1,0,0.2
	c0.1-0.1,0.2-0.2,0.2-0.4c0-0.3-0.2-0.5-0.4-0.5C433.6,173.9,433.4,174,433.4,174.2z M357.8,242.1h0.1c13.1,0,30.5-8.7,43-18.2
	c4.9-3.7,10.8-8.9,16.3-14c0.9,1.1,1.8,2.2,2.6,3.3c0.1,0.2,0.3,0.4,0.4,0.6c-5,7.8-10,16-13.7,21.2c-0.8,1-1.4,2.6-0.4,3.5
	c1.1,0.8,1.7-0.3,3.3-1.7c2.6-2.5,5.3-5,8-7.5c1.4,1.3,3.1,2.8,5.3,4.6c2.5,2.1,6.8,5,10.4,5.1c0.2,0,0.4,0,0.7,0c0.2,0,0.4,0,0.6,0
	c3.5-0.1,7.8-3.1,10.4-5.1c2.2-1.8,3.9-3.3,5.3-4.5c2.7,2.5,5.4,5,8,7.5c1.5,1.4,2.2,2.4,3.3,1.7c1-0.9,0.4-2.4-0.4-3.5
	c-3.7-5.3-8.7-13.4-13.7-21.2c0.1-0.2,0.3-0.4,0.4-0.6c0.8-1,1.7-2.1,2.6-3.3c5.5,5.1,11.4,10.4,16.3,14c12.5,9.5,29.9,18.2,43,18.2
	h0.1c6.9,0,14.5-1.9,14.9-9.2c0.1-4.2-3-8.7-7.5-8.7c-2.9,0-5.1,1.8-4.8,4.4c0.3,2.1,1.5,3.3,2.8,4.4c1.1,1.2,2.1,1.8,2.4,3.2
	c0.5,2.6-2.8,4.5-9.1,4.5c-10.9,0-27.9-7.9-41.1-17.9c-5.4-4-10.7-8.7-16.1-13.7c5.4-6.5,12-13.8,16.9-19
	c9.2,2.2,16.7,7.2,18.4,15.5c1,5.1-0.5,11.5-8.6,14.4c-1,0.4-1.6,0.3-1.5,0.6c0.1,0.4,1,0.5,2.4,0.1c7.3-2.2,11.1-8.7,10.5-15.5
	c-0.9-8.8-7.4-15.3-18.7-17.9c1.6-1.8,2.4-3.2,2.9-4.4c0.7-1.4,0.5-3.5-0.4-3.2c-0.6,0.3,0.3,1-1.4,3.1c-1,1.3-2.5,2.7-4.6,3.9
	c-0.3,0-0.7-0.1-1.1-0.1c0,0,0-0.1,0-0.1c-22.5-8.7-45.6-5.3-57.5-2.1c-2.4,0.6-4.3,1.3-5.7,1.8c-0.4,0.2-0.8,0.3-1.1,0.4
	c-0.5,0.1-1,0.1-1.4,0.1c-2.1-1.3-3.6-2.6-4.6-3.9c-1.7-2-0.8-2.8-1.4-3.1c-0.9-0.3-1,1.8-0.4,3.2c0.6,1.3,1.4,2.6,3,4.4
	c-11.2,2.5-17.7,9.1-18.7,17.9c-0.6,6.8,3.2,13.3,10.5,15.5c1.4,0.4,2.2,0.3,2.4-0.1c0.1-0.4-0.5-0.3-1.5-0.6
	c-8.1-2.8-9.6-9.2-8.6-14.4c1.7-8.4,9.2-13.4,18.4-15.5c4.9,5.2,11.5,12.5,16.9,19c-5.4,5-10.7,9.7-16.2,13.7
	c-13.2,10-30.3,17.9-41.1,17.9c-6.3,0-9.6-1.9-9.1-4.5c0.3-1.4,1.3-2,2.4-3.2c1.2-1,2.5-2.3,2.8-4.4c0.3-2.6-1.9-4.4-4.8-4.4
	c-4.5,0-7.7,4.5-7.6,8.7C343.3,240.2,350.9,242.1,357.8,242.1z M424,218.4c0.5,0.6,0.9,1.2,1.4,1.8c-2.5,2.3-4.8,4.3-6.4,5.8
	C420.4,223.9,422.2,221.3,424,218.4z M433.9,201.8c1.4,2.4,2.8,4.8,4.3,7.2c-1.4,1.2-2.9,2.4-4.3,3.7c-1.4-1.2-2.8-2.4-4.3-3.7
	C431,206.6,432.5,204.2,433.9,201.8z M432.2,190.7c0.5-0.1,1.1-0.2,1.7-0.3c0.6,0.1,1.1,0.2,1.7,0.3c-0.6,0.5-1.1,1.1-1.7,1.6
	C433.3,191.8,432.8,191.2,432.2,190.7z M442.6,205.3c-0.1,0.1-0.3,0.2-0.4,0.4c-2-3.1-3.9-5.9-5.6-8.3c0.1-0.2,0.2-0.4,0.3-0.5
	c1.9,1.9,4.4,4.4,7.3,7.2C443.7,204.4,443.2,204.9,442.6,205.3z M445.1,204.9c0.5,0.5,1,1,1.5,1.5c-0.8,0.9-1.6,1.8-2.3,2.6
	c-0.5-0.8-1-1.5-1.4-2.2C443.6,206.1,444.4,205.5,445.1,204.9z M440.7,213.3c-0.9,1.1-1.8,2.2-2.5,3.2c-1.1-0.9-2.2-1.9-3.3-2.9
	c1.3-1.1,2.6-2.3,3.9-3.4C439.5,211.2,440.1,212.3,440.7,213.3z M432.8,213.6c-1.1,1-2.2,1.9-3.3,2.9c-0.7-1-1.6-2-2.5-3.2
	c0.6-1,1.2-2.1,1.9-3.1C430.2,211.3,431.5,212.5,432.8,213.6z M425.6,205.7c-0.1-0.1-0.3-0.2-0.4-0.4c-0.5-0.5-1.1-0.9-1.6-1.3
	c2.9-2.8,5.4-5.3,7.3-7.2c0.1,0.2,0.2,0.4,0.3,0.6C429.5,199.8,427.6,202.6,425.6,205.7z M424.9,206.8c-0.5,0.7-1,1.5-1.4,2.2
	c-0.8-0.9-1.5-1.8-2.3-2.7c0.5-0.5,1-1,1.5-1.5C423.4,205.5,424.1,206.1,424.9,206.8z M429.3,236.3c-1.9-0.8-4.4-2.3-7.1-4.6
	c-1.4-1.2-2.7-2.3-3.9-3.3c2.5-2.3,5.1-4.6,7.8-7.1c1.7,2.3,3.2,4.5,4.4,6.6c-1.1,2.3-1.8,4.4-1.7,6.2
	C428.9,235,429,235.7,429.3,236.3z M433.9,222.4c-1.1-1.5-2.2-3.1-3.5-4.8c1.1-1,2.1-1.9,3.3-2.9c0.1-0.1,0.1-0.1,0.2-0.2
	c0.1,0.1,0.1,0.1,0.2,0.2c1.2,1,2.2,1.9,3.3,2.9C436.1,219.3,434.9,220.9,433.9,222.4z M445.5,231.7c-2.7,2.2-5.1,3.7-7.1,4.6
	c0.2-0.6,0.4-1.3,0.4-2.1c0-1.8-0.6-3.9-1.7-6.2c1.2-2.1,2.7-4.3,4.4-6.6c2.8,2.5,5.3,4.8,7.8,7.1
	C448.3,229.4,447,230.6,445.5,231.7z M448.8,226c-1.6-1.5-3.9-3.5-6.4-5.8c0.4-0.6,0.9-1.2,1.4-1.8
	C445.6,221.3,447.3,223.9,448.8,226z M447.5,205.4c-0.5-0.4-0.9-0.9-1.4-1.3c4.3-3.6,8.6-7,12.9-10.3h0.1
	C455.7,196.7,451.5,201,447.5,205.4z M462.1,190.2c-5.7,4-11.1,8.2-16.9,13c-2.5-2.4-5.1-4.9-7.7-7.4c1-1.6,1.9-3,2.8-4.3
	c3.1,0.4,6.8,0.6,9.7,0.6c3.8-0.1,8.4-0.6,12.1-2.1V190.2z M450.4,190.8c-2.4,0.1-6-0.1-9.2-0.6c0.3-0.3,0.5-0.6,0.7-0.9
	c4.3-0.4,9.3-0.7,15.2-0.7c1.7,0,3.4,0.1,5.1,0.2C458.1,190.3,453.5,190.7,450.4,190.8z M457.9,186.1c-0.3,0-0.6,0-1,0
	c-4.7,0.2-9.2,0.7-13.4,1.3c1.1-1.5,1.2-2.4-0.5-2.6c-1.3-0.1-2.9,1.3-4,2.3c-0.4,0.4-0.8,0.8-1.2,1.1c-1.4,0.2-2.8,0.5-4,0.7
	c-1.2-0.2-2.6-0.4-4-0.7c-0.4-0.4-0.8-0.8-1.2-1.1c-1.1-1-2.8-2.4-4-2.3c-1.6,0.2-1.6,1.1-0.5,2.6c-3.8-0.5-8-1-12.4-1.2
	C422.6,183.7,439.9,181.6,457.9,186.1z M410.6,188.7c5.9,0,10.9,0.3,15.2,0.7c0.2,0.3,0.5,0.5,0.7,0.9c-3.1,0.5-6.8,0.8-9.2,0.6
	c-3.1-0.1-7.6-0.5-11.8-1.9C407.2,188.8,408.9,188.7,410.6,188.7z M405.6,190.1c3.6,1.4,8.3,1.9,12.1,2.1c2.9,0,6.6-0.3,9.7-0.6
	c0.9,1.3,1.8,2.8,2.8,4.3c-2.6,2.5-5.2,5-7.7,7.4c-5.9-4.8-11.3-9-17-13V190.1z M408.6,193.8h0.1c4.3,3.2,8.6,6.7,12.9,10.3
	c-0.5,0.5-0.9,0.9-1.4,1.4C416.2,201,412,196.7,408.6,193.8z M465.5,162.3c0,0.9,0.7,1.5,1.5,1.5c0.8,0,1.5-0.7,1.5-1.5
	c0-0.8-0.7-1.5-1.5-1.5C466.2,160.7,465.5,161.4,465.5,162.3z M468,162.3c0,0,0,0.1,0,0.1c-0.1-0.4-0.5-0.7-0.9-0.7
	c-0.5,0-0.9,0.4-1,0.9c0-0.1-0.1-0.2-0.1-0.3c0-0.6,0.4-1,1-1C467.6,161.3,468,161.7,468,162.3z M412.8,169.3
	c-0.4,0-0.7,0.2-0.9,0.6c0.2-0.2,0.4-0.2,0.6-0.2c0.5,0,0.9,0.4,0.9,0.9c0,0.1,0,0.2-0.1,0.3c0.2-0.2,0.3-0.4,0.3-0.7
	C413.8,169.7,413.4,169.3,412.8,169.3z M425.4,174.9c-0.4,0-0.6,0.3-0.7,0.6c0.1-0.1,0.3-0.2,0.5-0.2c0.4,0,0.7,0.3,0.7,0.7v0.1
	c0.1-0.1,0.2-0.3,0.2-0.5C426.1,175.2,425.8,174.9,425.4,174.9z M434.1,135.7c0.8,0,1.5-0.7,1.5-1.5c0-0.8-0.7-1.5-1.5-1.5
	c-0.8,0-1.5,0.7-1.5,1.5C432.6,135.1,433.3,135.7,434.1,135.7z M434.1,133.1c0.6,0,1.1,0.5,1.1,1.1c0,0.3-0.1,0.5-0.2,0.7
	c0-0.1,0-0.2,0-0.3c0-0.6-0.5-1.1-1.1-1.1c-0.4,0-0.7,0.2-0.9,0.4C433.1,133.5,433.6,133.1,434.1,133.1z M412.5,170.2
	c-0.3,0-0.5,0.2-0.5,0.5c0,0.3,0.2,0.5,0.5,0.5c0.2,0,0.5-0.2,0.5-0.5C412.9,170.4,412.7,170.2,412.5,170.2z M427.3,157.7
	c-0.5-1.1-2.3-8.1,0.9-4.5c1.3,1.5,1.4,4.9,1.4,5.9c1.8-0.9,6.5-0.9,8.3,0c0-1,0.1-4.4,1.5-5.9c3.1-3.5,1.3,3.4,0.9,4.5
	c5.5-4.5,2.6-14.5-3.3-6.1c1-7,0.2-11.9-3.1-15.5c-3.4,3.5-4.2,8.5-3.1,15.5C424.7,143.2,421.8,153.2,427.3,157.7z M433.2,155.4
	l-0.3-1.1c-2.8-9,0.9-16.4,0.9-16.4c-0.4,5.1-0.4,9.9,0.1,15c2.3-3.9,0.9-13.3,0.9-13.3c2.6,5.5,0.3,15.8,0.3,15.8
	c1.1-1.7,2.8-2.7,2.8-2.7c-1.4,1.3-1.3,4.8-1.3,4.8c-2-1-5.2,0-5.2,0c-0.1-3.4-3.8-7-3.8-7C429.1,150.9,433.2,155.4,433.2,155.4z
	 M433.8,176.1c-0.2,0-0.4,0.1-0.4,0.3c0.1,0,0.1-0.1,0.2-0.1c0.3,0,0.5,0.2,0.5,0.5c0,0.1,0,0.1,0,0.2c0.1-0.1,0.2-0.2,0.2-0.4
	C434.2,176.3,434,176.1,433.8,176.1z M461,139.3c0.8,0.2,1.6-0.3,1.8-1.1c0.2-0.8-0.3-1.6-1.1-1.8c-0.8-0.2-1.6,0.3-1.8,1.1
	C459.7,138.3,460.2,139.1,461,139.3z M461.6,136.8c0.6,0.2,0.9,0.8,0.8,1.4c-0.1,0.3-0.2,0.5-0.4,0.6c0.1-0.1,0.1-0.2,0.1-0.3
	c0.1-0.6-0.2-1.2-0.8-1.4c-0.3-0.1-0.7,0-0.9,0.2C460.6,136.9,461.1,136.7,461.6,136.8z M453.5,154.5c1.3,2.1,0.3,6.7,0.3,6.7l0.2,0
	c0.8-0.4,2-0.5,3.3-0.2c1.2,0.2,2.3,0.7,2.9,1.3c0.1-0.4,0.7-4.6,2.6-6.1c3.9-3,0.8,3.8,0.1,4.8c6.5-3.6,5.4-14.5-2.3-6.9
	c2.5-7.4,2.5-10.1,0.4-14.5c-3.5,3.4-4.4,6-4.6,13.8c-4.6-9.9-9.5-0.1-4.6,5.6C451.5,157.7,450.9,150.2,453.5,154.5z M460.7,141.4
	c0,0,2.9,0.1-2.6,17.1c0,0,3.3-4.7,6.6-6c0,0-5,3.8-5.4,7.6c0,0-1.6-0.7-2.3-0.6L460.7,141.4z M446.8,159.4c0.8,0,1.5-0.7,1.5-1.5
	c0-0.8-0.7-1.5-1.5-1.5c-0.8,0-1.5,0.7-1.5,1.5C445.3,158.7,446,159.4,446.8,159.4z M446.8,156.7c0.5,0,0.9,0.4,1.1,0.8
	c-0.2-0.3-0.5-0.4-0.9-0.4c-0.6,0-1.1,0.5-1.1,1.1c0,0.1,0,0.2,0,0.3c-0.1-0.2-0.3-0.4-0.3-0.7C445.7,157.2,446.2,156.7,446.8,156.7
	z M511.1,409.6c0.9,0,1.7,0,2.5,0.1l0.9,3.2h0.2l-0.3-4.2h-14v0.1l3.3,0.5c0.1,0.8,0.2,1.7,0.2,2.5c0.1,0.9,0.1,1.7,0.1,2.4
	c0,0.8,0,1.4,0,1.8v3.4c0,0.5,0,1,0,1.6c0,0.6,0,1.4-0.1,2.3c-0.1,0.9-0.1,1.8-0.2,2.5c-0.1,0.8-0.1,1.3-0.2,1.7l-3.1,0.5v0.1h14.1
	l0.3-4.2h-0.2l-1.1,3.2c-0.7,0.1-1.5,0.1-2.5,0.1c-1.7,0-3.1-0.2-4.2-0.5c-0.1-0.6-0.1-1.3-0.1-2.1c0-0.8-0.1-1.9-0.1-3.1
	c0-1,0-2,0.1-3c0.9-0.1,2-0.2,3.1-0.2c0.9,0,1.8,0,2.5,0.1l0.6,2.4h0.2v-5.7h-0.2l-0.6,2.3c-1.1,0.1-2.1,0.2-3.1,0.2
	c-0.4,0-1.3,0-2.6-0.1c-0.1-0.7-0.1-1.7-0.1-2.8c0-1.9,0.1-3.5,0.3-4.9C508.1,409.7,509.4,409.6,511.1,409.6z M505.4,427.8h-0.9
	v-18.5h0.9V427.8z M472.3,423.9c-0.1,1.7-0.2,3-0.4,3.8l-3.2,0.5v0.1h12.1c1.4,0,2.7-0.2,3.9-0.7c1.2-0.5,2.2-1.2,3.1-2
	c0.9-0.9,1.5-1.9,2-3.1c0.5-1.2,0.7-2.5,0.7-3.9c0-1.2-0.2-2.3-0.5-3.4c-0.4-1.1-0.9-2.2-1.7-3.1c-0.8-0.9-1.9-1.7-3.3-2.3
	c-1.4-0.6-3.1-0.9-5.1-0.9h-10.8v0.1l3.3,0.5c0.2,2,0.3,4.3,0.3,6.9v3.5C472.4,420.8,472.4,422.2,472.3,423.9z M477.5,409.1h0.8
	c3.6,0,6.2,0.9,7.8,2.6c0.8,0.8,1.4,1.7,1.9,2.9c0.5,1.2,0.8,2.5,0.8,4c0,1.7-0.4,3.2-1.1,4.7c-0.7,1.4-1.8,2.6-3.2,3.4
	c-1.4,0.9-3.1,1.3-5,1.3h-1v-0.1h1c1.2,0,2.4-0.3,3.6-1c1.3-0.6,2.3-1.7,3.2-3.1c0.9-1.4,1.3-3.1,1.3-5.2c0-0.9-0.1-1.8-0.3-2.7
	c-0.2-0.8-0.5-1.6-0.9-2.3c-0.4-0.7-0.8-1.3-1.3-1.8c-0.5-0.5-1.1-1-1.8-1.3c-0.7-0.4-1.5-0.7-2.6-0.9c-1-0.2-2.1-0.3-3.4-0.3V409.1
	z M475,415.4c0-0.4,0-1,0.1-1.9c0-0.8,0.1-1.6,0.1-2.2c0.1-0.6,0.1-1.1,0.1-1.4c0.8-0.2,1.7-0.3,2.7-0.3c1.2,0,2.4,0.2,3.5,0.5
	c1.1,0.3,2.1,0.9,3,1.6c0.9,0.7,1.5,1.7,2,2.8c0.5,1.1,0.7,2.5,0.7,4c0,1.5-0.2,2.8-0.7,3.9c-0.5,1.1-1.1,2.1-1.8,2.8
	c-0.8,0.7-1.6,1.3-2.6,1.7c-0.9,0.4-1.9,0.6-2.9,0.6c-0.7,0-1.4-0.1-2.1-0.2c-0.7-0.1-1.3-0.3-1.9-0.6c-0.1-1.2-0.2-2.4-0.2-3.5
	V415.4z M472.8,409.3h0.9v18.5h-0.9V409.3z M533,426.4c-0.3,0.4-0.8,0.7-1.3,0.9c-0.5,0.2-1.2,0.4-1.8,0.4c-0.5,0-1.1-0.1-1.7-0.2
	c-0.7-0.1-1.2-0.3-1.7-0.6l-1-3.3h-0.2l0.2,4.7c0,0,0.1,0,0.4,0c0.2,0,0.3,0,0.4,0c0.1,0,0.2,0,0.4,0c0.4,0,0.9,0,1.7,0.1
	c0.8,0.1,1.4,0.1,2,0.1c1.5,0,2.7-0.3,3.7-0.9c1-0.6,1.6-1.3,2-2.1c0.4-0.8,0.6-1.6,0.6-2.4c0-1.4-0.5-2.6-1.5-3.7
	c-0.5-0.5-1.2-1.1-2.1-1.7c-0.9-0.6-1.7-1.1-2.5-1.7c-0.8-0.5-1.4-1.1-1.8-1.6c-0.4-0.5-0.7-1.1-0.7-1.8c0-0.6,0.2-1.2,0.5-1.7
	c0.3-0.5,0.8-0.9,1.4-1.2c0.6-0.3,1.3-0.4,2-0.4c0.9,0,2,0.3,3.2,0.8l0.8,3.1h0.2l-0.1-4.6c-0.1,0-0.2,0-0.3,0.1c-0.1,0-0.3,0-0.4,0
	c-0.2,0-0.4,0-0.6,0c-0.2,0-0.7,0-1.3-0.1c-0.6-0.1-1.2-0.1-1.8-0.1c-1.3,0-2.3,0.3-3.2,0.8c-0.9,0.5-1.5,1.1-1.9,1.9
	c-0.4,0.8-0.6,1.5-0.6,2.3c0,0.7,0.1,1.3,0.4,1.9c0.3,0.6,0.7,1.1,1.2,1.7c0.6,0.6,1.6,1.4,3,2.4c1.4,0.9,2.4,1.7,2.9,2.3
	c0.6,0.6,0.9,1.3,0.9,2.2c0,0.4-0.1,0.9-0.3,1.3C533.6,425.7,533.3,426.1,533,426.4z M534.5,423.8c0-1-0.4-1.9-1.2-2.7
	c-0.3-0.3-0.7-0.6-1.1-1c-0.4-0.3-1-0.8-1.8-1.3c-0.8-0.5-1.3-0.9-1.7-1.2c-0.4-0.3-0.8-0.6-1.2-1.1c-1-1-1.5-2-1.5-3.2
	c0-0.9,0.2-1.7,0.7-2.4c0.5-0.7,1.1-1.3,1.9-1.7c0.8-0.4,1.7-0.6,2.7-0.6h0.4v0.1c-1.7,0-2.9,0.5-3.8,1.3c-0.8,0.8-1.3,1.8-1.3,2.7
	c0,1.1,0.5,2.1,1.4,3.1c0.4,0.4,1,0.8,1.8,1.4c0.8,0.6,1.6,1.1,2.4,1.7c0.8,0.6,1.4,1,1.7,1.3c0.5,0.5,0.9,1.1,1.1,1.6
	c0.2,0.5,0.3,1.1,0.3,1.7c0,0.7-0.2,1.4-0.7,2.1c-0.4,0.7-1.1,1.2-1.9,1.7c-0.8,0.4-1.8,0.6-2.8,0.6v-0.2c0.9,0,1.7-0.2,2.4-0.6
	c0.7-0.4,1.2-0.9,1.6-1.5C534.3,425.2,534.5,424.5,534.5,423.8z M422.7,423.1c0,0.5,0.1,1.1,0.4,1.7c0.2,0.6,0.6,1.2,1.2,1.8
	c0.6,0.6,1.3,1,2.3,1.4c0.9,0.4,2.1,0.5,3.5,0.5c1.1,0,2.1-0.2,2.9-0.5c0.8-0.3,1.5-0.8,2.2-1.4c0.9,0.8,1.5,1.3,2,1.5
	c0.5,0.3,1.1,0.4,1.8,0.4c0.6,0,1.1-0.2,1.5-0.5c0.4-0.3,0.7-0.8,0.7-1.4h-0.2c-0.1,0.2-0.2,0.3-0.4,0.4c-0.2,0.1-0.3,0.1-0.5,0.1
	c-0.3,0-0.7-0.1-1.1-0.4c-0.4-0.3-0.8-0.5-1.1-0.8c-0.3-0.3-0.8-0.7-1.5-1.3c0.3-0.6,0.5-1,0.5-1.4c0.1-0.4,0.1-0.9,0.1-1.5
	c0-0.7,0.1-1.5,0.4-2.4l2.2-0.4v-0.2h-6.8v0.1l1.6,0.5c0.2,0.7,0.4,1.5,0.4,2.4v1.2c-1.2-1.3-2.2-2.3-3-3.2
	c-0.8-0.9-1.5-1.8-2.1-2.8c1.4-0.7,2.5-1.4,3.3-2.1c0.8-0.7,1.2-1.7,1.2-2.9c0-1-0.3-1.7-1-2.4c-0.7-0.6-1.6-0.9-2.8-0.9
	c-0.8,0-1.6,0.2-2.3,0.6c-0.7,0.4-1.3,0.9-1.7,1.6c-0.4,0.7-0.6,1.5-0.6,2.5c0,0.6,0.1,1.1,0.2,1.6c0.1,0.5,0.3,0.9,0.4,1.2
	c0.2,0.4,0.4,0.8,0.7,1.3c-1.4,0.8-2.4,1.6-3.2,2.5C423.1,420.7,422.7,421.7,422.7,423.1z M428.4,427.2c-0.6-0.3-1.1-0.7-1.5-1.2
	c-0.4-0.5-0.8-1.1-1.1-1.8c-0.3-0.7-0.4-1.4-0.4-2.2c0-1,0.2-1.8,0.6-2.4c0.4-0.7,0.9-1.2,1.4-1.5c0.8,1.3,1.8,2.5,2.8,3.6
	c1,1.1,2.2,2.3,3.6,3.7c-0.4,0.6-1,1.2-1.7,1.5c-0.7,0.4-1.4,0.6-2.1,0.6C429.5,427.6,429,427.4,428.4,427.2z M430.9,409.2
	c0.5,0.1,1,0.4,1.5,0.9c0.4,0.5,0.7,1,0.7,1.8c0,0.8-0.3,1.7-1,2.5c-0.7,0.8-1.6,1.5-2.7,2.1l-0.1-0.1c0.9-0.5,1.7-1.3,2.3-2.1
	c0.6-0.9,0.8-1.7,0.8-2.6c0-0.4-0.1-0.7-0.2-1c-0.1-0.3-0.3-0.6-0.5-0.8c-0.2-0.2-0.5-0.4-0.7-0.5V409.2z M428.3,410.1
	c0.4-0.5,1-0.7,1.6-0.7c0.4,0,0.7,0.1,1,0.2c0.3,0.1,0.5,0.4,0.7,0.7c0.2,0.3,0.3,0.7,0.3,1.2c0,0.5-0.1,1.1-0.3,1.6
	c-0.2,0.5-0.5,1.1-0.9,1.5c-0.4,0.5-0.9,0.9-1.5,1.2c-0.4-0.6-0.8-1.3-1-2c-0.3-0.7-0.4-1.4-0.4-2
	C427.6,411.2,427.8,410.6,428.3,410.1z M426.1,413.3c0-0.6,0.1-1.2,0.3-1.8c0.2-0.5,0.4-1,0.8-1.3h0.2c-0.2,0.3-0.4,0.7-0.5,1
	c-0.1,0.4-0.2,0.8-0.2,1.3c0,1.6,0.7,3.4,2.1,5.4c1.4,2,3.4,4.3,6,6.7c0.2-0.5,0.3-1.1,0.3-2v-3.4h0.9v3.1c0,1.1-0.2,2.1-0.6,2.9
	c0.8,0.7,1.4,1.2,1.7,1.5c0.4,0.3,0.8,0.6,1.2,0.8c0.4,0.2,0.8,0.3,1.2,0.3h0.4v0.1c-0.4,0.1-0.7,0.2-1,0.2c-0.7,0-1.3-0.2-1.8-0.6
	c-0.6-0.4-1.3-1-2.2-1.7c-0.5,0.5-1,0.9-1.5,1.3c-0.5,0.3-1.2,0.6-1.9,0.7l0-0.1c1.3-0.4,2.3-1.2,3-2.3c-1.7-1.6-3.1-3.1-4.3-4.5
	c-1.2-1.4-2.2-2.7-2.9-4.1C426.4,415.6,426.1,414.4,426.1,413.3z M427.1,417.6l0.1,0.2c-0.8,0.4-1.4,1-1.9,1.5
	c-0.5,0.6-0.8,1.1-1,1.7c-0.2,0.6-0.3,1.1-0.3,1.6c0,0.8,0.2,1.7,0.7,2.5c0.5,0.8,1.1,1.5,2,2c0.9,0.5,1.8,0.8,3,0.9v0.2
	c-1.3,0-2.4-0.3-3.4-0.8c-1-0.5-1.8-1.1-2.3-1.9c-0.5-0.8-0.8-1.6-0.8-2.6c0-0.6,0.1-1.2,0.3-1.7c0.2-0.6,0.6-1.2,1.2-1.8
	C425.2,418.9,426,418.3,427.1,417.6z M546.2,408.9l3.3,0.5c0.3,1.9,0.4,4.4,0.4,7.4v2.3c0,1.5,0,3-0.1,4.6c-0.1,1.6-0.2,2.9-0.3,4
	l-3.2,0.5v0.1h9.9v-0.1l-3.3-0.5c-0.1-0.4-0.1-1.1-0.2-1.9c-0.1-0.8-0.1-1.9-0.2-3.1c0-1.2-0.1-2.1-0.1-2.7v-3c0-0.9,0-1.8,0.1-2.8
	c0-1,0.1-1.8,0.1-2.5c0-0.7,0.1-1.5,0.2-2.3l3.3-0.5v-0.1h-9.9V408.9z M550.2,409.3h0.9v18.5h-0.9V409.3z M577.8,420.9l3.4,0.5
	c0.2,0.7,0.3,1.7,0.3,2.9c0,0.9-0.1,1.7-0.3,2.5c-0.5,0.1-0.9,0.1-1.2,0.2c-0.4,0-0.7,0.1-1,0.1c-0.3,0-0.7,0.1-1,0.1
	c-1.2,0-2.3-0.2-3.4-0.7c-1.1-0.5-2-1.1-2.8-2c-0.8-0.8-1.5-1.8-1.9-2.9c-0.4-1.1-0.7-2.2-0.7-3.5c0-1.1,0.2-2.1,0.5-3.2
	c0.3-1,0.8-2,1.5-2.8c0.7-0.8,1.6-1.5,2.7-2c1.1-0.5,2.5-0.8,4-0.8c0.7,0,1.4,0,2,0.1c0.6,0.1,1.2,0.1,1.7,0.2
	c0.5,0.1,0.9,0.2,1.2,0.3l0.8,3h0.2l-0.2-4.4c-0.6,0-1.3,0.1-2.2,0.1c-0.9,0-2,0-3-0.1c-0.4,0-0.7,0-0.9,0c-0.2,0-0.4,0-0.5,0
	c-0.1,0-0.4,0-0.6,0c-1.6,0-3.1,0.3-4.3,0.8c-1.3,0.6-2.4,1.3-3.3,2.3c-0.9,1-1.5,2.1-2,3.3c-0.5,1.2-0.7,2.5-0.7,3.9
	c0,1.2,0.2,2.3,0.6,3.4c0.4,1.1,1,2.2,1.9,3.1c0.9,0.9,1.9,1.7,3.2,2.2c1.3,0.5,2.8,0.8,4.6,0.8c1,0,2-0.1,2.9-0.3
	c0.9-0.2,1.6-0.4,2.3-0.6c0.6-0.2,1.5-0.5,2.5-0.9c0-0.8,0-1.7,0.1-2.7c0.1-1,0.1-1.8,0.3-2.5l2.1-0.5v-0.2h-8.8V420.9z
	 M578.4,427.9c-0.7,0.1-1.2,0.1-1.6,0.1c-2,0-3.9-0.4-5.4-1.3c-1.5-0.8-2.7-2-3.5-3.4c-0.8-1.4-1.2-3-1.2-4.6c0-1.4,0.2-2.7,0.7-4
	c0.5-1.2,1.2-2.3,2-3.2c0.9-0.9,1.9-1.6,3.1-2.1c1.2-0.5,2.5-0.7,3.9-0.7c0.5,0,1,0,1.6,0.1v0.1h-0.5c-1.6,0-3,0.2-4.3,0.7
	c-1.2,0.5-2.3,1.1-3.1,2c-0.8,0.8-1.5,1.8-1.9,3c-0.4,1.2-0.7,2.4-0.7,3.8c0,1.1,0.2,2.2,0.6,3.3c0.4,1.1,1,2.1,1.8,3.1
	c0.8,0.9,2,1.7,3.3,2.2C574.8,427.6,576.5,427.8,578.4,427.9L578.4,427.9z M581.8,421.3h0.9v4.9l-0.9,0.3V421.3z M650.3,421.5h92.9
	v-1.8h-92.9V421.5z M611.7,408.9l3.2,0.5c0.2,1.4,0.3,3.1,0.3,5.1v5.8c0,0.5,0,1,0,1.5c0,0.5,0,1.1-0.1,1.7
	c-0.7-0.7-1.2-1.3-1.7-1.7c-0.4-0.5-1-1.1-1.8-2l-5.9-6.6c-0.6-0.6-1.2-1.3-1.9-2.2c-0.7-0.8-1.3-1.6-1.7-2.2h-6.6v0.1l2.4,0.5
	l1.7,1.3c0.1,0.7,0.1,1.5,0.1,2.3c0,0.8,0,1.5,0,2.3v6.5c0,0.9,0,2-0.1,3.2c-0.1,1.2-0.1,2.1-0.2,2.7l-3.2,0.5v0.1h8v-0.1l-3.3-0.5
	c-0.2-1.6-0.3-2.9-0.3-4v-8.5c0-1,0.1-2.2,0.2-3.4c0.8,0.8,1.9,1.8,3,3.1l8,9.1c1.3,1.5,2.6,3.1,4,4.8h0.1v-14.6
	c0-1.9,0.1-3.5,0.3-4.8l3.2-0.5v-0.1h-7.8V408.9z M615.3,427.2l-15.9-17.9h1.1l14.8,16.7V427.2z M389.7,426.4
	c-0.3,0.4-0.8,0.7-1.3,0.9c-0.5,0.2-1.1,0.4-1.8,0.4c-0.5,0-1.1-0.1-1.7-0.2c-0.7-0.1-1.3-0.3-1.8-0.6l-1-3.3h-0.2l0.2,4.7
	c0,0,0.1,0,0.3,0c0.2,0,0.3,0,0.4,0c0.1,0,0.2,0,0.4,0c0.4,0,0.9,0,1.7,0.1c0.8,0.1,1.4,0.1,2,0.1c1.5,0,2.8-0.3,3.7-0.9
	c0.9-0.6,1.6-1.3,2-2.1c0.4-0.8,0.6-1.6,0.6-2.4c0-1.4-0.5-2.6-1.6-3.7c-0.5-0.5-1.2-1.1-2.1-1.7c-0.9-0.6-1.7-1.1-2.5-1.7
	c-0.8-0.5-1.4-1.1-1.8-1.6c-0.4-0.5-0.7-1.1-0.7-1.8c0-0.6,0.2-1.2,0.5-1.7c0.3-0.5,0.8-0.9,1.4-1.2c0.6-0.3,1.3-0.4,2-0.4
	c0.9,0,1.9,0.3,3.2,0.8l0.8,3.1h0.2l-0.1-4.6c-0.1,0-0.2,0-0.4,0.1c-0.1,0-0.3,0-0.4,0c-0.2,0-0.4,0-0.6,0c-0.2,0-0.7,0-1.3-0.1
	c-0.6-0.1-1.2-0.1-1.8-0.1c-1.2,0-2.3,0.3-3.2,0.8c-0.9,0.5-1.5,1.1-1.9,1.9c-0.4,0.8-0.6,1.5-0.6,2.3c0,0.7,0.1,1.3,0.4,1.9
	c0.3,0.6,0.7,1.1,1.2,1.7c0.6,0.6,1.6,1.4,3,2.4c1.4,0.9,2.4,1.7,3,2.3c0.6,0.6,0.9,1.3,0.9,2.2c0,0.4-0.1,0.9-0.3,1.3
	C390.3,425.7,390,426.1,389.7,426.4z M391.2,423.8c0-1-0.4-1.9-1.2-2.7c-0.3-0.3-0.7-0.6-1.1-1c-0.4-0.3-1.1-0.8-1.8-1.3
	c-0.8-0.5-1.3-0.9-1.7-1.2c-0.4-0.3-0.8-0.6-1.2-1.1c-1-1-1.5-2-1.5-3.2c0-0.9,0.2-1.7,0.7-2.4c0.5-0.7,1.1-1.3,1.9-1.7
	c0.8-0.4,1.7-0.6,2.7-0.6h0.4v0.1c-1.7,0-2.9,0.5-3.8,1.3c-0.8,0.8-1.3,1.8-1.3,2.7c0,1.1,0.5,2.1,1.4,3.1c0.4,0.4,1,0.8,1.8,1.4
	c0.8,0.6,1.6,1.1,2.4,1.7c0.8,0.6,1.3,1,1.7,1.3c0.5,0.5,0.9,1.1,1.1,1.6c0.2,0.5,0.3,1.1,0.3,1.7c0,0.7-0.2,1.4-0.7,2.1
	c-0.4,0.7-1.1,1.2-1.9,1.7c-0.9,0.4-1.8,0.6-2.9,0.6v-0.2c0.9,0,1.7-0.2,2.4-0.6c0.7-0.4,1.2-0.9,1.6-1.5
	C391,425.2,391.2,424.5,391.2,423.8z M203.1,408.9l3.2,0.5c0.2,1.4,0.3,3.1,0.3,5.1v5.8c0,0.5,0,1,0,1.5c0,0.5-0.1,1.1-0.1,1.7
	c-0.7-0.7-1.3-1.3-1.7-1.7c-0.4-0.5-1-1.1-1.8-2l-5.9-6.6c-0.5-0.6-1.2-1.3-1.9-2.2c-0.7-0.8-1.3-1.6-1.7-2.2h-6.6v0.1l2.4,0.5
	l1.7,1.3c0.1,0.7,0.1,1.5,0.1,2.3c0,0.8,0,1.5,0,2.3v6.5c0,0.9,0,2-0.1,3.2c0,1.2-0.1,2.1-0.2,2.7l-3.2,0.5v0.1h8v-0.1l-3.3-0.5
	c-0.2-1.6-0.3-2.9-0.3-4v-8.5c0-1,0.1-2.2,0.2-3.4c0.8,0.8,1.9,1.8,3.1,3.1l8,9.1c1.3,1.5,2.7,3.1,4,4.8h0.1v-14.6
	c0-1.9,0.1-3.5,0.2-4.8l3.2-0.5v-0.1h-7.8V408.9z M206.6,427.2l-15.8-17.9h1.1l14.7,16.7V427.2z M307.6,414.2c0-1,0.1-1.8,0.1-2.5
	c0.1-0.7,0.1-1.5,0.2-2.3l3.3-0.5v-0.1h-9.9v0.1l3.3,0.5c0.3,1.9,0.4,4.4,0.4,7.4v2.3c0,1.5,0,3-0.1,4.6c-0.1,1.6-0.2,2.9-0.3,4
	l-3.2,0.5v0.1h9.9v-0.1l-3.3-0.5c-0.1-0.4-0.1-1.1-0.2-1.9c-0.1-0.8-0.1-1.9-0.2-3.1c0-1.2-0.1-2.1-0.1-2.7v-3
	C307.5,416.1,307.5,415.2,307.6,414.2z M306.2,427.8h-0.9v-18.5h0.9V427.8z M48.3,421.5h92.9v-1.8H48.3V421.5z M168,408.9l3.3,0.5
	c0.3,1.9,0.4,4.4,0.4,7.4v2.3c0,1.5,0,3-0.1,4.6c-0.1,1.6-0.2,2.9-0.3,4l-3.2,0.5v0.1h9.9v-0.1l-3.3-0.5c-0.1-0.4-0.1-1.1-0.2-1.9
	c-0.1-0.8-0.1-1.9-0.2-3.1c0-1.2-0.1-2.1-0.1-2.7v-3c0-0.9,0-1.8,0-2.8c0-1,0.1-1.8,0.1-2.5c0-0.7,0.1-1.5,0.2-2.3l3.3-0.5v-0.1H168
	V408.9z M172,409.3h0.9v18.5H172V409.3z M278.2,419.5c0.3-0.1,0.7-0.1,1.3-0.1c0.6,0,1.1,0.1,1.4,0.2c0.3,0.1,0.7,0.4,1,0.8
	c0.2,0.3,0.6,0.7,1,1.3c0.4,0.6,1,1.4,1.6,2.3c0.6,0.9,1.1,1.6,1.4,2c0.3,0.4,0.6,0.8,0.9,1.1c0.7,0.8,1.8,1.2,3,1.2h2.3v-0.1
	c-0.7,0-1.4-0.4-2.2-1.1c-0.3-0.3-0.7-0.8-1.1-1.3c-0.4-0.6-0.9-1.3-1.5-2.3c-0.7-1-1.2-1.8-1.6-2.3c-0.4-0.6-0.7-1-1.1-1.3
	c-0.4-0.4-0.9-0.7-1.5-1v-0.1c0.6-0.1,1.3-0.3,1.9-0.7c0.6-0.4,1.1-0.9,1.5-1.6c0.4-0.7,0.6-1.4,0.6-2.3c0-0.6-0.2-1.3-0.6-2.2
	c-0.4-0.8-1-1.6-2-2.3c-1-0.7-2.3-1-3.9-1H272v0.1l3.1,0.5c0.1,0.8,0.2,1.9,0.3,3.2c0.1,1.4,0.1,2.6,0.1,3.6v4.1
	c0,0.7,0,1.9-0.1,3.6c-0.1,1.6-0.2,2.9-0.3,3.8l-3.1,0.5v0.1h9.8v-0.1l-3.3-0.5c-0.2-1.7-0.3-3.1-0.3-4.1v-2.5
	C278.2,420.5,278.2,420,278.2,419.5z M284.5,421.6l2.3,3.3c1.1,1.6,2,2.5,2.7,2.7v0.1c-0.7,0-1.4-0.2-1.9-0.6
	c-0.5-0.4-1.1-1.1-1.8-2.1l-2.8-4.2c-0.4-0.7-0.9-1.2-1.4-1.5l0.1-0.1c0.6,0.1,1.2,0.4,1.6,0.7C283.5,420.4,284,420.9,284.5,421.6z
	 M279.4,409h0.7c0.7,0,1.3,0.1,2,0.3c0.7,0.2,1.3,0.6,1.8,1c0.5,0.4,1,1,1.3,1.7c0.3,0.7,0.5,1.4,0.5,2.2c0,1.1-0.3,2-0.9,2.7
	c-0.6,0.8-1.3,1.2-2.2,1.5l-0.1-0.1c1.5-0.8,2.3-2.1,2.3-3.9c0-0.8-0.2-1.6-0.6-2.4c-0.4-0.8-0.9-1.5-1.7-2.1
	c-0.8-0.6-1.8-0.9-3-0.9V409z M276.8,427.8h-0.9v-18.5h0.9V427.8z M278.1,416.4v-2.2c0-0.6,0-1.4,0.1-2.4c0.1-1,0.1-1.7,0.2-2.2
	c0.3-0.1,0.7-0.1,1.2-0.1c0.5,0,1.1,0.1,1.6,0.4c0.6,0.2,1.1,0.6,1.5,1c0.4,0.4,0.8,1,1.1,1.6c0.3,0.6,0.4,1.3,0.4,2
	c0,0.7-0.1,1.4-0.4,2.1c-0.3,0.6-0.8,1.1-1.5,1.5c-0.7,0.4-1.6,0.6-2.7,0.6c-0.7,0-1.1,0-1.5-0.1
	C278.2,417.9,278.1,417.2,278.1,416.4z M355.6,423.9c-0.1,1.6-0.2,2.9-0.3,3.8l-3.1,0.5v0.1h9.8v-0.1l-3.3-0.5
	c-0.2-1.7-0.3-3.1-0.3-4.1v-2.5c0-0.6,0-1.1,0.1-1.6c0.3-0.1,0.7-0.1,1.3-0.1c0.6,0,1.1,0.1,1.4,0.2c0.3,0.1,0.7,0.4,1,0.8
	c0.3,0.3,0.6,0.7,1,1.3c0.4,0.6,0.9,1.4,1.6,2.3c0.6,0.9,1.1,1.6,1.4,2c0.3,0.4,0.6,0.8,0.9,1.1c0.7,0.8,1.8,1.2,3,1.2h2.3v-0.1
	c-0.7,0-1.4-0.4-2.2-1.1c-0.3-0.3-0.7-0.8-1.1-1.3c-0.4-0.6-0.9-1.3-1.5-2.3c-0.7-1-1.2-1.8-1.6-2.3c-0.4-0.6-0.7-1-1.1-1.3
	c-0.4-0.4-0.9-0.7-1.5-1v-0.1c0.6-0.1,1.3-0.3,1.9-0.7c0.6-0.4,1.1-0.9,1.5-1.6c0.4-0.7,0.6-1.4,0.6-2.3c0-0.6-0.2-1.3-0.6-2.2
	c-0.4-0.8-1-1.6-2-2.3c-1-0.7-2.3-1-3.9-1h-8.6v0.1l3.1,0.5c0.1,0.8,0.2,1.9,0.3,3.2c0.1,1.4,0.1,2.6,0.1,3.6v4.1
	C355.7,421.1,355.6,422.3,355.6,423.9z M364.6,421.6l2.3,3.3c1.1,1.6,2,2.5,2.7,2.7v0.1c-0.7,0-1.4-0.2-1.9-0.6
	c-0.5-0.4-1.1-1.1-1.8-2.1l-2.9-4.2c-0.4-0.7-0.9-1.2-1.4-1.5l0.1-0.1c0.6,0.1,1.2,0.4,1.6,0.7C363.7,420.4,364.2,420.9,364.6,421.6
	z M359.6,409h0.7c0.7,0,1.3,0.1,2,0.3c0.7,0.2,1.3,0.6,1.8,1c0.5,0.4,1,1,1.3,1.7c0.3,0.7,0.5,1.4,0.5,2.2c0,1.1-0.3,2-0.9,2.7
	c-0.6,0.8-1.3,1.2-2.2,1.5l-0.1-0.1c1.5-0.8,2.3-2.1,2.3-3.9c0-0.8-0.2-1.6-0.6-2.4c-0.4-0.8-1-1.5-1.8-2.1c-0.8-0.6-1.8-0.9-3-0.9
	V409z M358.3,414.2c0-0.6,0-1.4,0.1-2.4c0.1-1,0.1-1.7,0.2-2.2c0.3-0.1,0.7-0.1,1.2-0.1c0.5,0,1.1,0.1,1.6,0.4
	c0.6,0.2,1.1,0.6,1.5,1c0.4,0.4,0.8,1,1.1,1.6c0.3,0.6,0.4,1.3,0.4,2c0,0.7-0.1,1.4-0.4,2.1c-0.3,0.6-0.8,1.1-1.5,1.5
	c-0.7,0.4-1.6,0.6-2.7,0.6c-0.6,0-1.1,0-1.5-0.1c0-0.7-0.1-1.4-0.1-2.2V414.2z M356,409.3h0.9v18.5H356V409.3z M325.7,426.9
	c1.6,1,3.6,1.6,6,1.6c1.6,0,3.1-0.3,4.4-0.9c1.3-0.6,2.5-1.4,3.3-2.3c0.9-1,1.6-2,2-3.2c0.5-1.2,0.7-2.4,0.7-3.6
	c0-1.1-0.2-2.2-0.6-3.3c-0.4-1.1-1-2.2-1.9-3.3c-0.9-1-2-1.8-3.4-2.5c-1.4-0.6-3-0.9-4.8-0.9c-1.5,0-2.9,0.3-4.3,0.8
	c-1.3,0.5-2.4,1.3-3.4,2.3c-0.9,1-1.7,2-2.2,3.2c-0.5,1.2-0.7,2.5-0.7,3.7c0,1.5,0.4,3,1.2,4.5C322.9,424.5,324.1,425.8,325.7,426.9
	z M332.2,408.9c1.1,0,2.1,0.2,3.1,0.7c1,0.4,1.9,1,2.7,1.8c0.8,0.8,1.5,1.8,1.9,3c0.5,1.2,0.7,2.6,0.7,4.2c0,1.4-0.2,2.8-0.7,3.9
	c-0.4,1.2-1.1,2.2-1.9,3c-0.8,0.8-1.7,1.4-2.7,1.9c-1,0.4-2.1,0.7-3.2,0.7v-0.2c1.3-0.1,2.5-0.5,3.4-1.1c1-0.6,1.7-1.3,2.3-2.2
	c0.6-0.9,1-1.8,1.3-2.9c0.3-1,0.4-2.1,0.4-3.2c0-1.7-0.2-3.2-0.7-4.4c-0.4-1.2-1.1-2.2-1.8-2.9c-0.7-0.7-1.5-1.3-2.4-1.6
	c-0.9-0.3-1.7-0.5-2.6-0.6V408.9z M331.6,409.4c0.9,0,1.8,0.2,2.7,0.5c0.9,0.3,1.7,0.8,2.3,1.5c0.8,0.8,1.4,1.8,1.8,2.9
	c0.4,1.1,0.6,2.6,0.6,4.4c0,1.4-0.2,2.6-0.6,3.7c-0.4,1.1-1,2-1.7,2.8c-0.7,0.7-1.5,1.3-2.4,1.7c-0.9,0.4-1.8,0.6-2.8,0.6
	c-1.2,0-2.4-0.3-3.6-1c-1.2-0.7-2.1-1.7-2.8-3.1c-0.7-1.4-1.1-3.1-1.1-5c0-1.9,0.4-3.5,1-4.8c0.7-1.4,1.6-2.4,2.7-3.1
	C328.9,409.7,330.2,409.4,331.6,409.4z M321.5,418.5c0-1.3,0.3-2.5,0.7-3.6c0.5-1.2,1.2-2.2,2.1-3.1c0.9-0.9,1.9-1.6,3.1-2.1
	c1.2-0.5,2.3-0.8,3.6-0.8v0.1c-1.3,0.1-2.4,0.4-3.5,1c-1.1,0.5-2,1.3-2.7,2.1c-0.7,0.9-1.3,1.9-1.7,3c-0.4,1.1-0.6,2.3-0.6,3.5
	c0,1.5,0.4,2.9,1,4.3c0.7,1.4,1.7,2.5,3,3.4c1.3,0.9,2.8,1.5,4.5,1.6v0.2c-1.7-0.1-3.4-0.5-4.8-1.5c-1.5-0.9-2.6-2.1-3.4-3.6
	C321.9,421.5,321.5,420,321.5,418.5z M236,408.7c-0.6,0-1.2,0.1-1.9,0.1h-11.4c-0.3,0-0.7,0-1.2-0.1c-0.5-0.1-0.9-0.1-1.2-0.1
	l-0.3,4.4h0.2l0.9-3.2c0.9-0.2,1.9-0.2,2.8-0.2c0.6,0,1.2,0.1,1.9,0.2c0.7,0.1,1.3,0.2,1.8,0.3c0.1,0.9,0.2,1.8,0.2,2.8
	c0.1,1,0.1,2,0.1,3v4.8c0,2.8-0.1,5.2-0.4,7.1l-3.2,0.5v0.1h9.9v-0.1l-3.3-0.5c-0.1-0.9-0.2-2-0.3-3.5c-0.1-1.4-0.1-2.8-0.1-3.9
	v-4.4c0-0.2,0-0.7,0-1.3c0-0.7,0-1.4,0.1-2.1c0-0.8,0.1-1.6,0.2-2.4c0.7-0.2,1.4-0.3,2-0.4c0.6-0.1,1.3-0.1,2-0.1
	c0.9,0,1.7,0.1,2.5,0.2l1,3.1h0.2l-0.3-4.3C237.3,408.6,236.6,408.6,236,408.7z M229.3,427.8h-0.9v-18.5h0.9V427.8z M251.3,421.2
	c0,0.6-0.1,1.4-0.1,2.3c-0.1,0.9-0.1,1.8-0.1,2.5c-0.1,0.8-0.1,1.3-0.2,1.7l-3.1,0.5v0.1h14.1l0.3-4.2H262l-1,3.2
	c-0.7,0.1-1.5,0.1-2.5,0.1c-1.7,0-3.2-0.2-4.2-0.5c-0.1-0.6-0.1-1.3-0.1-2.1c0-0.8-0.1-1.9-0.1-3.1c-0.1-1,0-2,0.1-3
	c0.9-0.1,2-0.2,3.1-0.2c0.9,0,1.8,0,2.5,0.1l0.6,2.4h0.2v-5.7h-0.2l-0.6,2.3c-1,0.1-2.1,0.2-3.1,0.2c-0.4,0-1.3,0-2.6-0.1
	c-0.1-0.7-0.1-1.7-0.1-2.8c0-1.9,0.1-3.5,0.2-4.9c1-0.2,2.4-0.4,4.1-0.4c0.9,0,1.8,0,2.5,0.1l1,3.2h0.2l-0.3-4.2h-14v0.1l3.3,0.5
	c0.1,0.8,0.2,1.7,0.2,2.5c0,0.9,0.1,1.7,0.1,2.4c0,0.8,0,1.4,0,1.8v3.4C251.3,420,251.3,420.5,251.3,421.2z M251.7,409.3h0.9v18.5
	h-0.9V409.3z"/>
</svg>
